<svg xmlns="http://www.w3.org/2000/svg" xmlns:xlink="http://www.w3.org/1999/xlink" width="268" zoomAndPan="magnify" viewBox="0 0 200.87999 125.999998" height="168" preserveAspectRatio="xMidYMid meet" version="1.0"><defs><g/><clipPath id="7bb20cadcf"><path d="M 52 82 L 88 82 L 88 125.960938 L 52 125.960938 Z M 52 82 " clip-rule="nonzero"/></clipPath><clipPath id="dc0767f1d0"><path d="M 9.75 62.589844 L 53.972656 62.589844 L 53.972656 125.960938 L 9.75 125.960938 Z M 9.75 62.589844 " clip-rule="nonzero"/></clipPath><clipPath id="d736685589"><path d="M 38 122 L 42 122 L 42 125.960938 L 38 125.960938 Z M 38 122 " clip-rule="nonzero"/></clipPath><clipPath id="d84132b91b"><path d="M 37 124 L 40 124 L 40 125.960938 L 37 125.960938 Z M 37 124 " clip-rule="nonzero"/></clipPath><clipPath id="ad730db9e9"><path d="M 35 124 L 38 124 L 38 125.960938 L 35 125.960938 Z M 35 124 " clip-rule="nonzero"/></clipPath><clipPath id="0d228f1e66"><path d="M 36 125 L 38 125 L 38 125.960938 L 36 125.960938 Z M 36 125 " clip-rule="nonzero"/></clipPath><clipPath id="dadb04f0e3"><path d="M 33 122 L 36 122 L 36 125.960938 L 33 125.960938 Z M 33 122 " clip-rule="nonzero"/></clipPath></defs><g clip-path="url(#7bb20cadcf)"><g fill="#b07aa8" fill-opacity="0.302"><g transform="translate(51.544466, 125.878049)"><g><path d="M 1.289062 0 L 12.839844 0 L 12.839844 -0.429688 C 9.148438 -0.429688 8.890625 -3.476562 8.890625 -11.9375 L 8.890625 -41.824219 C 11.507812 -42.769531 13.570312 -43.199219 16.746094 -43.199219 C 24.734375 -43.199219 29.757812 -38.820312 29.757812 -31.691406 C 29.757812 -26.539062 26.28125 -21.257812 20.914062 -21.257812 C 16.917969 -21.257812 14.945312 -23.703125 12.410156 -23.703125 C 11.636719 -23.703125 10.90625 -23.273438 10.90625 -22.242188 C 10.90625 -19.324219 15.460938 -19.152344 19.625 -12.882812 C 26.410156 -2.707031 27.613281 0 29.585938 0 L 36.15625 0 L 36.15625 -0.429688 C 31.261719 -0.429688 27.269531 -8.074219 23.875 -13.355469 C 20.398438 -18.765625 11.335938 -19.367188 11.335938 -22.15625 C 11.335938 -23.144531 12.066406 -23.273438 12.582031 -23.273438 C 14.386719 -23.273438 17.132812 -20.527344 21.171875 -20.527344 C 28.640625 -20.527344 33.453125 -25.851562 33.453125 -31.734375 C 33.453125 -38.734375 28.339844 -43.800781 19.195312 -43.800781 C 14.214844 -43.800781 11.164062 -42.941406 6.441406 -42.941406 L 1.289062 -42.941406 L 1.289062 -42.511719 C 4.980469 -42.511719 5.238281 -39.464844 5.238281 -31.003906 L 5.238281 -11.9375 C 5.238281 -3.476562 4.980469 -0.429688 1.289062 -0.429688 Z M 1.289062 0 "/></g></g></g></g><g fill="#b07aa8" fill-opacity="0.502"><g transform="translate(49.883308, 124.434026)"><g><path d="M 1.289062 0 L 12.839844 0 L 12.839844 -0.429688 C 9.148438 -0.429688 8.890625 -3.476562 8.890625 -11.9375 L 8.890625 -41.824219 C 11.507812 -42.769531 13.570312 -43.199219 16.746094 -43.199219 C 24.734375 -43.199219 29.757812 -38.820312 29.757812 -31.691406 C 29.757812 -26.539062 26.28125 -21.257812 20.914062 -21.257812 C 16.917969 -21.257812 14.945312 -23.703125 12.410156 -23.703125 C 11.636719 -23.703125 10.90625 -23.273438 10.90625 -22.242188 C 10.90625 -19.324219 15.460938 -19.152344 19.625 -12.882812 C 26.410156 -2.707031 27.613281 0 29.585938 0 L 36.15625 0 L 36.15625 -0.429688 C 31.261719 -0.429688 27.269531 -8.074219 23.875 -13.355469 C 20.398438 -18.765625 11.335938 -19.367188 11.335938 -22.15625 C 11.335938 -23.144531 12.066406 -23.273438 12.582031 -23.273438 C 14.386719 -23.273438 17.132812 -20.527344 21.171875 -20.527344 C 28.640625 -20.527344 33.453125 -25.851562 33.453125 -31.734375 C 33.453125 -38.734375 28.339844 -43.800781 19.195312 -43.800781 C 14.214844 -43.800781 11.164062 -42.941406 6.441406 -42.941406 L 1.289062 -42.941406 L 1.289062 -42.511719 C 4.980469 -42.511719 5.238281 -39.464844 5.238281 -31.003906 L 5.238281 -11.9375 C 5.238281 -3.476562 4.980469 -0.429688 1.289062 -0.429688 Z M 1.289062 0 "/></g></g></g><g fill="#b07aa8" fill-opacity="1"><g transform="translate(48.22215, 122.990005)"><g><path d="M 1.289062 0 L 12.839844 0 L 12.839844 -0.429688 C 9.148438 -0.429688 8.890625 -3.476562 8.890625 -11.9375 L 8.890625 -41.824219 C 11.507812 -42.769531 13.570312 -43.199219 16.746094 -43.199219 C 24.734375 -43.199219 29.757812 -38.820312 29.757812 -31.691406 C 29.757812 -26.539062 26.28125 -21.257812 20.914062 -21.257812 C 16.917969 -21.257812 14.945312 -23.703125 12.410156 -23.703125 C 11.636719 -23.703125 10.90625 -23.273438 10.90625 -22.242188 C 10.90625 -19.324219 15.460938 -19.152344 19.625 -12.882812 C 26.410156 -2.707031 27.613281 0 29.585938 0 L 36.15625 0 L 36.15625 -0.429688 C 31.261719 -0.429688 27.269531 -8.074219 23.875 -13.355469 C 20.398438 -18.765625 11.335938 -19.367188 11.335938 -22.15625 C 11.335938 -23.144531 12.066406 -23.273438 12.582031 -23.273438 C 14.386719 -23.273438 17.132812 -20.527344 21.171875 -20.527344 C 28.640625 -20.527344 33.453125 -25.851562 33.453125 -31.734375 C 33.453125 -38.734375 28.339844 -43.800781 19.195312 -43.800781 C 14.214844 -43.800781 11.164062 -42.941406 6.441406 -42.941406 L 1.289062 -42.941406 L 1.289062 -42.511719 C 4.980469 -42.511719 5.238281 -39.464844 5.238281 -31.003906 L 5.238281 -11.9375 C 5.238281 -3.476562 4.980469 -0.429688 1.289062 -0.429688 Z M 1.289062 0 "/></g></g></g><g clip-path="url(#dc0767f1d0)"><path fill="#b07aa8" d="M 96.773438 79.113281 C 96.75 79.347656 96.703125 79.40625 96.464844 79.449219 C 96.113281 79.515625 95.757812 79.597656 95.402344 79.605469 C 94.675781 79.625 93.960938 79.703125 93.238281 79.742188 C 92.289062 79.792969 89.335938 79.257812 88.457031 79.054688 C 86.445312 78.59375 83.957031 77.914062 80.285156 76.429688 C 79.230469 76.003906 80.417969 75.5 78.695312 73.429688 C 78.261719 72.910156 77.449219 72.761719 77.332031 72.523438 C 77.949219 72.171875 80.945312 71.59375 81.589844 71.488281 C 83.066406 71.246094 85.425781 71.257812 86.871094 71.324219 C 90.667969 71.496094 91.15625 71.976562 91.917969 72.09375 C 92.90625 72.25 93.613281 72.675781 95.492188 73.808594 C 96.644531 74.5 96.515625 74.777344 96.671875 74.851562 C 96.921875 74.964844 97.15625 74.886719 96.773438 79.113281 Z M 96.027344 86.507812 C 95.964844 86.640625 95.878906 86.714844 95.722656 86.714844 C 92.265625 86.722656 93.722656 86.566406 91.074219 86.324219 C 90.519531 86.273438 89.992188 86.109375 89.476562 85.917969 C 88.09375 85.398438 86.671875 84.964844 85.332031 84.332031 C 84.816406 84.085938 84.3125 83.816406 83.785156 83.605469 C 83.113281 83.335938 82.523438 82.914062 81.824219 82.703125 C 80.109375 82.191406 78.992188 81.148438 77.828125 80.941406 C 77.398438 80.863281 77.789062 80.6875 78.570312 79.671875 C 79.878906 77.972656 79.390625 76.515625 79.96875 76.832031 C 82.042969 77.96875 90.644531 80.5625 93.808594 80.25 C 95.515625 80.078125 94.203125 80.296875 96.132812 80.054688 C 96.316406 80.03125 96.640625 79.902344 96.640625 80.1875 C 96.644531 81.132812 97.230469 83.941406 96.027344 86.507812 Z M 94.140625 92.875 C 93.761719 94.179688 93.21875 95.667969 92.398438 96.746094 C 90.972656 98.617188 90.714844 101.292969 87.878906 103.492188 C 87.34375 103.910156 86.804688 103.949219 86.183594 103.730469 C 85.113281 103.351562 83.332031 102.179688 82.453125 101.464844 C 79.652344 99.199219 79.746094 99.113281 78.804688 98.214844 C 78.324219 97.753906 77.632812 97.144531 77.589844 97.09375 C 77.039062 96.402344 75.378906 94.777344 74.1875 93.265625 C 72.773438 91.472656 71.414062 90.179688 71.414062 90.175781 C 70.351562 89.089844 69.730469 88.261719 67.925781 87.007812 C 67.429688 86.660156 66.8125 86.332031 66.65625 85.660156 C 67.613281 85.023438 69.109375 84.796875 70.195312 84.367188 C 71.359375 83.910156 71.488281 83.863281 71.523438 84.09375 C 71.613281 84.667969 72.199219 83.832031 78.097656 88.300781 C 81.671875 91.015625 88.019531 95.050781 92.074219 95.910156 C 92.175781 95.929688 92.539062 95.96875 92.695312 95.929688 C 93.007812 95.851562 92.972656 95.351562 92.644531 95.402344 C 91.148438 95.628906 86.066406 92.882812 84.761719 92.15625 C 82.207031 90.730469 78.792969 88.21875 75.933594 86.203125 C 71.761719 83.257812 70.667969 84.203125 74.003906 82.9375 C 74.222656 82.855469 74.660156 82.574219 74.917969 82.476562 C 76.773438 81.769531 76.730469 81.175781 77.453125 81.339844 C 78.171875 81.5 79.054688 81.929688 79.445312 82.167969 C 80.75 82.960938 81.28125 82.910156 82.617188 83.566406 C 85.738281 85.101562 85.679688 85.109375 89.871094 86.578125 C 90.714844 86.871094 91.472656 86.859375 92.675781 87.058594 C 94.527344 87.359375 94.390625 87.15625 95.640625 87.265625 C 94.1875 91.363281 94.894531 90.253906 94.140625 92.875 Z M 86.476562 106.273438 C 86.339844 106.386719 86.210938 106.332031 86.027344 106.261719 C 85.585938 106.257812 85.140625 106.199219 84.699219 106.175781 C 83.449219 106.121094 82.210938 106.171875 80.960938 106.226562 C 79.5 106.289062 78.039062 106.191406 76.589844 106.046875 C 75.574219 105.945312 74.328125 105.484375 73.355469 105.164062 C 70.859375 104.335938 70.964844 104.167969 69.269531 103.433594 C 68.976562 103.308594 68.820312 103.222656 66.195312 101.191406 C 64.273438 99.707031 64.433594 99.675781 61.691406 96.933594 C 61.460938 96.703125 61.226562 96.480469 60.988281 96.261719 C 60.855469 96.136719 60.609375 95.996094 60.605469 95.792969 C 60.792969 95.730469 61.191406 96.199219 61.320312 96.324219 C 61.632812 96.621094 61.933594 96.929688 62.242188 97.230469 C 63.082031 98.042969 63.972656 98.800781 64.964844 99.421875 C 65.097656 99.507812 65.355469 99.65625 65.410156 99.507812 C 65.46875 99.34375 65.191406 99.210938 65.144531 99.175781 C 64.457031 98.722656 63.816406 98.210938 63.210938 97.652344 C 62.851562 97.324219 62.5 96.988281 62.148438 96.652344 C 61.914062 96.429688 61.683594 96.210938 61.449219 95.988281 C 61.320312 95.867188 61.195312 95.746094 61.0625 95.625 C 61 95.570312 60.753906 95.367188 60.933594 95.328125 C 61.007812 95.3125 61.277344 95.542969 61.347656 95.589844 C 61.507812 95.691406 61.667969 95.796875 61.824219 95.902344 C 62.339844 96.253906 62.839844 96.632812 63.320312 97.027344 C 64.09375 97.660156 64.832031 98.34375 65.671875 98.886719 C 66.136719 99.1875 66.628906 99.441406 67.136719 99.65625 C 68.15625 100.078125 68.378906 100.230469 68.488281 100.074219 C 68.523438 100.019531 68.476562 99.957031 68.425781 99.933594 C 67.585938 99.519531 66.664062 99.171875 65.886719 98.636719 C 64.984375 98.015625 64.160156 97.265625 63.289062 96.601562 C 62.980469 96.363281 62.667969 96.128906 62.359375 95.894531 C 62.175781 95.757812 61.992188 95.621094 61.808594 95.484375 C 61.75 95.441406 61.277344 95.144531 61.390625 95.078125 C 61.5 95.015625 61.988281 95.292969 62.101562 95.347656 C 62.828125 95.714844 63.488281 96.238281 64.136719 96.726562 C 65.453125 97.71875 66.519531 98.179688 66.617188 98.203125 C 66.871094 98.261719 66.945312 98.101562 66.71875 97.976562 C 64.6875 96.855469 64.652344 96.515625 62.8125 95.328125 C 61.921875 94.753906 62.386719 95.132812 59.429688 93.582031 C 59.035156 93.371094 59.171875 93.285156 59.449219 93.371094 C 60.351562 93.660156 61.230469 94.019531 62.046875 94.503906 C 62.332031 94.671875 62.605469 94.855469 62.882812 95.039062 C 63.011719 95.121094 63.136719 95.207031 63.265625 95.285156 C 63.328125 95.328125 63.488281 95.484375 63.574219 95.433594 C 63.703125 95.355469 63.550781 95.292969 63.550781 95.21875 C 63.546875 95.183594 63.511719 95.144531 63.511719 95.109375 C 63.753906 95.117188 64.070312 95.390625 64.273438 95.511719 C 65.027344 95.957031 65.796875 96.378906 66.582031 96.773438 C 68.003906 97.492188 69.34375 98.363281 70.757812 99.105469 C 70.761719 99.105469 77.605469 102.617188 78.265625 102.925781 C 80.183594 103.820312 82.984375 104.671875 84.765625 104.699219 C 85.476562 104.707031 86.347656 105.496094 86.476562 106.273438 Z M 86.832031 107.289062 C 87.078125 108.277344 88.046875 110.589844 86.871094 114.230469 C 86.269531 116.085938 84.027344 119.722656 83.378906 120.539062 C 83.257812 120.691406 83.195312 120.695312 83.042969 120.605469 C 82.539062 120.296875 82.03125 120.003906 81.539062 119.683594 C 79.039062 118.066406 77.132812 115.816406 75.839844 114.722656 C 75.679688 114.589844 73.671875 112.429688 71.570312 109.550781 C 71.132812 108.953125 69.683594 106.671875 68.496094 104.894531 C 66.914062 102.523438 66.886719 102.734375 66.945312 102.511719 C 67.277344 102.597656 68.058594 103.503906 69.707031 104.28125 C 71.34375 105.050781 71.578125 105.054688 72.109375 105.648438 C 75.054688 108.929688 75.652344 109 77.628906 110.726562 C 79.328125 112.207031 85.765625 116.039062 86.007812 115.339844 C 86.042969 115.230469 85.996094 115.027344 85.914062 114.976562 C 85.570312 114.761719 85.769531 115.226562 81.851562 112.949219 C 79.496094 111.578125 79.304688 111.445312 78.410156 110.730469 C 78.386719 110.710938 72.691406 106.183594 72.753906 105.625 C 73.15625 105.5625 74.863281 106.546875 77.4375 106.640625 C 79.167969 106.707031 80.25 106.898438 81.816406 106.730469 C 82.859375 106.613281 83.90625 106.628906 84.949219 106.648438 C 85.445312 106.65625 85.925781 106.796875 86.410156 106.898438 C 86.625 106.941406 86.773438 107.046875 86.832031 107.289062 Z M 81.300781 122.683594 C 81.121094 122.886719 80.910156 122.914062 80.679688 122.832031 C 79.308594 122.339844 78.253906 121.621094 77.003906 120.914062 C 76.777344 120.785156 75 119.277344 74.722656 119.027344 C 73.664062 118.074219 72.652344 116.886719 71.761719 115.726562 C 70.800781 114.476562 70.953125 114.832031 70.746094 114.503906 C 69.984375 113.285156 70.082031 113.757812 68.296875 110.886719 C 68.246094 110.800781 68.242188 110.792969 68.246094 110.800781 C 68.191406 110.71875 67.828125 110.167969 65.851562 107.117188 C 65.617188 106.753906 65.867188 106.976562 64.878906 105.445312 C 63.765625 103.726562 64.054688 103.953125 63.085938 102.34375 C 58.980469 95.542969 59.070312 96.175781 59.121094 95.863281 C 59.140625 95.726562 59.015625 95.625 58.929688 95.523438 C 58.402344 94.863281 58.445312 94.984375 58.542969 94.867188 C 59.609375 95.484375 62.609375 98.644531 63.46875 99.550781 C 65.023438 101.191406 65.367188 100.980469 66.027344 102.117188 C 66.6875 103.261719 66.519531 102.832031 69.359375 107.144531 C 71.828125 110.894531 71.726562 110.683594 73.75 113.164062 C 74.925781 114.609375 79.988281 119.636719 82.429688 120.878906 C 82.5625 120.945312 82.726562 120.953125 82.835938 121.09375 C 82.488281 121.59375 81.625 122.328125 81.300781 122.683594 Z M 76.910156 124.375 C 76.136719 124.203125 74.882812 124.222656 73.578125 123.328125 C 70.796875 121.421875 69.234375 120.277344 65.757812 116.003906 C 65.136719 115.242188 64.976562 114.726562 63.257812 111.601562 C 61.636719 108.652344 61.496094 107.636719 60.625 105.617188 C 59.976562 104.113281 60.207031 104.242188 59.960938 103.570312 C 59.542969 102.425781 58.035156 98.257812 57.152344 96.667969 C 56.964844 96.332031 57.164062 96.246094 57.230469 96.308594 C 57.59375 96.660156 58.710938 98.972656 59.054688 99.839844 C 60.570312 103.65625 60.367188 103.632812 61.160156 105.054688 C 61.160156 104.523438 61.128906 104.46875 59.820312 100.976562 C 58.484375 97.402344 58.339844 97.691406 58.25 97.449219 C 58.113281 97.066406 57.910156 96.714844 57.695312 96.375 C 57.597656 96.222656 57.496094 96.070312 57.394531 95.917969 C 57.367188 95.875 57.261719 95.761719 57.269531 95.707031 C 57.296875 95.46875 57.472656 95.722656 57.523438 95.785156 C 57.660156 95.964844 57.808594 96.128906 57.925781 96.324219 C 61.035156 101.707031 60.664062 102.386719 61.578125 103.101562 C 61.628906 102.933594 61.539062 102.800781 61.472656 102.671875 C 59.988281 99.800781 60.320312 99.585938 57.644531 95.339844 C 57.859375 95.296875 57.964844 95.398438 58.054688 95.519531 C 63.203125 102.269531 65.582031 109.15625 73.15625 118.191406 C 73.960938 119.152344 73.957031 118.949219 74.425781 119.414062 C 76.292969 121.265625 78.082031 122.28125 80.523438 123.359375 C 79.878906 124.1875 78.546875 124.742188 76.910156 124.375 Z M 56.964844 95.132812 C 56.945312 95.101562 56.863281 94.75 56.894531 94.746094 C 57.042969 94.726562 57.109375 94.828125 57.1875 94.902344 C 57.230469 94.9375 57.28125 95.007812 57.222656 95.039062 C 57.144531 95.078125 57.109375 95.144531 57.121094 95.230469 C 57.054688 95.234375 57.003906 95.191406 56.964844 95.132812 Z M 56.949219 88.304688 L 56.945312 88.332031 C 56.921875 88.316406 56.921875 88.308594 56.949219 88.304688 Z M 57.132812 87.777344 C 57.761719 86.734375 58.367188 85.660156 59.160156 84.722656 C 60.238281 83.441406 61.5625 82.359375 62.84375 81.289062 C 63.175781 81.011719 63.507812 80.734375 63.84375 80.460938 C 64.027344 80.308594 64.214844 80.152344 64.398438 80 C 64.460938 79.949219 64.609375 79.777344 64.6875 79.765625 C 64.734375 79.757812 64.78125 79.765625 64.808594 79.800781 C 64.761719 79.941406 64.585938 80.007812 64.488281 80.109375 C 61.671875 83.023438 60.917969 83.011719 57.273438 88 C 57.1875 88.117188 57.140625 88.273438 56.964844 88.292969 C 56.921875 88.089844 57.039062 87.933594 57.132812 87.777344 Z M 66.542969 78.125 C 67.160156 77.527344 67.882812 77.074219 68.582031 76.585938 C 68.714844 76.492188 68.898438 76.4375 68.757812 76.65625 C 68.699219 76.757812 68.503906 76.851562 68.410156 76.925781 C 68.21875 77.070312 68.027344 77.21875 67.835938 77.367188 C 67.582031 77.566406 67.328125 77.761719 67.074219 77.957031 C 66.917969 78.078125 66.765625 78.203125 66.609375 78.320312 C 66.421875 78.460938 65.277344 79.679688 65.085938 79.507812 C 64.96875 79.40625 66.386719 78.273438 66.542969 78.125 Z M 60.1875 92.445312 C 57.941406 91.125 57.921875 91.511719 57.875 91.191406 C 57.816406 90.78125 57.925781 89.777344 58.078125 89.40625 C 58.125 89.292969 58.21875 89.230469 58.316406 89.175781 C 60.632812 87.84375 60.140625 88.03125 60.878906 88.550781 C 61.410156 88.929688 61.832031 89.417969 62.199219 89.953125 C 62.808594 90.847656 63.382812 91.761719 63.917969 92.703125 C 66.300781 96.890625 66.730469 96.289062 60.1875 92.445312 Z M 61.308594 88.261719 C 60.546875 87.769531 60.386719 87.929688 65.523438 85.996094 C 65.675781 85.9375 65.867188 85.863281 66 86.007812 C 66.046875 86.058594 66.050781 86.171875 66.105469 86.238281 C 66.171875 86.328125 66.289062 86.394531 66.378906 86.457031 C 66.972656 86.871094 67.515625 87.34375 68.121094 87.742188 C 71.449219 89.933594 79.101562 101.21875 85.503906 103.996094 C 86.605469 104.472656 82.5625 104.320312 78.578125 102.570312 C 76.152344 101.503906 74.6875 100.558594 74.269531 100.363281 C 73.15625 99.835938 71.085938 98.773438 69.230469 97.71875 C 68.007812 97.023438 66.695312 96.515625 65.953125 95.238281 C 64.671875 93.019531 62.660156 89.132812 61.308594 88.261719 Z M 75.042969 73.34375 C 75.40625 73.164062 76.832031 72.839844 77.902344 73.472656 C 78.867188 74.039062 79.449219 75.199219 79.261719 76.445312 C 78.875 79.035156 77.347656 80.695312 75.675781 81.5625 C 72.996094 82.953125 67.941406 84.648438 64.632812 85.792969 C 59.640625 87.523438 59.730469 88.070312 59.640625 87.507812 C 59.628906 87.425781 59.625 87.359375 59.703125 87.3125 C 62.917969 85.546875 67.457031 83.953125 67.628906 83.726562 C 67.921875 83.332031 68.621094 83.296875 68.621094 83 C 67.734375 83.164062 60.777344 86.285156 60.777344 86.289062 C 60.675781 86.101562 60.886719 86.074219 61.597656 85.511719 C 61.597656 85.507812 63.773438 83.78125 63.800781 83.734375 C 63.847656 83.648438 63.785156 83.597656 63.710938 83.609375 C 63.515625 83.640625 63.363281 83.738281 63.203125 83.84375 C 62.632812 84.21875 62.089844 84.648438 61.542969 85.058594 C 61.300781 85.242188 61.054688 85.421875 60.8125 85.605469 C 60.667969 85.710938 60.527344 85.820312 60.382812 85.925781 C 60.230469 86.035156 60.046875 86.074219 60.15625 85.875 C 60.285156 85.648438 60.550781 85.441406 60.730469 85.253906 C 61.140625 84.832031 61.574219 84.429688 62.007812 84.035156 C 62.390625 83.6875 62.777344 83.347656 63.15625 83 C 63.328125 82.84375 63.679688 82.609375 63.761719 82.378906 C 63.769531 82.355469 63.800781 82.320312 63.773438 82.296875 C 63.546875 82.117188 63.398438 82.324219 61.144531 84.234375 C 61.03125 84.332031 60.921875 84.4375 60.78125 84.488281 C 60.90625 84.390625 60.992188 84.105469 62.394531 82.832031 C 64.078125 81.304688 64.183594 81.058594 65.324219 80.128906 C 68.179688 77.792969 70.394531 75.636719 75.042969 73.34375 Z M 80.800781 70.933594 C 81.839844 70.707031 81.433594 70.597656 84.527344 70.179688 C 85.570312 70.039062 85.398438 70.257812 87.933594 69.988281 C 89.425781 69.832031 90.617188 69.898438 92.785156 70.414062 C 93.328125 70.539062 93.8125 70.800781 94.292969 71.074219 C 95.070312 71.519531 95.632812 72.179688 96.171875 72.871094 C 96.582031 73.398438 96.707031 73.546875 96.722656 73.773438 C 96.601562 73.882812 96.558594 73.722656 96.296875 73.570312 C 92.765625 71.507812 93.480469 71.871094 92.257812 71.515625 C 89.363281 70.675781 86.339844 70.773438 84.125 70.75 C 81.542969 70.71875 81.082031 71.195312 80.664062 71.035156 C 80.714844 70.996094 80.753906 70.941406 80.800781 70.933594 Z M 55.832031 83.597656 C 55.859375 83.570312 55.878906 83.527344 55.90625 83.523438 C 56.121094 83.476562 56.277344 83.617188 56.261719 83.835938 C 56.257812 83.90625 56.152344 83.96875 56.097656 83.929688 C 55.996094 83.855469 55.824219 83.726562 55.832031 83.597656 Z M 55.800781 90.6875 C 55.671875 90.941406 55.472656 91.140625 55.285156 91.347656 C 55.105469 91.546875 55.367188 91.519531 55.402344 91.652344 C 55.449219 91.832031 54.988281 91.894531 55.207031 92.140625 C 55.25 92.183594 55.21875 92.234375 55.203125 92.292969 C 55.191406 92.347656 55.15625 92.441406 55.214844 92.484375 C 55.269531 92.523438 55.355469 92.488281 55.410156 92.464844 C 55.441406 92.453125 55.527344 92.398438 55.550781 92.453125 C 55.578125 92.519531 55.492188 92.574219 55.457031 92.617188 C 55.398438 92.691406 55.339844 92.757812 55.265625 92.816406 C 55.214844 92.855469 55.085938 92.933594 55.128906 93.015625 C 55.273438 93.265625 55.082031 93.359375 54.933594 93.464844 C 54.777344 93.570312 54.777344 93.757812 54.664062 93.890625 C 54.386719 94.222656 54.21875 94.234375 53.929688 93.914062 C 53.496094 93.433594 54.117188 93.324219 53.667969 92.84375 C 53.617188 92.789062 53.53125 92.695312 53.550781 92.664062 C 53.683594 92.386719 53.515625 92.199219 53.378906 91.996094 C 53.316406 91.90625 53.558594 91.808594 53.492188 91.65625 C 53.433594 91.519531 53.265625 91.425781 53.289062 91.261719 C 53.3125 91.078125 53.554688 91.097656 53.335938 90.257812 C 53.273438 90.019531 53.304688 89.753906 53.171875 89.519531 C 53.082031 89.363281 53.40625 89.207031 53.277344 89.050781 C 52.890625 88.589844 53.523438 88.277344 53.390625 87.867188 C 53.230469 87.378906 53.027344 87.140625 53.589844 86.695312 C 53.699219 86.929688 53.660156 87.183594 53.8125 87.351562 C 53.976562 87.53125 53.960938 87.78125 54.074219 87.972656 C 54.25 88.269531 54.152344 88.539062 54.3125 88.828125 C 54.652344 89.457031 54.101562 89.480469 54.246094 89.71875 C 54.359375 89.898438 54.421875 90.089844 54.449219 90.300781 C 54.46875 90.460938 54.828125 90.304688 54.800781 90.121094 C 54.75 89.773438 54.90625 89.453125 54.914062 89.125 C 54.925781 88.808594 54.929688 88.492188 54.90625 88.175781 C 54.886719 87.917969 54.820312 87.589844 54.96875 87.355469 C 55.113281 87.132812 55.347656 87 55.027344 86.769531 C 55.210938 86.707031 55.316406 86.742188 55.421875 86.792969 C 55.835938 87.003906 55.039062 87.523438 55.535156 87.582031 C 55.785156 87.613281 55.644531 87.75 55.371094 88.386719 C 55.242188 88.6875 55.792969 88.375 55.65625 88.695312 C 55.433594 89.238281 55.277344 89.335938 55.523438 89.414062 C 55.839844 89.519531 54.972656 90.152344 55.214844 90.308594 C 55.285156 90.359375 55.347656 90.234375 55.414062 90.339844 C 55.449219 90.394531 55.40625 90.457031 55.390625 90.507812 C 55.347656 90.621094 55.214844 90.699219 55.175781 90.8125 C 55.160156 90.855469 55.15625 90.886719 55.203125 90.902344 C 55.332031 90.945312 55.3125 90.945312 55.777344 90.445312 C 55.921875 90.535156 55.832031 90.621094 55.800781 90.6875 Z M 55.574219 99.292969 C 55.394531 99.625 55.554688 99.980469 55.507812 100.324219 C 55.394531 101.101562 54.339844 102.21875 54.820312 102.1875 C 54.910156 102.179688 54.984375 102.101562 55.058594 102.070312 C 55.113281 102.21875 54.542969 102.773438 54.917969 102.792969 C 55.148438 102.800781 54.964844 103.039062 54.765625 103.3125 C 54.691406 103.414062 54.671875 103.5 54.765625 103.605469 C 54.871094 103.726562 54.71875 103.804688 54.691406 103.902344 C 54.632812 104.125 54.863281 104.058594 55.109375 104.03125 C 55.167969 104.160156 55.070312 104.230469 54.722656 104.660156 C 54.800781 104.886719 55.078125 104.648438 55.292969 104.769531 C 55.121094 104.980469 54.949219 105.195312 54.78125 105.410156 C 54.707031 105.511719 54.769531 105.609375 54.921875 105.597656 C 55.253906 105.570312 55.054688 105.855469 55.089844 106 C 55.171875 106.304688 55.117188 106.605469 54.996094 106.890625 C 54.859375 107.199219 54.796875 107.089844 54.578125 106.929688 C 54.359375 106.769531 54.296875 106.484375 54.089844 106.316406 C 54.023438 106.265625 54.105469 106.226562 54.136719 106.1875 C 54.386719 105.910156 53.84375 105.949219 53.714844 105.582031 C 53.675781 105.46875 53.996094 105.636719 54.007812 105.648438 C 54.089844 105.707031 54.167969 105.667969 54.191406 105.59375 C 54.210938 105.515625 54.050781 105.34375 54.011719 105.277344 C 53.972656 105.210938 53.886719 105.117188 53.933594 105.035156 C 54.125 104.714844 53.597656 104.6875 53.722656 104.480469 C 53.769531 104.394531 53.847656 104.425781 53.921875 104.449219 C 53.949219 104.457031 53.988281 104.441406 54.03125 104.4375 C 54.050781 104.148438 53.679688 103.789062 53.910156 103.8125 C 54.007812 103.820312 54.113281 103.976562 54.203125 103.824219 C 54.316406 103.636719 53.964844 103.644531 53.402344 102.503906 C 53.640625 102.515625 53.675781 102.863281 53.941406 102.863281 C 54.097656 102.582031 53.457031 102.089844 53.570312 101.851562 C 53.613281 101.757812 53.75 101.871094 53.875 101.886719 C 54.039062 101.90625 53.957031 101.726562 53.855469 101.589844 C 53.742188 101.4375 53.613281 101.296875 53.675781 101.078125 C 53.703125 100.980469 53.621094 100.90625 53.578125 100.824219 C 53.109375 99.945312 53.046875 99.871094 53.230469 99.714844 C 53.425781 99.554688 52.992188 99.386719 52.910156 98.859375 C 52.886719 98.707031 52.910156 98.660156 53.113281 98.628906 C 53.226562 98.609375 53.324219 98.554688 53.28125 98.457031 C 53.199219 98.257812 53.289062 98.042969 53.207031 97.847656 C 53.148438 97.707031 53.191406 97.597656 53.316406 97.503906 C 53.5625 97.324219 53.242188 97.175781 53.183594 96.847656 C 53.167969 96.75 53.21875 96.699219 53.371094 96.71875 C 53.777344 96.777344 53.351562 96.074219 53.421875 95.738281 C 53.539062 95.164062 53.902344 95.703125 53.875 95.785156 C 53.769531 96.078125 53.976562 96.320312 53.972656 96.601562 C 53.96875 96.859375 53.953125 97.128906 54.078125 97.375 C 54.105469 97.4375 54.109375 97.535156 54.078125 97.597656 C 53.859375 98.042969 54.101562 98.429688 54.222656 98.832031 C 54.492188 99.746094 54.015625 99.71875 54.1875 99.957031 C 54.453125 100.328125 54.222656 100.679688 54.1875 101.050781 C 54.183594 101.082031 54.257812 101.21875 54.339844 101.136719 C 54.546875 100.933594 54.6875 100.6875 54.816406 100.433594 C 54.945312 100.183594 54.660156 99.730469 54.855469 99.433594 C 54.9375 99.3125 54.734375 99.367188 54.636719 98.257812 C 54.625 98.109375 54.632812 98.003906 54.730469 97.902344 C 54.988281 97.632812 54.371094 97.496094 54.820312 96.859375 C 55.082031 96.496094 54.617188 96.566406 54.828125 96.128906 C 54.925781 95.933594 54.96875 95.738281 54.882812 95.527344 C 54.875 95.511719 54.917969 95.480469 54.9375 95.457031 C 54.964844 95.480469 55.003906 95.496094 55.015625 95.523438 C 55.273438 96.238281 54.761719 96.664062 55.214844 96.839844 C 55.25 96.855469 55.257812 96.976562 55.257812 97.050781 C 55.257812 97.144531 55.222656 97.253906 55.328125 97.300781 C 55.472656 97.359375 55.480469 97.464844 55.441406 97.574219 C 55.28125 98.03125 55.382812 98.5 55.363281 98.960938 C 55.359375 99.042969 55.378906 99.113281 55.472656 99.125 C 55.578125 99.140625 55.605469 99.234375 55.574219 99.292969 Z M 55.292969 104.765625 L 55.292969 104.753906 C 55.296875 104.753906 55.300781 104.753906 55.304688 104.75 C 55.300781 104.757812 55.296875 104.761719 55.292969 104.765625 Z M 52.851562 84.988281 C 52.871094 84.101562 53.953125 83.890625 53.699219 84.207031 C 53.570312 84.367188 53.816406 84.492188 53.707031 84.625 C 53.585938 84.773438 53.710938 84.859375 53.773438 84.96875 C 53.878906 85.160156 53.925781 85.34375 53.714844 85.519531 C 53.609375 85.613281 53.648438 85.703125 53.804688 85.765625 C 53.886719 85.800781 53.988281 85.804688 54.050781 85.886719 C 54.210938 86.097656 53.894531 86.089844 53.550781 86.140625 C 53.230469 86.152344 53.101562 86.089844 53.035156 85.871094 C 52.949219 85.582031 52.84375 85.296875 52.851562 84.988281 Z M 52.5 84.085938 C 52.460938 84.113281 52.355469 84.054688 52.375 83.96875 C 52.421875 83.726562 52.558594 83.648438 52.925781 83.660156 C 52.835938 83.863281 52.65625 83.960938 52.5 84.085938 Z M 54.746094 85.773438 C 55.003906 85.757812 55.164062 85.640625 55.085938 85.394531 C 55.074219 85.363281 55.097656 85.324219 55.105469 85.285156 C 55.125 85.183594 55.300781 85.117188 55.195312 85 C 55.097656 84.894531 54.96875 85.011719 54.804688 84.921875 C 55.175781 84.542969 55.175781 84.5625 54.871094 84.441406 C 54.792969 84.410156 54.773438 84.316406 54.839844 84.265625 C 55.191406 84.007812 55.28125 83.925781 55.417969 84.054688 C 55.511719 84.148438 55.617188 84.230469 55.648438 84.386719 C 55.433594 84.644531 55.207031 84.824219 55.523438 84.917969 C 55.574219 84.929688 55.628906 84.9375 55.679688 84.953125 C 55.6875 84.957031 55.691406 85 55.683594 85.007812 C 55.511719 85.191406 55.722656 85.398438 55.632812 85.597656 C 55.378906 86.195312 55.363281 86.210938 54.707031 86.09375 C 54.394531 86.035156 54.316406 86.023438 54.316406 85.941406 C 54.320312 85.738281 54.683594 85.777344 54.746094 85.773438 Z M 47.867188 106.285156 C 48.535156 106.234375 48.609375 102.585938 51.230469 96.929688 C 51.308594 96.761719 51.375 96.585938 51.566406 96.460938 C 51.558594 96.542969 51.570312 96.601562 51.554688 96.652344 C 50.535156 99.429688 47.757812 109.957031 47.753906 109.957031 C 46.796875 113.871094 46.65625 114.480469 44.359375 119.914062 C 43.289062 122.445312 42.644531 123.175781 41.800781 124.199219 C 40.707031 125.527344 39.914062 126.292969 38.109375 126.820312 C 37.300781 127.054688 36.769531 126.855469 35.089844 126.460938 C 34.261719 126.265625 34.703125 126.03125 35.699219 124.621094 C 38.496094 120.664062 42.171875 109.871094 43.402344 106.914062 C 44.519531 104.230469 45.597656 100.246094 50.691406 94.953125 C 50.832031 94.804688 50.96875 94.644531 51.226562 94.589844 C 51.199219 94.878906 51.097656 95.121094 50.96875 95.347656 C 49.230469 98.351562 47.363281 104.050781 47.574219 104.027344 C 47.984375 103.980469 48.945312 99.535156 51.222656 95.417969 C 51.335938 95.21875 51.46875 95.03125 51.519531 94.804688 C 51.527344 94.765625 51.664062 94.667969 51.703125 94.84375 C 51.878906 95.609375 50.976562 95.707031 49.828125 99.113281 C 49.320312 100.621094 48.761719 102.117188 48.476562 103.699219 C 48.253906 104.914062 47.746094 106.0625 47.867188 106.285156 Z M 34.230469 125.941406 C 34.152344 126.054688 34.054688 126.078125 33.9375 126.054688 C 33.472656 125.960938 33.011719 125.867188 32.574219 125.667969 C 32.144531 125.46875 29.605469 124.09375 29.230469 123.835938 C 28.542969 123.359375 28.558594 123.332031 28.976562 122.953125 C 29.636719 122.351562 30.5625 120.511719 31.167969 119.640625 C 32.242188 118.085938 33.992188 114.339844 34.703125 112.578125 C 35.9375 109.527344 35.832031 109.53125 38.542969 105.367188 C 39.6875 103.613281 40.617188 104.058594 43.335938 101.703125 C 44.078125 101.054688 44.789062 100.367188 45.578125 99.773438 C 46.230469 99.28125 46.449219 98.898438 46.675781 98.917969 C 46.46875 100.128906 45.628906 98.871094 41.066406 111.742188 C 41.007812 111.910156 37.261719 121.390625 35.550781 124.160156 C 35.160156 124.792969 34.648438 125.328125 34.230469 125.941406 Z M 28.292969 122.972656 C 27.667969 122.476562 27.050781 121.726562 26.761719 121.441406 C 26.070312 120.75 25.523438 119.960938 25.183594 119.035156 C 24.972656 118.464844 24.660156 117.941406 24.382812 117.402344 C 24.105469 116.855469 24.113281 116.824219 24.589844 116.472656 C 25.15625 116.054688 25.675781 115.582031 26.273438 115.210938 C 27.335938 114.554688 27.273438 114.496094 28.070312 113.578125 C 28.722656 112.828125 28.675781 112.996094 28.996094 112.578125 C 30.316406 110.855469 30.960938 109.621094 31.476562 108.972656 C 31.839844 108.507812 32.175781 108.023438 32.507812 107.539062 C 33.082031 106.707031 33.617188 107.003906 35.21875 106.234375 C 35.691406 106.007812 35.882812 106.097656 37.699219 105.242188 C 37.726562 105.230469 37.9375 105.144531 37.964844 105.1875 C 37.980469 105.21875 38.011719 105.265625 38 105.285156 C 37.496094 106.15625 35.558594 109.007812 35.132812 110.1875 C 34.8125 111.0625 34.382812 111.886719 34.082031 112.769531 C 33.5 114.496094 29.660156 121.992188 28.292969 122.972656 Z M 23.960938 116.316406 C 23.765625 116.214844 23.832031 116.035156 23.601562 115.246094 C 23.179688 113.789062 23.550781 113.980469 23.414062 113.113281 C 23.292969 112.335938 23.425781 111.558594 23.417969 110.78125 C 23.410156 110.144531 23.710938 109.574219 23.949219 108.992188 C 23.976562 108.921875 24.015625 108.84375 24.097656 108.835938 C 24.320312 108.800781 24.457031 108.644531 24.613281 108.507812 C 24.8125 108.332031 25.761719 108.089844 26.246094 108.058594 C 27.742188 107.957031 28.871094 108.152344 30.535156 107.660156 C 30.878906 107.5625 31.230469 107.472656 31.582031 107.390625 C 31.722656 107.355469 31.871094 107.300781 32.054688 107.390625 C 31.644531 108.011719 30.996094 108.859375 30.84375 109.03125 C 30.328125 109.617188 28.339844 113.433594 25.800781 115.023438 C 25.074219 115.476562 25.023438 115.800781 23.960938 116.316406 Z M 25.289062 106.890625 C 25.519531 106.601562 25.910156 106.539062 26.15625 106.269531 C 26.296875 106.117188 26.679688 106.363281 29.164062 105.433594 C 30.753906 104.835938 41.023438 97.644531 43.3125 96.441406 C 43.378906 96.40625 43.457031 96.394531 43.546875 96.472656 C 38.273438 100.121094 40.875 98.34375 38.878906 99.734375 C 38.410156 100.058594 38.457031 100.347656 38.535156 100.355469 C 38.800781 100.375 38.625 100.042969 39.648438 99.507812 C 40.984375 98.808594 44.800781 95.828125 46.886719 95.121094 C 47.636719 94.867188 48.210938 94.464844 48.5625 94.566406 C 48.039062 95.234375 46.863281 95.339844 44.542969 97.03125 C 44.488281 97.070312 44.320312 97.277344 44.363281 97.300781 C 44.46875 97.351562 44.429688 97.359375 44.699219 97.179688 C 45.003906 96.980469 46.996094 95.691406 47.304688 95.882812 C 47.222656 96.054688 47.039062 96.097656 46.917969 96.210938 C 45.484375 97.527344 43.480469 98.738281 43.753906 98.878906 C 43.824219 98.914062 43.878906 98.800781 44.132812 98.652344 C 46.027344 97.53125 45.777344 97.675781 45.90625 97.675781 C 45.90625 97.898438 44.042969 99.480469 43.871094 99.628906 C 42.761719 100.585938 41.542969 101.023438 40.898438 101.816406 C 40.851562 101.875 40.78125 101.941406 40.875 102.007812 C 40.902344 102.023438 40.988281 102 41.019531 101.96875 C 41.613281 101.375 41.8125 101.433594 42.882812 100.777344 C 43.179688 100.601562 43.460938 100.40625 43.738281 100.199219 C 45.109375 99.175781 46.316406 97.945312 47.511719 96.726562 C 47.96875 96.257812 48.417969 95.785156 48.902344 95.34375 C 49.050781 95.207031 49.203125 95.0625 49.371094 94.953125 C 49.402344 94.933594 49.527344 94.835938 49.5625 94.84375 C 49.671875 94.875 49.472656 95.042969 49.433594 95.089844 C 49.355469 95.167969 49.28125 95.25 49.203125 95.328125 C 49.066406 95.476562 48.929688 95.621094 48.789062 95.769531 C 48.585938 95.988281 48.386719 96.207031 48.183594 96.429688 C 47.769531 96.890625 47.363281 97.367188 46.914062 97.796875 C 45.917969 98.757812 44.855469 99.65625 43.8125 100.566406 C 43.238281 101.070312 42.277344 102.144531 39.382812 103.742188 C 38.960938 103.976562 37.945312 104.628906 37.238281 104.917969 C 33.519531 106.4375 33.011719 106.59375 32.445312 106.695312 C 30.554688 107.03125 30.042969 107.570312 27.929688 107.53125 C 27.246094 107.519531 26.566406 107.597656 25.886719 107.609375 C 25.554688 107.617188 24.832031 108.039062 24.695312 107.863281 C 24.585938 107.71875 24.695312 107.640625 25.289062 106.890625 Z M 24.425781 105.511719 C 24.253906 105.621094 24.085938 105.625 23.890625 105.539062 C 20.910156 104.226562 21.136719 102.570312 18.789062 101.023438 C 18.648438 100.929688 18.507812 100.832031 18.367188 100.730469 C 18.304688 100.683594 18.332031 100.582031 18.410156 100.550781 C 18.75 100.402344 19.230469 100.488281 20.703125 99.128906 C 24.503906 95.632812 27.578125 91.570312 29.777344 89.617188 C 30.320312 89.128906 30.9375 88.359375 31.707031 87.679688 C 34.773438 84.960938 34.851562 84.933594 35.210938 84.777344 C 35.441406 84.679688 35.203125 84.421875 36.015625 84.5625 C 38.179688 84.941406 36.660156 84.484375 41.734375 85.832031 C 41.953125 85.886719 42.164062 85.976562 42.378906 86.058594 C 42.402344 86.066406 42.410156 86.117188 42.429688 86.15625 C 42.253906 86.355469 41.058594 87.140625 40.910156 87.234375 C 38.554688 88.753906 34.992188 93.734375 33.667969 95.382812 C 25.835938 105.121094 26.507812 104.210938 24.425781 105.511719 Z M 17.761719 100.289062 C 17.289062 100.507812 15.386719 97.675781 14.980469 96.214844 C 14.59375 94.824219 13.785156 93.5625 13.800781 93.394531 C 14.101562 93.007812 14.207031 93.972656 18.398438 90.550781 C 19.164062 89.925781 19.589844 89.472656 20.726562 88.726562 C 21.09375 88.484375 20.511719 88.867188 22.738281 87.234375 C 24.667969 85.816406 24.578125 85.890625 25.1875 85.292969 C 25.84375 84.652344 26.628906 84.175781 27.351562 83.621094 C 27.601562 83.429688 27.917969 83.414062 28.1875 83.269531 C 28.285156 83.214844 28.898438 83.425781 28.953125 83.441406 C 30.140625 83.851562 31.242188 83.953125 34.386719 84.386719 C 35.136719 84.488281 32.488281 85.652344 26.523438 92.25 C 22.554688 96.648438 25.402344 93.679688 20.507812 98.632812 C 20.066406 99.082031 19.558594 99.449219 19.035156 99.792969 C 18.644531 100.046875 18.175781 100.097656 17.761719 100.289062 Z M 13.109375 92.59375 C 12.183594 90.902344 11.578125 89.425781 11.566406 87.367188 C 11.550781 85.285156 10.808594 84.863281 11.359375 84.8125 C 11.875 84.765625 12.019531 85.039062 14.550781 84.359375 C 16.953125 83.714844 20.351562 82 22.929688 80.695312 C 24.871094 79.714844 24.773438 79.578125 24.925781 80.171875 C 25.507812 82.453125 27.808594 82.71875 27.347656 82.984375 C 26.75 83.324219 26.234375 83.777344 25.675781 84.171875 C 24.835938 84.765625 24.710938 85.171875 23.820312 85.761719 C 23.582031 85.921875 21.410156 87.628906 20.039062 88.589844 C 17.480469 90.382812 15.769531 92.460938 13.664062 92.863281 C 13.417969 92.910156 13.242188 92.839844 13.109375 92.59375 Z M 10.785156 83.921875 C 10.5625 83.292969 10.410156 82.648438 10.332031 81.988281 C 10.3125 81.824219 10.363281 81.6875 10.441406 81.554688 C 10.8125 80.9375 10.300781 80.890625 11.269531 79.65625 C 14.113281 76.023438 21.371094 75.929688 26 76.167969 C 26.027344 76.171875 26.050781 76.214844 26.105469 76.261719 C 25.722656 76.679688 24.949219 77.03125 24.800781 78.414062 C 24.746094 78.945312 24.890625 79.164062 24.429688 79.398438 C 21.402344 80.929688 23.167969 80.160156 16.953125 83.023438 C 16.066406 83.433594 14.574219 83.941406 12.878906 84.269531 C 12.351562 84.371094 11.820312 84.339844 11.289062 84.296875 C 11.046875 84.277344 10.878906 84.183594 10.785156 83.921875 Z M 10.742188 78.578125 C 11.085938 78.207031 11.605469 76.8125 13.980469 76.15625 C 15.921875 75.621094 15.402344 75.976562 17.226562 75.617188 C 18.386719 75.390625 22.992188 75.34375 23.464844 75.464844 C 22.472656 75.847656 13.429688 75.089844 10.453125 79.824219 C 10.4375 79.851562 10.398438 79.867188 10.300781 79.9375 C 10.289062 79.390625 10.390625 78.957031 10.742188 78.578125 Z M 28.519531 76.429688 C 32.15625 77.253906 29.535156 76.570312 33.847656 78.050781 C 35.78125 78.714844 36.5625 78.855469 37.46875 79.402344 C 37.839844 79.625 38.089844 79.542969 38.535156 79.769531 C 42.417969 81.738281 43.5 82.578125 43.746094 82.699219 C 44.257812 82.949219 44.730469 83.300781 45.195312 83.625 C 46.023438 84.207031 46.832031 84.816406 47.609375 85.457031 C 47.9375 85.726562 48.257812 86 48.558594 86.292969 C 48.640625 86.371094 48.941406 86.605469 48.730469 86.664062 C 48.566406 86.707031 48.292969 86.398438 48.175781 86.3125 C 47.867188 86.089844 47.566406 85.859375 47.257812 85.632812 C 45.277344 84.167969 43.199219 82.832031 40.972656 81.761719 C 40.257812 81.417969 39.519531 81.117188 38.789062 80.800781 C 38.777344 80.796875 38.757812 80.816406 38.730469 80.828125 C 39.082031 81.261719 39.269531 81.253906 41.59375 82.40625 C 42.109375 82.664062 42.625 82.9375 43.113281 83.246094 C 43.210938 83.308594 43.335938 83.371094 43.421875 83.449219 C 43.582031 83.605469 43.441406 83.628906 43.257812 83.558594 C 43.160156 83.523438 42.511719 83.238281 42.53125 83.453125 C 42.542969 83.585938 42.851562 83.636719 42.949219 83.675781 C 43.808594 84.039062 44.582031 84.554688 45.378906 85.035156 C 45.617188 85.175781 45.976562 85.316406 46.167969 85.519531 C 46.363281 85.730469 46.140625 85.691406 45.980469 85.605469 C 45.851562 85.535156 45.714844 85.472656 45.585938 85.40625 C 45.351562 85.289062 45.113281 85.175781 44.875 85.066406 C 44.511719 84.902344 44.140625 84.738281 43.761719 84.621094 C 43.640625 84.582031 43.394531 84.480469 43.265625 84.53125 C 43.210938 84.550781 43.078125 84.640625 43.199219 84.699219 C 44.6875 85.4375 45.445312 85.625 45.808594 85.945312 C 45.980469 86.097656 49.773438 88.203125 49.8125 88.609375 C 49.628906 88.714844 49.480469 88.613281 49.34375 88.515625 C 47.015625 86.84375 41.347656 84.902344 37.761719 84.265625 C 33.023438 83.417969 30.042969 83.765625 26.917969 81.980469 C 25.738281 81.304688 25.382812 80.496094 25.265625 79.476562 C 25.113281 78.214844 25.539062 77.054688 26.753906 76.675781 C 27.484375 76.445312 27.8125 76.269531 28.519531 76.429688 Z M 41.476562 96.335938 C 40.5625 97.429688 41.082031 97.144531 40.425781 97.589844 C 40.335938 97.648438 34.839844 101.328125 29.964844 104.375 C 28.3125 105.40625 25.261719 106.023438 25.390625 105.539062 C 25.417969 105.433594 25.445312 105.453125 25.832031 105.207031 C 28.433594 103.550781 37.917969 89.953125 40.699219 88.027344 C 41.226562 87.664062 41.746094 87.277344 42.289062 86.933594 C 42.632812 86.714844 42.988281 86.386719 43.425781 86.433594 C 43.582031 86.453125 43.757812 86.53125 43.910156 86.582031 C 44.414062 86.753906 44.914062 86.941406 45.40625 87.136719 C 45.578125 87.199219 47.765625 88.15625 47.613281 88.289062 C 45.769531 89.878906 43.132812 94.359375 41.476562 96.335938 Z M 46.800781 94.695312 C 46.769531 94.820312 46.636719 94.808594 46.554688 94.871094 C 46.539062 94.882812 46.496094 94.859375 46.464844 94.855469 C 46.476562 94.828125 46.484375 94.792969 46.503906 94.773438 C 46.59375 94.703125 46.691406 94.679688 46.800781 94.695312 Z M 48.570312 94.019531 C 48.1875 94.183594 47.808594 94.34375 47.425781 94.503906 C 47.3125 94.550781 47.125 94.675781 46.996094 94.671875 C 46.964844 94.667969 46.921875 94.652344 46.90625 94.625 C 46.867188 94.550781 47.140625 94.460938 47.195312 94.433594 C 47.332031 94.363281 47.46875 94.296875 47.605469 94.234375 C 47.882812 94.105469 48.167969 93.992188 48.460938 93.902344 C 48.5 93.890625 48.632812 93.863281 48.65625 93.921875 C 48.65625 93.921875 48.65625 93.929688 48.660156 93.929688 C 48.664062 93.96875 48.597656 94.011719 48.570312 94.019531 Z M 49.523438 93.6875 C 49.410156 93.75 49.296875 93.800781 49.171875 93.835938 C 49.097656 93.859375 48.859375 93.9375 48.8125 93.851562 C 48.777344 93.78125 49.167969 93.648438 49.210938 93.632812 C 49.292969 93.597656 49.394531 93.546875 49.484375 93.53125 C 49.59375 93.519531 49.613281 93.636719 49.523438 93.6875 Z M 43.105469 95.84375 C 42.675781 96.070312 42.46875 96.328125 42.324219 96.253906 C 42.179688 96.183594 42.554688 95.945312 42.996094 95.195312 C 43.546875 94.25 44.488281 93.054688 44.492188 93.050781 C 45.15625 92.152344 45.160156 91.9375 45.726562 91.285156 C 46.132812 90.820312 46.464844 90.296875 46.867188 89.828125 C 47.113281 89.535156 47.410156 89.285156 47.664062 89.003906 C 47.839844 88.808594 48.035156 88.449219 48.351562 88.523438 C 48.621094 88.582031 48.996094 88.957031 49.242188 89.113281 C 49.667969 89.386719 50.109375 89.644531 50.503906 89.960938 C 50.914062 90.289062 50.957031 90.574219 51.03125 91.070312 C 51.039062 91.460938 51.03125 91.492188 50.75 91.585938 C 47.980469 92.523438 45.390625 94.636719 43.105469 95.84375 Z M 37.296875 78.351562 C 38.390625 78.683594 39.414062 79.1875 40.472656 79.609375 C 42.277344 80.332031 45.277344 82.027344 47.671875 84.136719 C 50.929688 87.003906 51.402344 87.5 51.613281 88.121094 C 51.640625 88.203125 51.714844 88.308594 51.601562 88.371094 C 50.65625 88.925781 51.222656 85.859375 39.472656 79.71875 C 38.632812 79.28125 37.023438 78.523438 35.546875 78.058594 C 33.308594 77.359375 34.597656 77.703125 32.714844 77.070312 C 34.765625 77.214844 35.777344 77.890625 37.296875 78.351562 Z M 97.511719 77.421875 C 97.507812 77.128906 97.664062 75.789062 97.539062 74.460938 C 97.4375 73.351562 96.976562 73.089844 96.285156 72.089844 C 95.832031 71.433594 95.246094 70.933594 94.550781 70.554688 C 94.152344 70.335938 93.785156 70.058594 93.339844 69.925781 C 92.535156 69.6875 91.714844 69.515625 90.878906 69.5 C 89.851562 69.476562 88.824219 69.453125 87.800781 69.523438 C 86.632812 69.601562 85.152344 69.375 82.867188 69.890625 C 81.5 70.199219 80.113281 70.445312 78.792969 70.949219 C 78.03125 71.242188 77.226562 71.40625 76.484375 71.753906 C 74.941406 72.480469 75.289062 72.109375 73.421875 73.121094 C 71.417969 74.203125 68.273438 75.949219 66.550781 77.472656 C 66.265625 77.726562 65.894531 77.855469 65.617188 78.113281 C 64.785156 78.894531 63.820312 79.511719 63.011719 80.316406 C 62.730469 80.59375 60 82.453125 59.324219 83.675781 C 59.183594 83.929688 58.054688 85.15625 57.457031 86.328125 C 57.269531 86.699219 57.027344 87.042969 56.804688 87.398438 C 56.746094 87.488281 56.695312 87.605469 56.53125 87.582031 C 56.128906 86.625 56.03125 86.515625 56.175781 86.324219 C 56.785156 85.5 56.167969 84.695312 56.761719 84.136719 C 56.894531 84.011719 56.945312 83.464844 56.574219 83.171875 C 56.042969 82.761719 55.691406 82.980469 55.390625 83.046875 C 55.28125 83.070312 55.199219 83.011719 55.199219 82.902344 C 55.203125 82.375 55.125 81.847656 55.1875 81.316406 C 55.550781 78.320312 55.605469 77.105469 55.925781 76.132812 C 56.179688 75.363281 56.039062 75.285156 56.679688 72.390625 C 57.109375 70.460938 57.867188 68.535156 58.894531 66.847656 C 59.472656 65.898438 60.542969 64.164062 61.644531 63.761719 C 62.015625 63.625 62.554688 63.917969 62.84375 63.734375 C 63.371094 63.410156 63.050781 62.707031 62.53125 62.605469 C 61.761719 62.453125 61.183594 63.546875 60.632812 63.941406 C 59.878906 64.476562 59.3125 65.199219 58.816406 65.976562 C 58.8125 65.976562 58.8125 65.980469 58.808594 65.984375 C 56.265625 69.957031 55.429688 75.1875 54.78125 79.941406 C 54.449219 82.386719 54.835938 82.820312 54.605469 83.070312 C 53.511719 83.070312 54.117188 83.410156 53.347656 79.308594 C 53.21875 78.621094 53.019531 77.945312 52.925781 77.246094 C 52.457031 73.703125 51.972656 72.644531 51.726562 71.75 C 50.332031 66.679688 48.886719 65.871094 47.828125 64.992188 C 47.234375 64.5 46.570312 64.144531 45.851562 63.875 C 45.535156 63.757812 45.222656 63.75 44.902344 63.753906 C 44.667969 63.757812 44.574219 63.871094 44.542969 64.113281 C 44.519531 64.269531 44.542969 64.414062 44.660156 64.535156 C 44.863281 64.734375 45.410156 65.453125 45.890625 64.738281 C 46.039062 64.511719 46.042969 64.507812 46.285156 64.621094 C 47.039062 64.960938 47.667969 65.488281 48.277344 66.035156 C 49.199219 66.867188 49.78125 67.933594 50.28125 69.050781 C 51.136719 70.972656 52.015625 74.550781 52.300781 76.628906 C 52.589844 78.746094 52.863281 78.535156 53.371094 83.1875 C 53.007812 83.222656 52.8125 82.800781 52.007812 83.378906 C 51.824219 83.507812 51.746094 83.699219 51.742188 83.921875 C 51.71875 84.648438 52.253906 84.464844 52.109375 85.171875 C 51.984375 85.796875 52.371094 86.140625 52.761719 86.570312 C 52.441406 86.917969 52.359375 87.378906 52.132812 87.765625 C 51.707031 87.574219 52.136719 87.488281 50.453125 85.984375 C 45.796875 81.820312 45.574219 81.800781 41.9375 79.742188 C 40.238281 78.78125 34.785156 76.910156 34.683594 76.882812 C 31.308594 76 23.742188 74.804688 22.167969 74.855469 C 18.292969 74.984375 18.515625 74.90625 17.675781 75.019531 C 17.128906 75.09375 16.589844 75.1875 16.035156 75.222656 C 15.527344 75.253906 15.03125 75.417969 14.511719 75.398438 C 14.460938 75.394531 12.664062 75.875 11.800781 76.542969 C 10.652344 77.433594 9.75 78.507812 9.75 80.152344 C 9.75 80.554688 9.8125 82.546875 9.933594 82.933594 C 10.773438 85.605469 11.105469 86.402344 11.097656 87.492188 C 11.085938 89.3125 11.511719 90.648438 12.140625 91.941406 C 13.28125 94.285156 13.523438 93.832031 13.871094 94.671875 C 14.714844 96.699219 14.433594 96.273438 14.59375 96.644531 C 15.265625 98.207031 16.363281 100.332031 17.875 101.105469 C 19.726562 102.058594 19.941406 103.039062 21.578125 104.679688 C 23.101562 106.203125 24.628906 106.289062 24.808594 106.347656 C 25.023438 106.421875 24.832031 106.628906 24.664062 106.847656 C 23.800781 107.984375 22.816406 109.71875 22.847656 111.070312 C 22.859375 111.601562 22.863281 112.140625 22.789062 112.664062 C 22.707031 113.261719 22.851562 113.832031 22.894531 114.417969 C 23.308594 115.398438 23.34375 116.648438 23.519531 116.894531 C 23.730469 117.191406 23.851562 117.535156 24.042969 117.839844 C 24.355469 118.34375 24.570312 118.890625 24.777344 119.441406 C 25.347656 120.972656 26.414062 121.738281 26.972656 122.457031 C 27.324219 122.90625 27.847656 123.199219 28.105469 123.726562 C 28.113281 123.742188 28.128906 123.757812 28.148438 123.765625 C 28.496094 123.890625 28.710938 124.207031 29.035156 124.375 C 29.757812 124.75 31.945312 126.03125 32.453125 126.183594 C 33.125 126.386719 33.800781 126.574219 34.460938 126.8125 C 35.175781 127.074219 35.929688 127.203125 36.660156 127.402344 C 37.921875 127.742188 39.652344 126.960938 40.71875 126.125 C 40.929688 125.964844 43.019531 124.015625 44.019531 121.8125 C 45.269531 119.058594 44.449219 121.148438 46.015625 117.160156 C 46.015625 117.15625 46.910156 115.03125 47.039062 114.394531 C 47.109375 114.058594 47.742188 112.289062 47.972656 111.109375 C 48.0625 110.648438 48.199219 110.191406 48.316406 109.738281 C 48.570312 108.753906 48.832031 107.765625 49.097656 106.785156 C 49.425781 105.558594 49.761719 104.332031 50.105469 103.109375 C 50.4375 101.933594 50.777344 100.761719 51.140625 99.59375 C 51.398438 98.757812 51.660156 97.914062 51.992188 97.101562 C 52.039062 96.980469 52.09375 96.859375 52.152344 96.742188 C 52.179688 96.679688 52.3125 96.390625 52.371094 96.542969 C 52.40625 96.628906 52.335938 96.757812 52.316406 96.84375 C 51.457031 100.570312 51.96875 101.605469 52.054688 102.992188 C 52.164062 104.796875 52.472656 104.886719 52.753906 106.199219 C 52.878906 106.769531 53.289062 107.476562 53.660156 108.21875 C 54.0625 109.027344 54.832031 108.988281 55.148438 108.65625 C 55.554688 108.230469 55.933594 107.78125 56.09375 107.191406 C 56.285156 106.496094 56.507812 105.808594 56.574219 105.085938 C 56.746094 103.171875 56.910156 99.878906 56.539062 98.507812 C 56.308594 97.652344 56.1875 96.761719 55.835938 95.933594 C 55.78125 95.808594 55.816406 95.730469 55.839844 95.691406 C 56.242188 95.921875 58.246094 100.125 59.828125 104.851562 C 60.238281 106.074219 60.386719 106.414062 61.628906 109.527344 C 61.796875 109.957031 61.714844 109.851562 62.933594 112.117188 C 64.628906 115.273438 64.824219 115.828125 66.484375 117.808594 C 68.441406 120.148438 72.265625 123.578125 74.671875 124.503906 C 75.363281 124.769531 77.507812 125.199219 78.199219 125.050781 C 80.398438 124.578125 80.070312 124.609375 82.53125 122.246094 C 84.082031 120.753906 85.03125 119.054688 86.875 115.667969 C 87.53125 114.457031 87.84375 112.703125 87.941406 111.269531 C 88.046875 109.632812 87.78125 108.519531 87.28125 106.84375 C 86.652344 104.730469 86.222656 105.082031 86.332031 104.726562 C 87.507812 104.332031 88.617188 103.792969 89.972656 102.070312 C 91.773438 99.773438 91.003906 99.671875 93.382812 96.171875 C 93.804688 95.550781 94.476562 93.722656 94.609375 93.304688 C 95.234375 91.296875 94.808594 92.519531 95.382812 89.8125 C 96.050781 86.683594 97.835938 86.242188 97.253906 80.304688 C 97.210938 79.867188 97.527344 78.925781 97.511719 77.421875 " fill-opacity="1" fill-rule="nonzero"/></g><path fill="#b07aa8" d="M 43.203125 87.242188 C 43.347656 87.089844 43.214844 87.050781 43.097656 87.054688 C 43.0625 87.058594 43.03125 87.0625 43.003906 87.070312 C 42.800781 87.128906 42.597656 87.375 42.398438 87.46875 C 41.898438 87.714844 41.214844 88.375 41.003906 88.707031 C 40.863281 88.925781 40.832031 89.15625 40.929688 89.164062 C 41.117188 89.175781 41.171875 89.011719 41.261719 88.894531 C 42.058594 87.839844 42.839844 87.644531 43.203125 87.242188 " fill-opacity="1" fill-rule="nonzero"/><path fill="#b07aa8" d="M 34.335938 93 C 34.167969 93.167969 33.800781 93.644531 33.753906 93.898438 C 33.730469 94.03125 33.90625 94.164062 34.003906 94 C 34.476562 93.195312 35.148438 92.695312 35.417969 92.296875 C 36.355469 90.929688 38.558594 88.503906 40.285156 87.378906 C 40.410156 87.296875 40.519531 87.1875 40.632812 87.085938 C 40.703125 87.019531 40.664062 86.605469 39.984375 87.097656 C 36.839844 89.378906 35.246094 92.089844 34.335938 93 " fill-opacity="1" fill-rule="nonzero"/><path fill="#b07aa8" d="M 36.480469 89.152344 C 36.4375 89.21875 36.394531 89.359375 36.464844 89.40625 C 36.53125 89.453125 36.566406 89.414062 37.210938 88.847656 C 38.816406 87.441406 40.183594 86.742188 40.394531 86.339844 C 40.410156 86.242188 40.285156 86.113281 40.214844 86.132812 C 40.089844 86.171875 40.128906 86.121094 38.898438 87.015625 C 37.378906 88.109375 37.101562 88.265625 36.480469 89.152344 " fill-opacity="1" fill-rule="nonzero"/><path fill="#b07aa8" d="M 27.488281 100.109375 C 27.53125 100.058594 27.601562 100.007812 27.5625 99.917969 C 27.359375 99.828125 26.210938 101.183594 25.550781 101.871094 C 24.089844 103.386719 23.710938 103.488281 23.179688 103.902344 C 22.996094 104.042969 23.199219 104.285156 23.363281 104.164062 C 25.050781 102.9375 25.28125 102.710938 27.488281 100.109375 " fill-opacity="1" fill-rule="nonzero"/><path fill="#b07aa8" d="M 29.371094 99.746094 C 29.636719 99.589844 29.84375 99.371094 30.027344 99.128906 C 32.484375 95.886719 32.515625 95.929688 32.574219 95.597656 C 32.328125 95.132812 30.382812 98.421875 29.214844 99.476562 C 29.070312 99.605469 29.234375 99.828125 29.371094 99.746094 " fill-opacity="1" fill-rule="nonzero"/><path fill="#b07aa8" d="M 21.945312 99.007812 C 23.296875 97.707031 23.6875 97.457031 23.371094 97.449219 C 23.054688 97.441406 21.824219 98.710938 21.613281 98.949219 C 21.21875 99.386719 20.824219 99.816406 20.304688 100.121094 C 19.980469 100.3125 19.695312 100.570312 19.328125 100.699219 C 19.257812 100.722656 19.203125 100.796875 19.242188 100.878906 C 19.261719 100.925781 19.320312 100.949219 19.34375 100.96875 C 19.683594 101.027344 19.949219 100.640625 20.40625 100.417969 C 21.125 100.070312 21.636719 99.308594 21.945312 99.007812 " fill-opacity="1" fill-rule="nonzero"/><path fill="#b07aa8" d="M 32.238281 88.304688 C 35.523438 85.582031 33.21875 87.578125 35.347656 85.566406 C 35.492188 85.429688 35.285156 85.25 35.144531 85.335938 C 34.996094 85.425781 32.339844 87.78125 31.683594 88.609375 C 31.628906 88.679688 31.5625 88.757812 31.636719 88.898438 C 31.652344 88.882812 32.21875 88.316406 32.238281 88.304688 " fill-opacity="1" fill-rule="nonzero"/><path fill="#b07aa8" d="M 27.589844 101.421875 C 27.578125 101.40625 27.519531 101.40625 27.5 101.421875 C 26.40625 102.273438 25.878906 103.40625 24.691406 104.054688 C 24.539062 104.132812 23.851562 104.53125 23.710938 104.71875 C 23.6875 104.75 23.707031 104.824219 23.726562 104.875 C 23.742188 104.910156 23.863281 104.953125 23.925781 104.917969 C 24.703125 104.480469 25.484375 104.050781 26.066406 103.34375 C 27.257812 101.898438 27.714844 101.582031 27.589844 101.421875 " fill-opacity="1" fill-rule="nonzero"/><path fill="#b07aa8" d="M 25.71875 100.8125 C 25.828125 100.679688 25.675781 100.605469 25.574219 100.699219 C 24.484375 101.675781 25.226562 101.164062 23.289062 102.828125 C 22.394531 103.597656 22.164062 103.464844 22.222656 103.753906 C 22.3125 104.1875 24.234375 102.628906 25.71875 100.8125 " fill-opacity="1" fill-rule="nonzero"/><path fill="#b07aa8" d="M 24.617188 100.488281 C 24.378906 100.21875 23.488281 101.972656 21.964844 102.75 C 21.816406 102.828125 21.648438 102.921875 21.714844 103.070312 C 21.746094 103.148438 21.832031 103.167969 21.90625 103.136719 C 22.203125 103.007812 22.492188 102.859375 22.734375 102.652344 C 23.648438 101.875 24.488281 100.789062 24.617188 100.488281 " fill-opacity="1" fill-rule="nonzero"/><path fill="#b07aa8" d="M 34.449219 87.183594 C 34.726562 87.1875 35.277344 86.527344 36.304688 85.820312 C 36.464844 85.707031 36.351562 85.539062 36.164062 85.535156 C 35.832031 85.519531 34.765625 86.605469 34.464844 86.902344 C 34.292969 87.070312 34.425781 87.15625 34.449219 87.183594 " fill-opacity="1" fill-rule="nonzero"/><path fill="#b07aa8" d="M 23.5 100.351562 C 23.539062 100.304688 23.425781 100.253906 23.402344 100.265625 C 22.875 100.5 22.261719 101.816406 21.363281 102.1875 C 21.332031 102.199219 21.316406 102.246094 21.296875 102.277344 C 21.261719 102.328125 21.324219 102.445312 21.453125 102.460938 C 22.132812 102.320312 22.929688 101.074219 23.5 100.351562 " fill-opacity="1" fill-rule="nonzero"/><path fill="#b07aa8" d="M 37.445312 86.855469 C 37.40625 86.894531 37.285156 87.0625 37.347656 87.152344 C 37.410156 87.234375 37.601562 87.15625 37.652344 87.121094 C 39.433594 85.824219 39.042969 86.210938 39.164062 85.980469 C 39.136719 85.894531 39.097656 85.824219 39.015625 85.8125 C 38.628906 85.777344 37.722656 86.570312 37.445312 86.855469 " fill-opacity="1" fill-rule="nonzero"/><path fill="#b07aa8" d="M 36.03125 87.113281 C 36.210938 86.992188 36.410156 86.886719 36.578125 86.742188 C 36.898438 86.476562 37.1875 86.179688 37.566406 85.996094 C 37.777344 85.898438 37.65625 85.609375 37.402344 85.683594 C 36.925781 85.8125 35.957031 86.71875 35.949219 87.019531 C 35.949219 87.042969 35.992188 87.070312 36.03125 87.113281 " fill-opacity="1" fill-rule="nonzero"/><path fill="#b07aa8" d="M 21.722656 100.144531 C 21.738281 100.117188 21.734375 100.074219 21.738281 100.039062 C 21.71875 99.996094 21.683594 99.976562 21.644531 100 C 21.550781 100.058594 21.449219 100.113281 21.371094 100.191406 C 20.671875 100.886719 20.21875 101.007812 20.03125 101.21875 C 19.929688 101.332031 20.042969 101.519531 20.183594 101.449219 C 20.800781 101.132812 21.308594 100.695312 21.722656 100.144531 " fill-opacity="1" fill-rule="nonzero"/><path fill="#b07aa8" d="M 22.101562 100.855469 C 22.117188 100.828125 22.105469 100.78125 22.105469 100.746094 C 22.078125 100.726562 22.03125 100.6875 22.015625 100.699219 C 21.933594 100.746094 21.84375 100.789062 21.789062 100.859375 C 21.21875 101.582031 20.800781 101.582031 20.710938 101.660156 C 20.578125 101.773438 20.71875 101.957031 20.824219 101.925781 C 21.40625 101.757812 21.777344 101.332031 22.101562 100.855469 " fill-opacity="1" fill-rule="nonzero"/><path fill="#b07aa8" d="M 43.699219 119.074219 C 43.109375 120.394531 42.917969 120.308594 42.871094 120.6875 C 42.867188 120.714844 42.925781 120.757812 42.949219 120.738281 C 44.585938 119.347656 47.492188 109.140625 47.625 108.414062 C 47.289062 107.101562 46.800781 112.132812 43.699219 119.074219 " fill-opacity="1" fill-rule="nonzero"/><g clip-path="url(#d736685589)"><path fill="#b07aa8" d="M 41.679688 122.21875 C 41.648438 122.21875 41.59375 122.214844 41.585938 122.234375 C 40.453125 124.25 41.089844 123.488281 39.304688 125.382812 C 38.894531 125.824219 38.835938 125.753906 38.667969 125.9375 C 38.597656 126.015625 38.742188 126.136719 38.785156 126.128906 C 39.167969 126.050781 39.382812 125.714844 40.117188 125.007812 C 41.1875 123.980469 41.878906 122.21875 41.679688 122.21875 " fill-opacity="1" fill-rule="nonzero"/></g><g clip-path="url(#d84132b91b)"><path fill="#b07aa8" d="M 39.117188 124.296875 C 38.839844 124.359375 38.304688 125.53125 37.425781 126.253906 C 37.375 126.296875 37.367188 126.425781 37.382812 126.457031 C 37.421875 126.523438 37.496094 126.566406 37.578125 126.542969 C 37.960938 126.429688 39.363281 124.617188 39.117188 124.296875 " fill-opacity="1" fill-rule="nonzero"/></g><path fill="#b07aa8" d="M 49.488281 97.457031 C 49.613281 97.21875 49.371094 97.132812 49.269531 97.332031 C 48.859375 98.140625 48.464844 99.191406 48.222656 100.070312 C 48.214844 100.09375 48.253906 100.125 48.273438 100.152344 C 48.578125 100.011719 48.777344 98.816406 49.488281 97.457031 " fill-opacity="1" fill-rule="nonzero"/><g clip-path="url(#ad730db9e9)"><path fill="#b07aa8" d="M 36.625 124.714844 C 35.722656 125.84375 35.699219 125.902344 35.605469 126.136719 C 35.589844 126.175781 35.671875 126.34375 35.777344 126.289062 C 36.136719 126.105469 36.804688 125.0625 37.050781 124.410156 C 36.839844 124.472656 36.722656 124.589844 36.625 124.714844 " fill-opacity="1" fill-rule="nonzero"/></g><g clip-path="url(#0d228f1e66)"><path fill="#b07aa8" d="M 37.539062 125.207031 C 37.523438 125.191406 37.460938 125.1875 37.445312 125.203125 C 36.28125 126.292969 36.515625 126.316406 36.613281 126.453125 C 36.664062 126.449219 36.710938 126.460938 36.734375 126.441406 C 37.019531 126.171875 37.707031 125.386719 37.539062 125.207031 " fill-opacity="1" fill-rule="nonzero"/></g><path fill="#b07aa8" d="M 47.695312 99.53125 C 47.9375 99.097656 48.109375 99.011719 48.03125 98.746094 C 48.027344 98.738281 48 98.722656 47.992188 98.722656 C 47.71875 98.824219 47.710938 99.09375 47.609375 99.304688 C 47.589844 99.351562 47.609375 99.410156 47.609375 99.464844 L 47.695312 99.53125 " fill-opacity="1" fill-rule="nonzero"/><path fill="#b07aa8" d="M 40.769531 109.339844 C 40.765625 109.359375 40.804688 109.390625 40.824219 109.417969 C 41.371094 109.136719 42.796875 105.179688 42.800781 105.175781 C 43.726562 102.917969 44.417969 102.289062 44.277344 102.027344 C 44.078125 101.65625 42.523438 105.015625 42.164062 106.113281 C 41.855469 107.066406 40.90625 108.851562 40.769531 109.339844 " fill-opacity="1" fill-rule="nonzero"/><g clip-path="url(#dadb04f0e3)"><path fill="#b07aa8" d="M 35.695312 122.046875 C 35.183594 122.664062 34.964844 123.859375 33.621094 125.167969 C 33.351562 125.425781 33.65625 125.628906 33.78125 125.542969 C 34.082031 125.339844 34.871094 124.347656 34.992188 124.0625 C 35.164062 123.671875 35.792969 122.289062 35.695312 122.046875 " fill-opacity="1" fill-rule="nonzero"/></g><path fill="#b07aa8" d="M 40.664062 107.617188 C 40.773438 107.433594 41.339844 106.359375 41.539062 105.851562 C 41.804688 105.15625 42.179688 104.523438 42.496094 103.859375 C 42.554688 103.734375 42.722656 103.632812 42.625 103.46875 C 42.523438 103.300781 42.226562 103.753906 42.144531 103.925781 C 40.304688 107.800781 40.417969 107.476562 40.664062 107.617188 " fill-opacity="1" fill-rule="nonzero"/><path fill="#b07aa8" d="M 34.011719 123.003906 C 33.835938 123.058594 33.785156 123.191406 33.707031 123.292969 C 33.65625 123.359375 32.730469 124.5625 32.675781 124.65625 C 32.570312 124.832031 32.820312 125.027344 32.945312 124.839844 C 34.09375 123.089844 34.035156 123.1875 34.011719 123.003906 " fill-opacity="1" fill-rule="nonzero"/><path fill="#b07aa8" d="M 41.375 104.359375 C 41.15625 104.15625 41.175781 104.230469 40.398438 105.859375 C 40.367188 105.925781 40.351562 106 40.339844 106.074219 C 40.335938 106.101562 40.371094 106.132812 40.394531 106.15625 C 40.527344 106.300781 41.324219 104.609375 41.375 104.359375 " fill-opacity="1" fill-rule="nonzero"/><path fill="#b07aa8" d="M 32.757812 123.042969 C 32.726562 123.039062 32.675781 123.035156 32.664062 123.054688 C 31.875 124.140625 31.914062 123.828125 31.871094 124.070312 C 31.859375 124.128906 31.960938 124.234375 32.011719 124.222656 C 32.402344 124.09375 32.898438 123.050781 32.757812 123.042969 " fill-opacity="1" fill-rule="nonzero"/><path fill="#b07aa8" d="M 30.332031 122.113281 C 30.277344 122.105469 30.132812 122.261719 30.089844 122.292969 C 29.976562 122.386719 29.863281 122.484375 29.765625 122.59375 C 29.679688 122.683594 29.511719 122.851562 29.523438 122.996094 C 29.53125 123.121094 29.671875 123.234375 29.792969 123.136719 C 29.988281 122.980469 30.078125 122.753906 30.191406 122.542969 C 30.226562 122.476562 30.425781 122.269531 30.410156 122.167969 C 30.402344 122.136719 30.378906 122.117188 30.332031 122.113281 " fill-opacity="1" fill-rule="nonzero"/><path fill="#b07aa8" d="M 30.820312 123.804688 C 30.914062 123.71875 31.03125 123.640625 31.089844 123.53125 C 31.226562 123.269531 31.402344 123.023438 31.414062 122.671875 C 30.664062 123.503906 30.640625 123.503906 30.613281 123.652344 C 30.597656 123.738281 30.722656 123.898438 30.820312 123.804688 " fill-opacity="1" fill-rule="nonzero"/><path fill="#b07aa8" d="M 40.148438 104.554688 C 40.125 104.535156 40.066406 104.527344 40.050781 104.546875 C 39.789062 104.777344 39.632812 105.066406 39.597656 105.410156 L 39.703125 105.464844 C 40.203125 104.621094 40.234375 104.617188 40.148438 104.554688 " fill-opacity="1" fill-rule="nonzero"/><path fill="#b07aa8" d="M 28.496094 89.699219 C 28.910156 89.40625 27.753906 90.273438 31.285156 86.855469 C 32.207031 85.960938 32.222656 86 33.25 85.210938 C 33.515625 85.003906 33.289062 84.796875 33.058594 84.914062 C 31.867188 85.535156 28.773438 88.808594 28.765625 88.8125 C 28.460938 89.183594 28.132812 89.53125 27.777344 89.847656 C 27.554688 90.046875 27.382812 90.21875 27.234375 90.425781 C 27.125 90.578125 27.03125 90.75 26.945312 90.957031 C 27.023438 90.964844 27.089844 90.90625 27.144531 90.851562 C 27.574219 90.410156 27.980469 90.03125 28.496094 89.699219 " fill-opacity="1" fill-rule="nonzero"/><path fill="#b07aa8" d="M 23.433594 94.667969 C 23.488281 94.597656 23.554688 94.523438 23.527344 94.40625 C 22.914062 94.46875 20.972656 97.703125 18.03125 99.425781 C 17.664062 99.640625 17.894531 99.878906 18.035156 99.816406 C 19.785156 99.078125 22.320312 96.074219 23.433594 94.667969 " fill-opacity="1" fill-rule="nonzero"/><path fill="#b07aa8" d="M 19.902344 93.25 C 19.933594 93.179688 20.15625 92.871094 20.238281 92.917969 C 20.425781 93.023438 20.65625 93.074219 20.792969 93.257812 C 20.882812 93.378906 20.835938 93.566406 20.6875 93.640625 C 20.554688 93.699219 20.40625 93.722656 20.269531 93.765625 C 20.046875 93.78125 19.808594 93.457031 19.902344 93.25 Z M 19.464844 93.96875 C 19.730469 93.992188 19.910156 94.277344 20.25 94.195312 C 20.660156 94.25 20.957031 94 21.195312 93.652344 C 21.425781 93.320312 21.308594 92.757812 21.019531 92.664062 C 20.394531 92.46875 19.96875 92.25 19.421875 93.113281 C 19.257812 93.371094 19.351562 93.625 19.394531 93.882812 C 19.402344 93.914062 19.4375 93.964844 19.464844 93.96875 " fill-opacity="1" fill-rule="nonzero"/><path fill="#b07aa8" d="M 18.207031 91.910156 C 18.402344 91.742188 18.546875 91.511719 18.707031 91.316406 C 18.589844 90.992188 17.949219 91.753906 17.105469 92.382812 C 14.945312 94 14.453125 93.804688 14.617188 94.183594 C 14.773438 94.535156 15.226562 94.03125 15.917969 93.667969 C 16.789062 93.214844 17.480469 92.539062 18.207031 91.910156 " fill-opacity="1" fill-rule="nonzero"/><path fill="#b07aa8" d="M 20.648438 96.585938 C 20.71875 96.503906 20.800781 96.417969 20.804688 96.296875 C 20.789062 96.234375 20.765625 96.152344 20.703125 96.207031 C 20.570312 96.316406 20.425781 96.410156 20.320312 96.539062 C 19.609375 97.425781 18.855469 97.929688 17.378906 99.109375 C 17.148438 99.292969 17.335938 99.5625 17.566406 99.414062 C 18.109375 99.054688 18.289062 98.851562 18.964844 98.347656 C 19.625 97.851562 20.125 97.210938 20.648438 96.585938 " fill-opacity="1" fill-rule="nonzero"/><path fill="#b07aa8" d="M 19.558594 96.160156 C 19.28125 96.21875 18.625 97.234375 17.160156 98.398438 C 17.042969 98.488281 16.878906 98.550781 16.933594 98.746094 C 17.085938 99.28125 20.171875 96.03125 19.558594 96.160156 " fill-opacity="1" fill-rule="nonzero"/><path fill="#b07aa8" d="M 29.660156 86.855469 C 29.5625 86.941406 29.484375 87.050781 29.40625 87.15625 C 29.390625 87.179688 29.390625 87.382812 29.664062 87.148438 C 31.230469 85.828125 31.039062 86.078125 31.285156 85.8125 C 32.042969 84.984375 31.894531 85.335938 32.082031 85.019531 C 31.976562 84.925781 31.929688 84.832031 31.738281 84.929688 C 31.101562 85.261719 31.277344 85.367188 29.660156 86.855469 " fill-opacity="1" fill-rule="nonzero"/><path fill="#b07aa8" d="M 29.175781 86.21875 C 29.246094 86.300781 29.359375 86.128906 29.746094 85.832031 C 30.976562 84.890625 31.050781 84.90625 31.019531 84.773438 C 31.007812 84.703125 30.960938 84.664062 30.902344 84.667969 C 30.511719 84.703125 28.992188 86.015625 29.175781 86.21875 " fill-opacity="1" fill-rule="nonzero"/><path fill="#b07aa8" d="M 16.894531 93.558594 C 16.6875 93.558594 16.855469 93.449219 15.152344 94.667969 C 15.042969 94.746094 15.074219 94.980469 15.25 94.984375 C 15.976562 94.566406 16.273438 94.195312 16.878906 93.734375 C 16.929688 93.699219 16.984375 93.5625 16.894531 93.558594 " fill-opacity="1" fill-rule="nonzero"/><path fill="#b07aa8" d="M 16.789062 94.570312 C 16.679688 94.453125 16.808594 94.359375 15.539062 95.265625 C 15.402344 95.367188 15.589844 95.667969 15.765625 95.519531 C 16.929688 94.546875 16.753906 94.691406 16.789062 94.570312 " fill-opacity="1" fill-rule="nonzero"/><path fill="#b07aa8" d="M 17.332031 96.433594 C 17.273438 96.3125 17.207031 96.382812 16.105469 96.996094 C 15.929688 97.09375 15.992188 97.359375 16.113281 97.339844 C 16.335938 97.3125 17.425781 96.621094 17.332031 96.433594 " fill-opacity="1" fill-rule="nonzero"/><path fill="#b07aa8" d="M 17.632812 97.316406 C 17.625 97.300781 17.625 97.273438 17.617188 97.269531 C 17.585938 97.253906 17.539062 97.230469 17.519531 97.242188 C 17.472656 97.273438 16.574219 97.867188 16.546875 97.921875 C 16.460938 98.085938 16.621094 98.210938 16.726562 98.140625 C 17 97.957031 17.5 97.621094 17.632812 97.316406 " fill-opacity="1" fill-rule="nonzero"/><path fill="#b07aa8" d="M 16.714844 95.636719 C 16.703125 95.628906 16.675781 95.613281 16.667969 95.617188 C 16.347656 95.777344 16.03125 95.933594 15.71875 96.101562 C 15.65625 96.136719 15.667969 96.410156 15.859375 96.339844 C 16.429688 96.125 16.824219 95.714844 16.714844 95.636719 " fill-opacity="1" fill-rule="nonzero"/><path fill="#b07aa8" d="M 28.527344 84.8125 C 28.699219 84.695312 28.863281 84.566406 29.027344 84.4375 C 29.1875 84.308594 29.03125 84.152344 28.949219 84.167969 C 28.695312 84.226562 28.53125 84.414062 28.355469 84.585938 C 28.027344 84.910156 28.230469 85.019531 28.527344 84.8125 " fill-opacity="1" fill-rule="nonzero"/><path fill="#b07aa8" d="M 29.007812 85.320312 C 29.863281 84.675781 30.003906 84.625 29.859375 84.488281 C 29.792969 84.425781 29.71875 84.4375 29.65625 84.484375 C 28.675781 85.191406 28.949219 85.363281 29.007812 85.320312 " fill-opacity="1" fill-rule="nonzero"/><path fill="#b07aa8" d="M 27.554688 84.5625 C 27.730469 84.574219 28.128906 84.25 28.292969 84.074219 C 28.390625 83.964844 28.203125 83.84375 28.128906 83.878906 C 27.867188 84.003906 27.296875 84.429688 27.554688 84.5625 " fill-opacity="1" fill-rule="nonzero"/><path fill="#b07aa8" d="M 29.957031 101.992188 C 30.027344 101.933594 30.089844 101.855469 30.09375 101.75 C 30.0625 101.730469 30.035156 101.691406 30.007812 101.695312 C 29.875 101.710938 29.765625 101.78125 29.660156 101.867188 C 28.152344 103.105469 28.105469 103.8125 26.878906 104.769531 C 26.554688 105.023438 26.328125 105.132812 26.441406 105.285156 C 26.554688 105.433594 26.738281 105.351562 26.890625 105.234375 C 28.167969 104.230469 27.75 104.421875 28.964844 103.082031 C 29.292969 102.714844 29.582031 102.3125 29.957031 101.992188 " fill-opacity="1" fill-rule="nonzero"/><path fill="#b07aa8" d="M 31.464844 101.152344 C 31.363281 101.082031 30.78125 101.550781 30.285156 102.21875 C 29.875 102.761719 29.476562 103.308594 28.957031 103.761719 C 28.671875 104.007812 28.453125 104.324219 28.144531 104.550781 C 27.972656 104.675781 28.078125 105.136719 28.769531 104.441406 C 29.132812 104.074219 29.792969 103.46875 29.933594 103.285156 C 31.683594 101.011719 31.476562 101.265625 31.464844 101.152344 " fill-opacity="1" fill-rule="nonzero"/><path fill="#b07aa8" d="M 31.777344 101.863281 C 31.484375 101.976562 30.964844 102.613281 30.039062 103.683594 C 29.859375 103.894531 30.03125 104.171875 30.300781 103.859375 C 31.417969 102.546875 31.570312 102.367188 31.785156 102.082031 C 31.90625 101.917969 31.789062 101.855469 31.777344 101.863281 " fill-opacity="1" fill-rule="nonzero"/><path fill="#b07aa8" d="M 45.921875 88.332031 C 45.664062 88.335938 44.839844 89.136719 44.417969 90.105469 C 44.378906 90.199219 44.441406 90.289062 44.457031 90.316406 C 44.800781 90.246094 44.902344 89.5625 45.921875 88.628906 C 46.089844 88.476562 46.027344 88.328125 45.921875 88.332031 " fill-opacity="1" fill-rule="nonzero"/><path fill="#b07aa8" d="M 43.785156 87.429688 C 43.632812 87.140625 42.359375 88.058594 42.289062 88.550781 C 42.273438 88.664062 42.46875 88.6875 42.542969 88.601562 C 43.464844 87.578125 43.882812 87.609375 43.785156 87.429688 " fill-opacity="1" fill-rule="nonzero"/><path fill="#b07aa8" d="M 44.375 87.785156 C 44.355469 87.757812 44.335938 87.710938 44.308594 87.703125 C 44.261719 87.691406 44.191406 87.679688 44.152344 87.707031 C 43.285156 88.316406 43.460938 88.75 43.625 88.605469 C 43.882812 88.382812 44.144531 88.164062 44.355469 87.890625 C 44.375 87.867188 44.371094 87.820312 44.375 87.785156 " fill-opacity="1" fill-rule="nonzero"/><path fill="#b07aa8" d="M 44.972656 88.230469 C 45 88.195312 44.90625 88.03125 44.796875 88.101562 C 44.546875 88.273438 44.367188 88.503906 44.269531 88.792969 C 44.261719 88.8125 44.300781 88.847656 44.320312 88.875 C 44.480469 88.886719 44.878906 88.359375 44.972656 88.230469 " fill-opacity="1" fill-rule="nonzero"/><path fill="#b07aa8" d="M 32.855469 101.761719 C 32.746094 101.707031 32.660156 101.792969 32.152344 102.246094 C 32.128906 102.265625 32.121094 102.3125 32.113281 102.347656 C 32.097656 102.417969 32.152344 102.441406 32.21875 102.476562 C 32.257812 102.460938 32.320312 102.457031 32.355469 102.421875 C 32.820312 101.96875 32.980469 101.824219 32.855469 101.761719 " fill-opacity="1" fill-rule="nonzero"/><path fill="#b07aa8" d="M 45.859375 89.199219 C 45.808594 89.308594 45.96875 89.320312 45.992188 89.300781 C 46.59375 88.863281 46.488281 88.917969 46.519531 88.820312 C 46.449219 88.636719 46.0625 88.769531 45.859375 89.199219 " fill-opacity="1" fill-rule="nonzero"/><path fill="#b07aa8" d="M 28.179688 77.253906 C 28.445312 77.359375 28.757812 77.253906 29.808594 77.714844 C 30.597656 78.0625 31.289062 77.910156 33.097656 78.597656 C 34.164062 79 35.25 79.335938 36.285156 79.816406 C 36.332031 79.835938 36.394531 79.832031 36.527344 79.847656 C 36.148438 79.414062 36.085938 79.347656 35.738281 79.214844 C 30.386719 77.152344 30.964844 77.921875 29.726562 77.34375 C 29.335938 77.164062 28.578125 76.910156 28.191406 77.121094 C 28.164062 77.132812 28.125 77.234375 28.179688 77.253906 " fill-opacity="1" fill-rule="nonzero"/><path fill="#b07aa8" d="M 35.0625 82.996094 C 35.34375 83.113281 35.613281 83.171875 35.898438 83.207031 C 40 83.71875 41.425781 84.679688 41.433594 84.265625 C 41.4375 84.09375 41.171875 84.011719 41.003906 83.964844 C 38.488281 83.246094 37.960938 83.03125 35.34375 82.847656 C 35.25 82.84375 35.152344 82.839844 35.0625 82.996094 " fill-opacity="1" fill-rule="nonzero"/><path fill="#b07aa8" d="M 39.054688 82.480469 C 38.714844 82.257812 38.320312 82.199219 37.945312 82.070312 C 37.800781 82.023438 37.65625 81.992188 37.4375 82.070312 C 37.871094 82.269531 38.246094 82.4375 38.621094 82.605469 C 39.089844 82.816406 39.183594 82.5625 39.054688 82.480469 " fill-opacity="1" fill-rule="nonzero"/><path fill="#b07aa8" d="M 31.046875 82.378906 C 30.96875 82.390625 30.914062 82.398438 30.859375 82.40625 C 30.742188 82.425781 30.839844 82.558594 30.871094 82.566406 C 31.171875 82.632812 31.746094 82.785156 31.679688 82.582031 C 31.636719 82.445312 31.523438 82.453125 31.046875 82.378906 " fill-opacity="1" fill-rule="nonzero"/><path fill="#b07aa8" d="M 16.207031 86.410156 C 16.132812 86.199219 16.480469 86.230469 16.621094 86.035156 C 16.757812 85.84375 16.898438 85.851562 17.09375 85.925781 C 17.484375 86.070312 17.210938 86.171875 17.289062 86.34375 C 17.351562 86.480469 17.441406 86.609375 17.324219 86.757812 C 17.191406 86.925781 16.921875 87.0625 16.742188 87.054688 C 16.523438 87.050781 16.359375 86.917969 16.179688 86.820312 C 16.035156 86.742188 16.269531 86.585938 16.207031 86.410156 Z M 16.640625 87.484375 C 17.367188 87.324219 17.699219 87.171875 17.90625 86.445312 C 17.960938 86.246094 17.929688 86.027344 17.851562 85.835938 C 17.78125 85.660156 17.605469 85.617188 17.4375 85.566406 C 17.347656 85.542969 17.269531 85.484375 17.183594 85.449219 C 16.8125 85.292969 16.246094 85.421875 16.007812 85.753906 C 15.683594 86.203125 15.515625 86.101562 15.515625 86.46875 C 15.554688 86.707031 15.519531 86.964844 15.726562 87.15625 C 15.984375 87.398438 16.265625 87.570312 16.640625 87.484375 " fill-opacity="1" fill-rule="nonzero"/><path fill="#b07aa8" d="M 13.828125 92.046875 C 14.746094 91.644531 16.34375 90.902344 17.113281 90.257812 C 17.703125 89.761719 18.324219 89.300781 18.800781 88.671875 C 17.285156 89.539062 16.042969 90.84375 13.703125 91.730469 C 13.367188 91.859375 13.457031 92.210938 13.828125 92.046875 " fill-opacity="1" fill-rule="nonzero"/><path fill="#b07aa8" d="M 14.292969 88.136719 C 13.007812 88.671875 13.128906 88.476562 12.324219 88.652344 C 12.101562 88.703125 12.085938 89.027344 12.339844 89.019531 C 13.773438 88.976562 14.117188 88.601562 14.957031 88.007812 C 14.757812 87.988281 14.792969 87.925781 14.292969 88.136719 " fill-opacity="1" fill-rule="nonzero"/><path fill="#b07aa8" d="M 24.261719 84.480469 C 24.3125 84.554688 24.546875 84.546875 24.898438 84.238281 C 26.367188 82.925781 26.230469 83.371094 26.5 83.007812 C 26.457031 82.960938 26.429688 82.910156 26.382812 82.882812 C 26.027344 82.679688 24.144531 84.300781 24.261719 84.480469 " fill-opacity="1" fill-rule="nonzero"/><path fill="#b07aa8" d="M 14.0625 85.226562 C 14.082031 85.195312 14.078125 85.09375 14.019531 85.09375 C 13.90625 85.09375 13.789062 85.078125 13.683594 85.101562 C 12.414062 85.394531 11.703125 85.179688 11.710938 85.535156 C 11.71875 85.800781 12.058594 85.707031 12.402344 85.691406 C 12.816406 85.671875 13.855469 85.554688 14.0625 85.226562 " fill-opacity="1" fill-rule="nonzero"/><path fill="#b07aa8" d="M 15.347656 90.050781 C 15.273438 89.988281 15.203125 90.023438 15.132812 90.046875 C 14.667969 90.226562 13.402344 90.828125 13.042969 91.183594 C 12.992188 91.234375 13.011719 91.445312 13.183594 91.355469 C 15.335938 90.179688 15.289062 90.226562 15.347656 90.050781 " fill-opacity="1" fill-rule="nonzero"/><path fill="#b07aa8" d="M 14.222656 89.042969 C 14.148438 88.996094 14.074219 89.003906 14.003906 89.03125 C 12.75 89.480469 12.710938 89.492188 12.523438 89.621094 C 12.363281 89.730469 12.449219 90.019531 12.667969 89.914062 C 14.144531 89.210938 14.207031 89.207031 14.222656 89.042969 " fill-opacity="1" fill-rule="nonzero"/><path fill="#b07aa8" d="M 12.695312 87.238281 C 13.09375 87.269531 13.90625 86.660156 12.210938 86.867188 C 12.132812 86.875 12.046875 87.027344 12.078125 87.089844 C 12.175781 87.300781 12.277344 87.203125 12.695312 87.238281 " fill-opacity="1" fill-rule="nonzero"/><path fill="#b07aa8" d="M 14.488281 89.703125 C 14.46875 89.679688 14.414062 89.660156 14.390625 89.671875 C 12.808594 90.339844 12.910156 90.292969 12.878906 90.390625 C 12.835938 90.515625 12.90625 90.519531 12.972656 90.5625 C 13.15625 90.488281 14.605469 89.863281 14.488281 89.703125 " fill-opacity="1" fill-rule="nonzero"/><path fill="#b07aa8" d="M 24.585938 83.289062 C 24.621094 83.425781 25.324219 83.023438 25.695312 82.730469 C 25.835938 82.621094 25.679688 82.4375 25.5625 82.492188 C 25.199219 82.648438 24.878906 82.871094 24.59375 83.140625 C 24.566406 83.164062 24.574219 83.242188 24.585938 83.289062 " fill-opacity="1" fill-rule="nonzero"/><path fill="#b07aa8" d="M 13.210938 86.222656 C 13.234375 86.207031 13.242188 86.160156 13.25 86.128906 C 13.269531 86.046875 13.191406 86.054688 13.015625 86.03125 C 12.082031 86.148438 12.011719 86.121094 12.019531 86.320312 C 12.027344 86.6875 12.886719 86.4375 13.210938 86.222656 " fill-opacity="1" fill-rule="nonzero"/><path fill="#b07aa8" d="M 13.429688 87.796875 C 13.4375 87.792969 13.433594 87.714844 13.417969 87.707031 C 13.289062 87.636719 13.351562 87.640625 12.300781 87.765625 C 12.253906 87.769531 12.023438 87.9375 12.292969 88.085938 C 12.324219 88.101562 12.367188 88.09375 12.34375 88.09375 C 12.777344 88.113281 13.101562 87.949219 13.429688 87.796875 " fill-opacity="1" fill-rule="nonzero"/><path fill="#b07aa8" d="M 24.417969 82.167969 C 24.382812 82.21875 24.445312 82.246094 24.5 82.289062 C 24.714844 82.222656 24.929688 82.15625 25.089844 81.984375 C 25.117188 81.953125 25.128906 81.867188 25.105469 81.835938 C 24.976562 81.664062 24.5625 81.949219 24.417969 82.167969 " fill-opacity="1" fill-rule="nonzero"/><path fill="#b07aa8" d="M 24.183594 81.316406 C 24.34375 81.273438 24.503906 81.242188 24.625 81.121094 C 24.644531 81.101562 24.640625 81.058594 24.644531 81.027344 C 24.570312 80.789062 24.230469 80.972656 24.132812 81.242188 C 24.128906 81.257812 24.171875 81.316406 24.183594 81.316406 " fill-opacity="1" fill-rule="nonzero"/><path fill="#b07aa8" d="M 29.300781 120.019531 C 28.320312 121.617188 28.25 121.699219 28.179688 121.855469 C 28.109375 122.011719 28.324219 122.167969 28.449219 122.027344 C 28.96875 121.449219 30.265625 119.164062 30.558594 117.820312 C 30.273438 117.363281 30.359375 118.296875 29.300781 120.019531 " fill-opacity="1" fill-rule="nonzero"/><path fill="#b07aa8" d="M 28.914062 118.941406 C 28.574219 119.3125 27.773438 120.789062 27.558594 121.175781 C 27.523438 121.238281 27.515625 121.324219 27.519531 121.394531 C 27.523438 121.441406 27.570312 121.484375 27.59375 121.523438 C 27.667969 121.519531 27.730469 121.566406 27.855469 121.335938 C 29.007812 119.230469 28.984375 119.265625 29.078125 119.027344 C 29.113281 118.945312 29.003906 118.84375 28.914062 118.941406 " fill-opacity="1" fill-rule="nonzero"/><path fill="#b07aa8" d="M 34.980469 108.753906 C 35.265625 108.378906 35.519531 107.976562 35.71875 107.546875 C 36.09375 106.742188 36.367188 106.792969 36.253906 106.535156 C 36.175781 106.347656 35.816406 106.785156 35.707031 106.992188 C 34.660156 108.933594 34.867188 108.550781 34.738281 108.894531 C 34.90625 108.890625 34.9375 108.8125 34.980469 108.753906 " fill-opacity="1" fill-rule="nonzero"/><path fill="#b07aa8" d="M 28.039062 119.0625 C 28.007812 119.054688 27.960938 119.074219 27.941406 119.101562 C 26.949219 120.390625 26.976562 120.355469 26.96875 120.417969 C 26.949219 120.597656 27.132812 120.730469 27.246094 120.585938 C 28.089844 119.46875 27.890625 119.699219 28.113281 119.167969 C 28.078125 119.113281 28.0625 119.066406 28.039062 119.0625 " fill-opacity="1" fill-rule="nonzero"/><path fill="#b07aa8" d="M 27.339844 118.351562 C 26.402344 119.207031 26.441406 119.15625 26.390625 119.273438 C 26.324219 119.425781 26.46875 119.605469 26.625 119.492188 C 26.976562 119.25 27.183594 118.894531 27.363281 118.523438 C 27.390625 118.46875 27.398438 118.414062 27.339844 118.351562 " fill-opacity="1" fill-rule="nonzero"/><path fill="#b07aa8" d="M 26.65625 117.539062 C 26.625 117.527344 26.574219 117.5 26.558594 117.515625 C 26.265625 117.714844 26 117.949219 25.753906 118.207031 C 25.570312 118.394531 25.902344 118.925781 26.679688 117.589844 C 26.667969 117.566406 26.667969 117.546875 26.65625 117.539062 " fill-opacity="1" fill-rule="nonzero"/><path fill="#b07aa8" d="M 34.222656 108.351562 C 34.253906 108.34375 34.300781 108.339844 34.320312 108.3125 C 34.511719 108.0625 35.074219 107.28125 35.105469 106.96875 C 35.109375 106.949219 35.113281 106.941406 35.113281 106.9375 C 35.109375 106.945312 35.097656 106.957031 35.066406 106.929688 C 35.019531 106.890625 34.921875 106.914062 34.882812 106.988281 C 34.082031 108.421875 34.175781 108.253906 34.183594 108.3125 C 34.195312 108.324219 34.210938 108.355469 34.222656 108.351562 " fill-opacity="1" fill-rule="nonzero"/><path fill="#b07aa8" d="M 25.910156 116.539062 C 25.808594 116.457031 25.359375 116.738281 25.199219 116.917969 C 24.9375 117.203125 25.21875 117.40625 25.328125 117.292969 C 25.921875 116.679688 26.007812 116.617188 25.910156 116.539062 " fill-opacity="1" fill-rule="nonzero"/><path fill="#b07aa8" d="M 33.691406 107.476562 C 33.445312 107.410156 33.277344 107.871094 33.253906 108.152344 C 33.503906 107.972656 33.886719 107.527344 33.691406 107.476562 " fill-opacity="1" fill-rule="nonzero"/><path fill="#b07aa8" d="M 36.9375 101.617188 C 36.953125 101.613281 37.074219 101.515625 37.015625 101.433594 C 36.921875 101.292969 36.558594 101.476562 36.488281 101.503906 C 35.484375 101.914062 34.597656 102.941406 32.097656 104.238281 C 31.742188 104.421875 31.402344 104.628906 31.0625 104.835938 C 30.890625 104.941406 30.703125 105.039062 30.65625 105.285156 C 31.320312 104.917969 31.96875 104.523438 32.648438 104.191406 C 34.148438 103.457031 35.9375 102 36.9375 101.617188 " fill-opacity="1" fill-rule="nonzero"/><path fill="#b07aa8" d="M 26.136719 107.199219 C 26.675781 107.042969 28.179688 107.269531 29.835938 106.777344 C 30.011719 106.726562 30.21875 106.726562 30.308594 106.519531 C 30.144531 106.335938 30.035156 106.5 29.699219 106.558594 C 27.230469 106.976562 25.925781 106.730469 25.96875 107.097656 C 25.980469 107.199219 26.074219 107.21875 26.136719 107.199219 " fill-opacity="1" fill-rule="nonzero"/><path fill="#b07aa8" d="M 27.652344 106.511719 C 27.914062 106.511719 28.160156 106.441406 28.410156 106.363281 C 28.429688 106.359375 28.449219 106.300781 28.445312 106.273438 C 28.429688 106.191406 28.289062 106.203125 28.152344 106.195312 C 27.96875 106.214844 27.773438 106.175781 27.613281 106.300781 C 27.566406 106.339844 27.542969 106.511719 27.652344 106.511719 " fill-opacity="1" fill-rule="nonzero"/><path fill="#b07aa8" d="M 14.804688 79.367188 C 14.875 79.203125 14.988281 79.042969 15.15625 78.941406 C 15.289062 78.863281 15.636719 78.933594 15.78125 79.070312 C 15.996094 79.277344 15.8125 79.886719 15.292969 79.882812 C 15.132812 79.878906 15.105469 79.820312 15.046875 79.703125 C 14.984375 79.574219 14.734375 79.546875 14.804688 79.367188 Z M 15.09375 80.519531 C 15.257812 80.566406 15.738281 80.355469 15.84375 80.300781 C 16.402344 80.007812 16.199219 79.902344 16.492188 79.550781 C 16.6875 79.308594 16.589844 79.046875 16.554688 78.792969 C 16.550781 78.746094 16.5 78.6875 16.453125 78.667969 C 15.792969 78.371094 16.332031 78.574219 15.425781 78.410156 C 15.019531 78.335938 14.453125 78.398438 14.285156 78.808594 C 14.078125 79.3125 14.007812 78.921875 13.933594 79.609375 C 13.933594 79.734375 13.949219 79.757812 14.015625 79.871094 C 14.257812 80.285156 14.679688 80.398438 15.09375 80.519531 " fill-opacity="1" fill-rule="nonzero"/><path fill="#b07aa8" d="M 17.351562 82.34375 C 17.726562 82.203125 18.09375 82.050781 18.441406 81.851562 C 19.414062 81.292969 19.074219 81.578125 20.101562 80.980469 C 22.226562 79.753906 23.121094 79.699219 23.246094 79.246094 C 22.972656 79.117188 21.707031 79.757812 20.6875 80.226562 C 20.015625 80.535156 20.125 80.644531 19.167969 81.117188 C 17.328125 82.03125 17.070312 82.140625 17.199219 82.304688 C 17.226562 82.339844 17.308594 82.359375 17.351562 82.34375 " fill-opacity="1" fill-rule="nonzero"/><path fill="#b07aa8" d="M 11.914062 83.976562 C 13.21875 83.984375 13.460938 83.660156 14.109375 83.542969 C 14.484375 83.476562 14.824219 83.300781 15.183594 83.1875 C 15.410156 83.113281 15.578125 82.90625 15.527344 82.796875 C 15.398438 82.503906 13.546875 83.535156 11.941406 83.613281 C 11.46875 83.636719 11.246094 83.640625 11.253906 83.839844 C 11.261719 84.089844 11.601562 84 11.914062 83.976562 " fill-opacity="1" fill-rule="nonzero"/><path fill="#b07aa8" d="M 13.902344 82.535156 C 14.089844 82.453125 14.246094 82.300781 14.410156 82.179688 C 14.472656 82.136719 14.53125 82.074219 14.484375 81.996094 C 14.351562 81.785156 12.816406 82.792969 11.308594 82.871094 C 10.949219 82.890625 10.6875 83.929688 13.902344 82.535156 " fill-opacity="1" fill-rule="nonzero"/><path fill="#b07aa8" d="M 11.582031 80.425781 C 12.660156 79.480469 12.617188 79.519531 12.910156 79.203125 C 12.925781 79.183594 12.910156 79.074219 12.855469 79.085938 C 12.242188 79.1875 11.289062 80.125 11.242188 80.398438 C 11.230469 80.480469 11.347656 80.632812 11.582031 80.425781 " fill-opacity="1" fill-rule="nonzero"/><path fill="#b07aa8" d="M 12.273438 81.929688 C 12.335938 81.878906 12.371094 81.800781 12.328125 81.734375 C 12.183594 81.515625 11.238281 82.125 11.03125 82.304688 C 10.863281 82.449219 11.019531 82.578125 11.035156 82.597656 C 11.351562 82.507812 11.539062 82.289062 12.042969 82.09375 C 12.128906 82.058594 12.199219 81.988281 12.273438 81.929688 " fill-opacity="1" fill-rule="nonzero"/><path fill="#b07aa8" d="M 17.410156 77.589844 C 17.609375 77.546875 18.375 77.421875 18.425781 77.21875 C 18.464844 76.992188 17.449219 77.152344 17.332031 77.429688 C 17.273438 77.566406 17.390625 77.59375 17.410156 77.589844 " fill-opacity="1" fill-rule="nonzero"/><path fill="#b07aa8" d="M 10.648438 81.898438 C 10.640625 81.957031 10.671875 82 10.726562 82.027344 C 10.765625 82.023438 10.8125 82.035156 10.835938 82.015625 C 12.046875 81.027344 10.765625 80.941406 10.648438 81.898438 " fill-opacity="1" fill-rule="nonzero"/><path fill="#b07aa8" d="M 26.648438 113.109375 C 26.425781 113.226562 25.738281 113.976562 25.589844 114.132812 C 24.652344 115.160156 23.992188 114.988281 24.054688 115.363281 C 24.058594 115.390625 24.109375 115.40625 24.136719 115.425781 C 24.953125 115.425781 26.066406 114.042969 26.605469 113.421875 C 26.828125 113.164062 26.652344 113.105469 26.648438 113.109375 " fill-opacity="1" fill-rule="nonzero"/><path fill="#b07aa8" d="M 24.230469 114.648438 C 24.703125 114.269531 25.128906 113.855469 25.4375 113.328125 C 25.441406 113.316406 25.433594 113.292969 25.421875 113.1875 C 24.007812 114.417969 24.113281 114.308594 24.039062 114.476562 C 23.976562 114.613281 24.164062 114.703125 24.230469 114.648438 " fill-opacity="1" fill-rule="nonzero"/><path fill="#b07aa8" d="M 24.152344 113.296875 C 25.605469 112.148438 25.09375 112.222656 25.066406 112.246094 C 24.207031 112.992188 23.921875 112.988281 23.917969 113.121094 C 23.910156 113.335938 24.074219 113.359375 24.152344 113.296875 " fill-opacity="1" fill-rule="nonzero"/><path fill="#b07aa8" d="M 24.707031 111.460938 C 24.695312 111.449219 24.667969 111.441406 24.660156 111.449219 C 23.929688 111.988281 23.597656 111.933594 23.691406 112.195312 C 23.785156 112.457031 24.886719 111.566406 24.707031 111.460938 " fill-opacity="1" fill-rule="nonzero"/><path fill="#b07aa8" d="M 24.53125 110.730469 C 24.5 110.648438 24.453125 110.671875 23.855469 111.054688 C 23.695312 111.160156 23.789062 111.285156 23.804688 111.335938 C 24.007812 111.335938 24.613281 110.96875 24.53125 110.730469 " fill-opacity="1" fill-rule="nonzero"/><path fill="#b07aa8" d="M 29.515625 109.140625 C 29.535156 109.160156 29.589844 109.179688 29.609375 109.167969 C 30.367188 108.644531 30.398438 108.640625 30.347656 108.496094 C 30.28125 108.300781 29.660156 108.914062 29.523438 109.050781 C 29.507812 109.066406 29.503906 109.125 29.515625 109.140625 " fill-opacity="1" fill-rule="nonzero"/><path fill="#b07aa8" d="M 24.542969 109.996094 C 24.304688 109.960938 24.144531 110.066406 24.003906 110.222656 C 23.988281 110.242188 23.988281 110.296875 24.003906 110.328125 C 24.082031 110.511719 24.46875 110.230469 24.542969 109.996094 " fill-opacity="1" fill-rule="nonzero"/><path fill="#b07aa8" d="M 29.488281 108.535156 C 29.636719 108.503906 29.796875 108.425781 29.773438 108.277344 C 29.648438 108.167969 29.445312 108.3125 29.429688 108.46875 C 29.425781 108.492188 29.472656 108.535156 29.488281 108.535156 " fill-opacity="1" fill-rule="nonzero"/><path fill="#b07aa8" d="M 48.300781 89.5 C 48.257812 89.46875 48.195312 89.433594 48.152344 89.445312 C 47.761719 89.550781 47.503906 89.804688 47.367188 90.183594 C 47.34375 90.25 47.453125 90.347656 47.496094 90.308594 C 48.25 89.65625 48.382812 89.558594 48.300781 89.5 " fill-opacity="1" fill-rule="nonzero"/><path fill="#b07aa8" d="M 48.785156 89.804688 C 48.484375 89.859375 48.28125 90.042969 48.167969 90.324219 C 48.144531 90.378906 48.183594 90.429688 48.238281 90.464844 C 48.398438 90.4375 48.277344 90.554688 48.921875 90.011719 C 49.027344 89.921875 48.898438 89.78125 48.785156 89.804688 " fill-opacity="1" fill-rule="nonzero"/><path fill="#b07aa8" d="M 49.773438 90.355469 C 49.476562 90.292969 49.140625 90.546875 49.09375 90.871094 C 49.082031 90.949219 49.179688 91.011719 49.238281 90.972656 C 49.941406 90.460938 49.820312 90.539062 49.84375 90.429688 C 49.820312 90.402344 49.800781 90.363281 49.773438 90.355469 " fill-opacity="1" fill-rule="nonzero"/><path fill="#b07aa8" d="M 49.894531 91.171875 C 49.921875 91.28125 50.082031 91.21875 50.15625 91.105469 C 50.28125 90.902344 49.820312 90.816406 49.894531 91.171875 " fill-opacity="1" fill-rule="nonzero"/><g fill="#000000" fill-opacity="1"><g transform="translate(87.069569, 123.310296)"><g><path d="M 0.527344 -17.355469 C 2.035156 -17.355469 2.136719 -16.109375 2.136719 -12.65625 L 2.136719 -4.875 C 2.136719 -1.417969 2.035156 -0.175781 0.527344 -0.175781 L 0.527344 0 L 13.078125 0 L 13.078125 -2.890625 L 12.902344 -2.890625 C 12.902344 -0.367188 7.554688 -0.175781 5.890625 -0.175781 L 3.644531 -0.175781 L 3.644531 -9.535156 C 3.925781 -9.902344 4.363281 -10.167969 4.875 -10.148438 C 6.117188 -10.113281 7.011719 -8.605469 9.148438 -8.605469 C 10.535156 -8.605469 11.394531 -9.5 11.394531 -10.535156 L 11.21875 -10.535156 C 11.21875 -9.921875 10.585938 -9.535156 9.921875 -9.535156 C 8.378906 -9.535156 7.414062 -10.621094 5.679688 -10.621094 C 4.875 -10.621094 4.171875 -10.324219 3.644531 -9.816406 L 3.644531 -17.355469 L 6.554688 -17.355469 C 10.585938 -17.355469 12.902344 -16.40625 12.902344 -15.234375 L 12.902344 -15.164062 L 13.078125 -15.164062 L 13.078125 -17.527344 L 0.527344 -17.527344 Z M 0.527344 -17.355469 "/></g></g></g><g fill="#000000" fill-opacity="1"><g transform="translate(104.070894, 123.310296)"><g><path d="M 0.527344 -17.355469 C 2.035156 -17.355469 2.136719 -16.109375 2.136719 -12.65625 L 2.136719 -4.875 C 2.136719 -1.417969 2.035156 -0.175781 0.527344 -0.175781 L 0.527344 0 L 5.257812 0 L 5.257812 -0.175781 C 3.75 -0.175781 3.644531 -1.417969 3.644531 -4.875 L 3.644531 -12.65625 C 3.644531 -16.109375 3.75 -17.355469 5.257812 -17.355469 L 5.257812 -17.527344 L 0.527344 -17.527344 Z M 0.527344 -17.355469 "/></g></g></g><g fill="#000000" fill-opacity="1"><g transform="translate(113.25618, 123.310296)"><g><path d="M 0 -17.355469 C 1.070312 -17.355469 1.628906 -16.390625 2.402344 -14.460938 L 8.011719 0.351562 L 8.1875 0.351562 L 13.796875 -14.460938 C 14.53125 -16.40625 15.128906 -17.355469 16.195312 -17.355469 L 16.195312 -17.527344 L 11.234375 -17.527344 L 11.234375 -17.355469 C 13.707031 -17.355469 13.671875 -15.511719 13.21875 -14.109375 C 11.867188 -9.957031 10.21875 -5.820312 8.765625 -1.683594 L 4.03125 -14.164062 C 3.367188 -15.933594 3.277344 -17.355469 5.75 -17.355469 L 5.75 -17.527344 L 0 -17.527344 Z M 0 -17.355469 "/></g></g></g><g fill="#000000" fill-opacity="1"><g transform="translate(132.851166, 123.310296)"><g><path d="M 0.527344 -17.355469 C 2.035156 -17.355469 2.136719 -16.109375 2.136719 -12.65625 L 2.136719 -4.875 C 2.136719 -1.417969 2.035156 -0.175781 0.527344 -0.175781 L 0.527344 0 L 13.078125 0 L 13.078125 -2.890625 L 12.902344 -2.890625 C 12.902344 -0.367188 7.554688 -0.175781 5.890625 -0.175781 L 3.644531 -0.175781 L 3.644531 -9.535156 C 3.925781 -9.902344 4.363281 -10.167969 4.875 -10.148438 C 6.117188 -10.113281 7.011719 -8.605469 9.148438 -8.605469 C 10.535156 -8.605469 11.394531 -9.5 11.394531 -10.535156 L 11.21875 -10.535156 C 11.21875 -9.921875 10.585938 -9.535156 9.921875 -9.535156 C 8.378906 -9.535156 7.414062 -10.621094 5.679688 -10.621094 C 4.875 -10.621094 4.171875 -10.324219 3.644531 -9.816406 L 3.644531 -17.355469 L 6.554688 -17.355469 C 10.585938 -17.355469 12.902344 -16.40625 12.902344 -15.234375 L 12.902344 -15.164062 L 13.078125 -15.164062 L 13.078125 -17.527344 L 0.527344 -17.527344 Z M 0.527344 -17.355469 "/></g></g></g><g fill="#000000" fill-opacity="1"><g transform="translate(149.852489, 123.310296)"><g><path d="M 0.527344 -17.527344 L 0.527344 -17.355469 C 2.035156 -17.355469 2.136719 -16.109375 2.136719 -12.65625 L 2.136719 -4.875 C 2.136719 -1.417969 2.035156 -0.175781 0.527344 -0.175781 L 0.527344 0 L 5.257812 0 L 5.257812 -0.175781 C 3.75 -0.175781 2.3125 -2.226562 2.3125 -7.328125 L 2.3125 -16.546875 L 13.410156 0.351562 L 13.585938 0.351562 L 13.585938 -12.65625 C 13.585938 -16.109375 13.691406 -17.355469 15.199219 -17.355469 L 15.199219 -17.527344 L 10.464844 -17.527344 L 10.464844 -17.355469 C 11.972656 -17.355469 13.410156 -15.304688 13.410156 -10.203125 L 13.410156 -2.558594 L 3.59375 -17.527344 Z M 0.527344 -17.527344 "/></g></g></g><g fill="#000000" fill-opacity="1"><g transform="translate(168.974318, 123.310296)"><g><path d="M 0.527344 -17.527344 L 0.527344 -15.164062 L 0.699219 -15.164062 C 0.699219 -15.214844 0.683594 -15.164062 0.683594 -15.234375 C 0.683594 -16.40625 2.890625 -17.355469 5.90625 -17.355469 L 5.90625 -4.875 C 5.90625 -1.417969 5.800781 -0.175781 4.292969 -0.175781 L 4.292969 0 L 8.871094 0 L 8.871094 -0.175781 C 7.363281 -0.175781 7.398438 -1.417969 7.398438 -4.875 L 7.398438 -17.355469 C 10.414062 -17.355469 12.621094 -16.40625 12.621094 -15.234375 C 12.621094 -15.164062 12.601562 -15.214844 12.601562 -15.164062 L 12.777344 -15.164062 L 12.777344 -17.527344 Z M 0.527344 -17.527344 "/></g></g></g><g fill="#000000" fill-opacity="1"><g transform="translate(185.677716, 123.310296)"><g><path d="M 0.527344 -17.355469 C 2.035156 -17.355469 2.136719 -16.109375 2.136719 -12.65625 L 2.136719 -4.875 C 2.136719 -1.417969 2.035156 -0.175781 0.527344 -0.175781 L 0.527344 0 L 13.078125 0 L 13.078125 -2.890625 L 12.902344 -2.890625 C 12.902344 -0.367188 7.554688 -0.175781 5.890625 -0.175781 L 3.644531 -0.175781 L 3.644531 -9.535156 C 3.925781 -9.902344 4.363281 -10.167969 4.875 -10.148438 C 6.117188 -10.113281 7.011719 -8.605469 9.148438 -8.605469 C 10.535156 -8.605469 11.394531 -9.5 11.394531 -10.535156 L 11.21875 -10.535156 C 11.21875 -9.921875 10.585938 -9.535156 9.921875 -9.535156 C 8.378906 -9.535156 7.414062 -10.621094 5.679688 -10.621094 C 4.875 -10.621094 4.171875 -10.324219 3.644531 -9.816406 L 3.644531 -17.355469 L 6.554688 -17.355469 C 10.585938 -17.355469 12.902344 -16.40625 12.902344 -15.234375 L 12.902344 -15.164062 L 13.078125 -15.164062 L 13.078125 -17.527344 L 0.527344 -17.527344 Z M 0.527344 -17.355469 "/></g></g></g></svg>