<svg xmlns="http://www.w3.org/2000/svg" xmlns:xlink="http://www.w3.org/1999/xlink" width="268" zoomAndPan="magnify" viewBox="0 0 200.87999 125.999998" height="168" preserveAspectRatio="xMidYMid meet" version="1.0"><defs><g/><clipPath id="010ba46a11"><path d="M 9.75 62.589844 L 53.972656 62.589844 L 53.972656 125.960938 L 9.75 125.960938 Z M 9.75 62.589844 " clip-rule="nonzero"/></clipPath><clipPath id="63da5374ba"><path d="M 38 122 L 42 122 L 42 125.960938 L 38 125.960938 Z M 38 122 " clip-rule="nonzero"/></clipPath><clipPath id="a449d72f14"><path d="M 37 124 L 40 124 L 40 125.960938 L 37 125.960938 Z M 37 124 " clip-rule="nonzero"/></clipPath><clipPath id="9bc3b31731"><path d="M 35 124 L 38 124 L 38 125.960938 L 35 125.960938 Z M 35 124 " clip-rule="nonzero"/></clipPath><clipPath id="d024f02312"><path d="M 36 125 L 38 125 L 38 125.960938 L 36 125.960938 Z M 36 125 " clip-rule="nonzero"/></clipPath><clipPath id="d7a23c25e8"><path d="M 33 122 L 36 122 L 36 125.960938 L 33 125.960938 Z M 33 122 " clip-rule="nonzero"/></clipPath><clipPath id="974bb3ff1d"><path d="M 32 123 L 34 123 L 34 125.960938 L 32 125.960938 Z M 32 123 " clip-rule="nonzero"/></clipPath></defs><g fill="#000000" fill-opacity="1"><g transform="translate(48.220972, 123.233628)"><g><path d="M 1.289062 0 L 12.839844 0 L 12.839844 -0.429688 C 9.148438 -0.429688 8.890625 -3.480469 8.890625 -11.9375 L 8.890625 -41.828125 C 11.507812 -42.773438 13.570312 -43.203125 16.75 -43.203125 C 24.738281 -43.203125 29.761719 -38.824219 29.761719 -31.695312 C 29.761719 -26.539062 26.28125 -21.257812 20.914062 -21.257812 C 16.921875 -21.257812 14.945312 -23.707031 12.410156 -23.707031 C 11.636719 -23.707031 10.910156 -23.277344 10.910156 -22.246094 C 10.910156 -19.324219 15.460938 -19.152344 19.625 -12.882812 C 26.410156 -2.707031 27.613281 0 29.589844 0 L 36.160156 0 L 36.160156 -0.429688 C 31.265625 -0.429688 27.269531 -8.074219 23.878906 -13.355469 C 20.398438 -18.765625 11.335938 -19.367188 11.335938 -22.160156 C 11.335938 -23.148438 12.066406 -23.277344 12.582031 -23.277344 C 14.386719 -23.277344 17.136719 -20.527344 21.171875 -20.527344 C 28.644531 -20.527344 33.457031 -25.855469 33.457031 -31.738281 C 33.457031 -38.738281 28.34375 -43.804688 19.195312 -43.804688 C 14.214844 -43.804688 11.167969 -42.945312 6.441406 -42.945312 L 1.289062 -42.945312 L 1.289062 -42.515625 C 4.980469 -42.515625 5.238281 -39.46875 5.238281 -31.007812 L 5.238281 -11.9375 C 5.238281 -3.480469 4.980469 -0.429688 1.289062 -0.429688 Z M 1.289062 0 "/></g></g></g><g clip-path="url(#010ba46a11)"><path fill="#000000" d="M 96.632812 79.164062 C 96.613281 79.402344 96.566406 79.460938 96.328125 79.503906 C 95.972656 79.570312 95.617188 79.652344 95.261719 79.660156 C 94.542969 79.679688 93.824219 79.757812 93.105469 79.796875 C 92.15625 79.847656 89.210938 79.3125 88.328125 79.109375 C 86.324219 78.644531 83.835938 77.964844 80.171875 76.472656 C 79.121094 76.046875 80.304688 75.542969 78.582031 73.464844 C 78.152344 72.941406 77.34375 72.792969 77.222656 72.558594 C 77.839844 72.203125 80.832031 71.625 81.476562 71.515625 C 82.949219 71.273438 85.304688 71.285156 86.75 71.351562 C 90.539062 71.523438 91.023438 72.007812 91.789062 72.125 C 92.769531 72.28125 93.480469 72.707031 95.355469 73.84375 C 96.503906 74.539062 96.375 74.816406 96.535156 74.890625 C 96.78125 75.003906 97.015625 74.925781 96.632812 79.164062 Z M 95.890625 86.585938 C 95.828125 86.71875 95.738281 86.792969 95.585938 86.792969 C 92.136719 86.800781 93.585938 86.644531 90.945312 86.402344 C 90.390625 86.351562 89.863281 86.1875 89.351562 85.992188 C 87.96875 85.472656 86.546875 85.039062 85.210938 84.402344 C 84.695312 84.15625 84.191406 83.886719 83.664062 83.671875 C 82.996094 83.40625 82.40625 82.980469 81.710938 82.769531 C 79.996094 82.253906 78.882812 81.207031 77.71875 81 C 77.289062 80.925781 77.679688 80.746094 78.460938 79.726562 C 79.765625 78.019531 79.277344 76.558594 79.855469 76.878906 C 81.925781 78.019531 90.515625 80.621094 93.671875 80.308594 C 95.378906 80.136719 94.066406 80.355469 95.996094 80.109375 C 96.179688 80.085938 96.503906 79.957031 96.503906 80.242188 C 96.507812 81.191406 97.089844 84.011719 95.890625 86.585938 Z M 94.003906 92.972656 C 93.628906 94.28125 93.085938 95.777344 92.265625 96.859375 C 90.84375 98.734375 90.585938 101.417969 87.753906 103.625 C 87.21875 104.042969 86.679688 104.085938 86.058594 103.863281 C 84.992188 103.484375 83.214844 102.304688 82.335938 101.59375 C 79.539062 99.316406 79.632812 99.230469 78.695312 98.328125 C 78.214844 97.867188 77.523438 97.257812 77.484375 97.207031 C 76.929688 96.515625 75.273438 94.882812 74.085938 93.367188 C 72.671875 91.566406 71.316406 90.269531 71.3125 90.265625 C 70.257812 89.175781 69.632812 88.34375 67.832031 87.085938 C 67.335938 86.738281 66.722656 86.410156 66.5625 85.734375 C 67.519531 85.097656 69.011719 84.867188 70.097656 84.4375 C 71.261719 83.980469 71.390625 83.933594 71.425781 84.164062 C 71.511719 84.742188 72.101562 83.902344 77.988281 88.386719 C 81.558594 91.105469 87.890625 95.15625 91.941406 96.015625 C 92.042969 96.039062 92.40625 96.078125 92.5625 96.039062 C 92.875 95.960938 92.839844 95.460938 92.511719 95.507812 C 91.019531 95.734375 85.945312 92.980469 84.640625 92.25 C 82.089844 90.820312 78.683594 88.300781 75.828125 86.277344 C 71.660156 83.324219 70.570312 84.273438 73.898438 83.003906 C 74.117188 82.917969 74.558594 82.640625 74.8125 82.542969 C 76.667969 81.832031 76.625 81.234375 77.34375 81.398438 C 78.0625 81.5625 78.945312 81.992188 79.335938 82.230469 C 80.636719 83.027344 81.164062 82.976562 82.5 83.636719 C 85.613281 85.175781 85.558594 85.183594 89.742188 86.65625 C 90.585938 86.953125 91.34375 86.9375 92.542969 87.136719 C 94.390625 87.441406 94.253906 87.238281 95.503906 87.347656 C 94.050781 91.457031 94.761719 90.34375 94.003906 92.972656 Z M 86.351562 106.414062 C 86.214844 106.53125 86.089844 106.476562 85.90625 106.402344 C 85.460938 106.398438 85.019531 106.339844 84.578125 106.320312 C 83.332031 106.261719 82.097656 106.316406 80.847656 106.367188 C 79.390625 106.429688 77.929688 106.332031 76.480469 106.1875 C 75.46875 106.085938 74.222656 105.625 73.253906 105.300781 C 70.761719 104.472656 70.867188 104.300781 69.175781 103.566406 C 68.882812 103.4375 68.726562 103.355469 66.101562 101.316406 C 64.1875 99.828125 64.347656 99.796875 61.609375 97.042969 C 61.378906 96.8125 61.144531 96.589844 60.910156 96.371094 C 60.777344 96.246094 60.527344 96.105469 60.523438 95.902344 C 60.710938 95.839844 61.109375 96.308594 61.238281 96.433594 C 61.550781 96.730469 61.847656 97.042969 62.160156 97.34375 C 62.996094 98.15625 63.886719 98.917969 64.875 99.542969 C 65.007812 99.625 65.265625 99.773438 65.320312 99.625 C 65.378906 99.464844 65.101562 99.328125 65.058594 99.296875 C 64.371094 98.839844 63.730469 98.328125 63.125 97.769531 C 62.765625 97.4375 62.417969 97.097656 62.0625 96.761719 C 61.832031 96.539062 61.601562 96.320312 61.367188 96.097656 C 61.238281 95.976562 61.109375 95.855469 60.980469 95.734375 C 60.917969 95.675781 60.671875 95.472656 60.851562 95.4375 C 60.925781 95.417969 61.195312 95.652344 61.265625 95.695312 C 61.425781 95.800781 61.582031 95.90625 61.742188 96.011719 C 62.257812 96.363281 62.753906 96.742188 63.234375 97.140625 C 64.007812 97.773438 64.742188 98.457031 65.582031 99.003906 C 66.046875 99.304688 66.535156 99.5625 67.046875 99.777344 C 68.0625 100.203125 68.285156 100.355469 68.390625 100.195312 C 68.429688 100.140625 68.382812 100.082031 68.332031 100.054688 C 67.492188 99.640625 66.570312 99.289062 65.796875 98.753906 C 64.894531 98.132812 64.074219 97.378906 63.203125 96.710938 C 62.894531 96.472656 62.585938 96.238281 62.273438 96.003906 C 62.09375 95.863281 61.910156 95.726562 61.726562 95.589844 C 61.667969 95.546875 61.195312 95.25 61.308594 95.183594 C 61.417969 95.121094 61.90625 95.398438 62.019531 95.453125 C 62.746094 95.820312 63.402344 96.347656 64.050781 96.835938 C 65.363281 97.832031 66.429688 98.296875 66.527344 98.320312 C 66.78125 98.378906 66.855469 98.214844 66.625 98.089844 C 64.597656 96.964844 64.566406 96.625 62.726562 95.433594 C 61.835938 94.855469 62.304688 95.238281 59.351562 93.683594 C 58.957031 93.472656 59.089844 93.382812 59.371094 93.472656 C 60.269531 93.761719 61.148438 94.121094 61.960938 94.605469 C 62.246094 94.777344 62.523438 94.960938 62.800781 95.144531 C 62.925781 95.226562 63.050781 95.3125 63.179688 95.394531 C 63.242188 95.433594 63.402344 95.589844 63.488281 95.539062 C 63.617188 95.460938 63.464844 95.398438 63.464844 95.324219 C 63.460938 95.292969 63.425781 95.25 63.425781 95.214844 C 63.667969 95.222656 63.980469 95.496094 64.183594 95.617188 C 64.941406 96.066406 65.707031 96.488281 66.488281 96.886719 C 67.910156 97.605469 69.25 98.476562 70.660156 99.222656 C 70.664062 99.226562 77.496094 102.75 78.15625 103.058594 C 80.074219 103.957031 82.867188 104.808594 84.648438 104.835938 C 85.355469 104.84375 86.226562 105.632812 86.351562 106.414062 Z M 86.710938 107.4375 C 86.957031 108.425781 87.921875 110.746094 86.746094 114.398438 C 86.148438 116.257812 83.90625 119.90625 83.261719 120.726562 C 83.140625 120.878906 83.074219 120.886719 82.925781 120.792969 C 82.425781 120.484375 81.914062 120.191406 81.421875 119.871094 C 78.929688 118.246094 77.023438 115.988281 75.734375 114.894531 C 75.574219 114.757812 73.570312 112.589844 71.472656 109.703125 C 71.035156 109.101562 69.585938 106.816406 68.402344 105.03125 C 66.824219 102.652344 66.796875 102.863281 66.855469 102.640625 C 67.1875 102.726562 67.964844 103.636719 69.609375 104.414062 C 71.246094 105.191406 71.476562 105.191406 72.007812 105.785156 C 74.949219 109.082031 75.546875 109.148438 77.519531 110.882812 C 79.214844 112.371094 85.640625 116.210938 85.882812 115.511719 C 85.921875 115.402344 85.875 115.199219 85.792969 115.144531 C 85.449219 114.929688 85.648438 115.398438 81.738281 113.113281 C 79.386719 111.738281 79.191406 111.601562 78.300781 110.886719 C 78.277344 110.867188 72.589844 106.324219 72.65625 105.765625 C 73.054688 105.703125 74.761719 106.6875 77.328125 106.785156 C 79.054688 106.847656 80.136719 107.042969 81.703125 106.871094 C 82.742188 106.757812 83.789062 106.773438 84.832031 106.792969 C 85.324219 106.800781 85.804688 106.9375 86.285156 107.042969 C 86.503906 107.085938 86.648438 107.191406 86.710938 107.4375 Z M 81.1875 122.878906 C 81.003906 123.082031 80.796875 123.109375 80.566406 123.027344 C 79.195312 122.535156 78.144531 121.8125 76.894531 121.101562 C 76.671875 120.976562 74.898438 119.460938 74.617188 119.210938 C 73.5625 118.253906 72.554688 117.0625 71.660156 115.898438 C 70.703125 114.644531 70.855469 115 70.648438 114.671875 C 69.886719 113.449219 69.984375 113.921875 68.203125 111.042969 C 68.152344 110.957031 68.148438 110.949219 68.152344 110.957031 C 68.101562 110.875 67.738281 110.324219 65.761719 107.261719 C 65.527344 106.898438 65.777344 107.121094 64.789062 105.585938 C 63.679688 103.863281 63.96875 104.089844 63 102.472656 C 58.902344 95.648438 58.992188 96.285156 59.039062 95.972656 C 59.0625 95.832031 58.9375 95.734375 58.851562 95.628906 C 58.324219 94.96875 58.367188 95.089844 58.464844 94.972656 C 59.53125 95.589844 62.523438 98.761719 63.382812 99.671875 C 64.933594 101.316406 65.28125 101.105469 65.933594 102.246094 C 66.597656 103.394531 66.429688 102.960938 69.265625 107.289062 C 71.730469 111.050781 71.625 110.839844 73.648438 113.328125 C 74.824219 114.777344 79.875 119.820312 82.3125 121.066406 C 82.445312 121.136719 82.609375 121.144531 82.71875 121.285156 C 82.371094 121.785156 81.507812 122.523438 81.1875 122.878906 Z M 76.804688 124.578125 C 76.03125 124.40625 74.777344 124.421875 73.476562 123.523438 C 70.699219 121.609375 69.136719 120.464844 65.667969 116.179688 C 65.050781 115.414062 64.890625 114.894531 63.171875 111.761719 C 61.554688 108.800781 61.410156 107.78125 60.542969 105.757812 C 59.894531 104.246094 60.128906 104.375 59.882812 103.703125 C 59.460938 102.554688 57.960938 98.375 57.074219 96.777344 C 56.890625 96.441406 57.089844 96.355469 57.15625 96.417969 C 57.519531 96.769531 58.632812 99.089844 58.976562 99.960938 C 60.492188 103.792969 60.285156 103.765625 61.078125 105.191406 C 61.078125 104.660156 61.046875 104.605469 59.742188 101.101562 C 58.40625 97.515625 58.261719 97.808594 58.171875 97.5625 C 58.035156 97.179688 57.832031 96.824219 57.617188 96.484375 C 57.519531 96.332031 57.417969 96.179688 57.320312 96.027344 C 57.292969 95.984375 57.1875 95.871094 57.191406 95.816406 C 57.222656 95.578125 57.394531 95.828125 57.445312 95.894531 C 57.585938 96.074219 57.734375 96.238281 57.847656 96.433594 C 60.953125 101.832031 60.582031 102.515625 61.496094 103.234375 C 61.542969 103.066406 61.457031 102.929688 61.390625 102.800781 C 59.90625 99.921875 60.238281 99.703125 57.566406 95.445312 C 57.78125 95.40625 57.886719 95.503906 57.976562 95.625 C 63.117188 102.398438 65.492188 109.304688 73.054688 118.375 C 73.859375 119.335938 73.855469 119.132812 74.320312 119.597656 C 76.183594 121.457031 77.972656 122.472656 80.410156 123.554688 C 79.765625 124.386719 78.4375 124.945312 76.804688 124.578125 Z M 56.886719 95.238281 C 56.867188 95.207031 56.789062 94.851562 56.820312 94.851562 C 56.96875 94.828125 57.03125 94.933594 57.113281 95.007812 C 57.152344 95.042969 57.207031 95.113281 57.144531 95.144531 C 57.066406 95.183594 57.03125 95.25 57.042969 95.335938 C 56.980469 95.339844 56.925781 95.300781 56.886719 95.238281 Z M 56.875 88.390625 L 56.871094 88.414062 C 56.84375 88.402344 56.847656 88.394531 56.875 88.390625 Z M 57.054688 87.859375 C 57.6875 86.8125 58.292969 85.734375 59.082031 84.792969 C 60.160156 83.507812 61.480469 82.425781 62.757812 81.351562 C 63.089844 81.070312 63.421875 80.792969 63.757812 80.519531 C 63.941406 80.363281 64.125 80.210938 64.3125 80.058594 C 64.375 80.007812 64.523438 79.832031 64.597656 79.820312 C 64.648438 79.8125 64.691406 79.824219 64.722656 79.859375 C 64.671875 80 64.5 80.0625 64.398438 80.167969 C 61.585938 83.089844 60.835938 83.078125 57.195312 88.082031 C 57.113281 88.199219 57.0625 88.359375 56.890625 88.375 C 56.847656 88.171875 56.960938 88.015625 57.054688 87.859375 Z M 66.449219 78.175781 C 67.066406 77.574219 67.792969 77.121094 68.488281 76.632812 C 68.621094 76.539062 68.800781 76.480469 68.664062 76.703125 C 68.601562 76.804688 68.410156 76.898438 68.316406 76.972656 C 68.125 77.121094 67.933594 77.265625 67.746094 77.417969 C 67.488281 77.613281 67.234375 77.808594 66.980469 78.007812 C 66.828125 78.128906 66.675781 78.253906 66.519531 78.371094 C 66.519531 78.371094 66.515625 78.371094 66.515625 78.371094 C 66.332031 78.511719 65.1875 79.734375 64.996094 79.5625 C 64.882812 79.460938 66.296875 78.324219 66.449219 78.175781 Z M 60.105469 92.542969 C 57.867188 91.21875 57.847656 91.605469 57.800781 91.285156 C 57.738281 90.871094 57.847656 89.867188 58 89.492188 C 58.046875 89.378906 58.140625 89.316406 58.242188 89.261719 C 60.550781 87.925781 60.058594 88.113281 60.796875 88.636719 C 61.328125 89.015625 61.75 89.503906 62.113281 90.042969 C 62.722656 90.9375 63.296875 91.855469 63.832031 92.800781 C 66.210938 97.003906 66.636719 96.398438 60.105469 92.542969 Z M 61.226562 88.34375 C 60.46875 87.851562 60.304688 88.011719 65.433594 86.070312 C 65.585938 86.011719 65.777344 85.9375 65.910156 86.082031 C 65.957031 86.132812 65.960938 86.25 66.015625 86.316406 C 66.082031 86.40625 66.199219 86.472656 66.289062 86.535156 C 66.878906 86.949219 67.425781 87.425781 68.027344 87.824219 C 71.351562 90.023438 78.992188 101.34375 85.382812 104.128906 C 86.480469 104.609375 82.445312 104.453125 78.46875 102.699219 C 76.046875 101.628906 74.585938 100.683594 74.167969 100.484375 C 73.054688 99.957031 70.988281 98.890625 69.132812 97.832031 C 67.914062 97.136719 66.601562 96.625 65.863281 95.34375 C 64.585938 93.117188 62.574219 89.21875 61.226562 88.34375 Z M 74.9375 73.378906 C 75.300781 73.199219 76.722656 72.875 77.796875 73.507812 C 78.757812 74.078125 79.339844 75.242188 79.152344 76.492188 C 78.765625 79.089844 77.238281 80.753906 75.570312 81.625 C 72.894531 83.019531 67.847656 84.71875 64.546875 85.871094 C 59.558594 87.605469 59.652344 88.152344 59.5625 87.589844 C 59.546875 87.503906 59.546875 87.4375 59.625 87.394531 C 62.832031 85.625 67.367188 84.023438 67.535156 83.792969 C 67.828125 83.398438 68.527344 83.363281 68.527344 83.066406 C 67.644531 83.230469 60.695312 86.363281 60.695312 86.363281 C 60.59375 86.179688 60.804688 86.148438 61.511719 85.585938 C 61.515625 85.582031 63.6875 83.847656 63.714844 83.800781 C 63.761719 83.714844 63.699219 83.664062 63.625 83.679688 C 63.429688 83.707031 63.277344 83.804688 63.117188 83.910156 C 62.546875 84.289062 62.007812 84.722656 61.460938 85.132812 C 61.214844 85.316406 60.972656 85.496094 60.730469 85.679688 C 60.585938 85.785156 60.445312 85.894531 60.300781 86 C 60.148438 86.109375 59.964844 86.148438 60.078125 85.949219 C 60.203125 85.726562 60.46875 85.515625 60.648438 85.328125 C 61.058594 84.90625 61.488281 84.503906 61.925781 84.105469 C 62.304688 83.757812 62.691406 83.417969 63.070312 83.066406 C 63.242188 82.910156 63.59375 82.671875 63.675781 82.441406 C 63.683594 82.421875 63.714844 82.382812 63.6875 82.363281 C 63.460938 82.179688 63.3125 82.390625 61.0625 84.304688 C 60.949219 84.402344 60.839844 84.507812 60.699219 84.558594 C 60.824219 84.460938 60.910156 84.175781 62.3125 82.894531 C 63.988281 81.363281 64.097656 81.121094 65.234375 80.183594 C 68.085938 77.84375 70.296875 75.679688 74.9375 73.378906 Z M 80.6875 70.960938 C 81.722656 70.734375 81.320312 70.625 84.410156 70.203125 C 85.449219 70.0625 85.277344 70.28125 87.808594 70.011719 C 89.296875 69.855469 90.488281 69.921875 92.652344 70.4375 C 93.191406 70.566406 93.675781 70.824219 94.15625 71.101562 C 94.933594 71.546875 95.496094 72.210938 96.03125 72.902344 C 96.441406 73.433594 96.566406 73.582031 96.582031 73.808594 C 96.464844 73.921875 96.421875 73.757812 96.160156 73.605469 C 92.632812 71.535156 93.347656 71.902344 92.125 71.542969 C 89.238281 70.703125 86.21875 70.800781 84.007812 70.773438 C 81.425781 70.746094 80.96875 71.222656 80.550781 71.0625 C 80.601562 71.023438 80.640625 70.96875 80.6875 70.960938 Z M 55.757812 83.667969 C 55.785156 83.636719 55.804688 83.597656 55.832031 83.589844 C 56.046875 83.542969 56.203125 83.683594 56.1875 83.902344 C 56.183594 83.972656 56.078125 84.039062 56.023438 84 C 55.921875 83.925781 55.75 83.792969 55.757812 83.667969 Z M 55.726562 90.777344 C 55.597656 91.03125 55.398438 91.234375 55.210938 91.441406 C 55.03125 91.640625 55.296875 91.613281 55.328125 91.746094 C 55.375 91.929688 54.914062 91.988281 55.136719 92.234375 C 55.175781 92.277344 55.144531 92.332031 55.132812 92.386719 C 55.117188 92.445312 55.082031 92.539062 55.140625 92.582031 C 55.199219 92.621094 55.28125 92.585938 55.335938 92.5625 C 55.367188 92.550781 55.457031 92.496094 55.476562 92.550781 C 55.503906 92.617188 55.417969 92.671875 55.382812 92.714844 C 55.328125 92.789062 55.265625 92.859375 55.191406 92.914062 C 55.144531 92.953125 55.011719 93.03125 55.058594 93.113281 C 55.199219 93.363281 55.007812 93.460938 54.859375 93.566406 C 54.707031 93.671875 54.703125 93.859375 54.59375 93.992188 C 54.3125 94.324219 54.148438 94.335938 53.859375 94.015625 C 53.425781 93.53125 54.046875 93.421875 53.597656 92.941406 C 53.546875 92.886719 53.460938 92.792969 53.480469 92.761719 C 53.613281 92.480469 53.445312 92.296875 53.308594 92.09375 C 53.246094 92 53.488281 91.902344 53.421875 91.75 C 53.363281 91.613281 53.195312 91.519531 53.21875 91.355469 C 53.242188 91.171875 53.484375 91.191406 53.265625 90.347656 C 53.203125 90.105469 53.234375 89.839844 53.101562 89.605469 C 53.011719 89.449219 53.335938 89.292969 53.207031 89.136719 C 52.820312 88.675781 53.453125 88.359375 53.320312 87.949219 C 53.160156 87.460938 52.957031 87.21875 53.523438 86.773438 C 53.628906 87.011719 53.589844 87.261719 53.742188 87.433594 C 53.90625 87.613281 53.890625 87.863281 54.003906 88.054688 C 54.179688 88.351562 54.078125 88.625 54.238281 88.914062 C 54.582031 89.542969 54.03125 89.570312 54.175781 89.804688 C 54.289062 89.988281 54.351562 90.179688 54.378906 90.390625 C 54.398438 90.550781 54.753906 90.394531 54.726562 90.210938 C 54.675781 89.863281 54.832031 89.539062 54.84375 89.214844 C 54.851562 88.894531 54.859375 88.574219 54.832031 88.257812 C 54.8125 88 54.746094 87.671875 54.898438 87.4375 C 55.039062 87.210938 55.273438 87.082031 54.957031 86.847656 C 55.136719 86.785156 55.242188 86.820312 55.347656 86.871094 C 55.761719 87.082031 54.964844 87.605469 55.460938 87.664062 C 55.710938 87.691406 55.570312 87.832031 55.296875 88.46875 C 55.167969 88.769531 55.71875 88.457031 55.585938 88.78125 C 55.359375 89.324219 55.203125 89.421875 55.449219 89.5 C 55.765625 89.605469 54.902344 90.242188 55.140625 90.398438 C 55.214844 90.449219 55.277344 90.324219 55.339844 90.429688 C 55.375 90.484375 55.332031 90.546875 55.316406 90.597656 C 55.273438 90.710938 55.144531 90.789062 55.101562 90.902344 C 55.085938 90.949219 55.085938 90.980469 55.132812 90.996094 C 55.261719 91.039062 55.242188 91.039062 55.703125 90.535156 C 55.847656 90.625 55.757812 90.714844 55.726562 90.777344 Z M 55.5 99.410156 C 55.320312 99.746094 55.484375 100.101562 55.433594 100.445312 C 55.320312 101.226562 54.269531 102.347656 54.75 102.316406 C 54.839844 102.308594 54.910156 102.230469 54.984375 102.199219 C 55.042969 102.347656 54.472656 102.90625 54.84375 102.921875 C 55.078125 102.933594 54.894531 103.171875 54.691406 103.445312 C 54.617188 103.546875 54.597656 103.632812 54.695312 103.742188 C 54.796875 103.859375 54.644531 103.9375 54.617188 104.039062 C 54.558594 104.261719 54.789062 104.195312 55.039062 104.164062 C 55.09375 104.292969 54.996094 104.367188 54.652344 104.796875 C 54.730469 105.027344 55.007812 104.785156 55.21875 104.90625 C 55.050781 105.117188 54.875 105.332031 54.710938 105.550781 C 54.632812 105.652344 54.695312 105.75 54.851562 105.734375 C 55.179688 105.707031 54.980469 105.996094 55.019531 106.140625 C 55.097656 106.449219 55.046875 106.75 54.921875 107.035156 C 54.789062 107.34375 54.726562 107.234375 54.507812 107.074219 C 54.285156 106.914062 54.226562 106.628906 54.015625 106.460938 C 53.953125 106.40625 54.03125 106.367188 54.066406 106.328125 C 54.316406 106.050781 53.773438 106.089844 53.644531 105.722656 C 53.605469 105.609375 53.925781 105.777344 53.9375 105.789062 C 54.015625 105.847656 54.09375 105.808594 54.117188 105.730469 C 54.140625 105.65625 53.976562 105.480469 53.941406 105.417969 C 53.902344 105.347656 53.816406 105.253906 53.863281 105.171875 C 54.054688 104.851562 53.53125 104.824219 53.652344 104.617188 C 53.699219 104.53125 53.777344 104.5625 53.851562 104.585938 C 53.878906 104.59375 53.917969 104.578125 53.960938 104.574219 C 53.980469 104.28125 53.609375 103.925781 53.839844 103.945312 C 53.9375 103.953125 54.042969 104.109375 54.132812 103.960938 C 54.246094 103.769531 53.890625 103.777344 53.335938 102.632812 C 53.570312 102.644531 53.605469 102.992188 53.871094 102.996094 C 54.027344 102.710938 53.386719 102.21875 53.5 101.980469 C 53.542969 101.882812 53.679688 102 53.800781 102.015625 C 53.96875 102.035156 53.886719 101.851562 53.785156 101.71875 C 53.671875 101.566406 53.542969 101.421875 53.605469 101.203125 C 53.632812 101.105469 53.550781 101.03125 53.507812 100.945312 C 53.039062 100.066406 52.976562 99.992188 53.164062 99.835938 C 53.355469 99.675781 52.925781 99.503906 52.839844 98.980469 C 52.816406 98.824219 52.839844 98.777344 53.042969 98.746094 C 53.15625 98.726562 53.253906 98.671875 53.214844 98.574219 C 53.128906 98.371094 53.222656 98.160156 53.136719 97.960938 C 53.078125 97.820312 53.121094 97.710938 53.25 97.617188 C 53.492188 97.4375 53.171875 97.289062 53.113281 96.960938 C 53.097656 96.859375 53.152344 96.808594 53.300781 96.832031 C 53.707031 96.886719 53.28125 96.183594 53.351562 95.84375 C 53.46875 95.269531 53.832031 95.808594 53.800781 95.894531 C 53.699219 96.183594 53.90625 96.429688 53.902344 96.710938 C 53.898438 96.96875 53.882812 97.238281 54.007812 97.488281 C 54.035156 97.550781 54.039062 97.648438 54.007812 97.710938 C 53.789062 98.15625 54.03125 98.546875 54.152344 98.949219 C 54.421875 99.867188 53.945312 99.839844 54.117188 100.082031 C 54.382812 100.453125 54.148438 100.800781 54.113281 101.175781 C 54.113281 101.207031 54.1875 101.34375 54.269531 101.261719 C 54.476562 101.058594 54.613281 100.808594 54.742188 100.554688 C 54.871094 100.304688 54.589844 99.851562 54.785156 99.554688 C 54.867188 99.429688 54.664062 99.488281 54.566406 98.375 C 54.554688 98.226562 54.558594 98.121094 54.65625 98.015625 C 54.914062 97.746094 54.296875 97.609375 54.75 96.972656 C 55.007812 96.605469 54.546875 96.675781 54.757812 96.238281 C 54.851562 96.039062 54.894531 95.84375 54.808594 95.632812 C 54.804688 95.621094 54.847656 95.585938 54.867188 95.5625 C 54.890625 95.585938 54.933594 95.601562 54.941406 95.628906 C 55.199219 96.347656 54.691406 96.777344 55.144531 96.953125 C 55.179688 96.964844 55.183594 97.089844 55.183594 97.160156 C 55.183594 97.253906 55.152344 97.367188 55.257812 97.410156 C 55.398438 97.472656 55.40625 97.578125 55.367188 97.6875 C 55.207031 98.144531 55.3125 98.617188 55.289062 99.078125 C 55.285156 99.160156 55.308594 99.234375 55.398438 99.246094 C 55.503906 99.261719 55.53125 99.355469 55.5 99.410156 Z M 55.222656 104.902344 L 55.21875 104.890625 C 55.222656 104.890625 55.226562 104.890625 55.230469 104.886719 C 55.226562 104.894531 55.226562 104.898438 55.222656 104.902344 Z M 52.78125 85.0625 C 52.800781 84.171875 53.882812 83.960938 53.628906 84.277344 C 53.5 84.4375 53.746094 84.5625 53.636719 84.695312 C 53.515625 84.84375 53.640625 84.929688 53.703125 85.042969 C 53.808594 85.234375 53.855469 85.417969 53.644531 85.59375 C 53.539062 85.6875 53.578125 85.777344 53.730469 85.839844 C 53.816406 85.875 53.917969 85.882812 53.976562 85.960938 C 54.140625 86.175781 53.824219 86.167969 53.480469 86.21875 C 53.160156 86.230469 53.03125 86.167969 52.964844 85.945312 C 52.878906 85.65625 52.773438 85.371094 52.78125 85.0625 Z M 52.433594 84.15625 C 52.394531 84.183594 52.289062 84.121094 52.304688 84.035156 C 52.355469 83.796875 52.492188 83.71875 52.855469 83.726562 C 52.769531 83.933594 52.585938 84.03125 52.433594 84.15625 Z M 54.671875 85.847656 C 54.929688 85.832031 55.089844 85.71875 55.011719 85.46875 C 55 85.4375 55.027344 85.394531 55.03125 85.359375 C 55.050781 85.257812 55.230469 85.191406 55.121094 85.074219 C 55.027344 84.96875 54.894531 85.085938 54.734375 84.996094 C 55.101562 84.613281 55.101562 84.632812 54.800781 84.515625 C 54.71875 84.480469 54.699219 84.386719 54.769531 84.335938 C 55.121094 84.078125 55.207031 83.996094 55.34375 84.125 C 55.4375 84.21875 55.542969 84.300781 55.574219 84.460938 C 55.359375 84.71875 55.132812 84.894531 55.453125 84.988281 C 55.503906 85.003906 55.554688 85.011719 55.605469 85.027344 C 55.613281 85.03125 55.617188 85.070312 55.609375 85.082031 C 55.4375 85.265625 55.648438 85.472656 55.5625 85.675781 C 55.304688 86.269531 55.289062 86.289062 54.632812 86.167969 C 54.320312 86.113281 54.246094 86.101562 54.246094 86.015625 C 54.246094 85.8125 54.609375 85.851562 54.671875 85.847656 Z M 47.804688 106.429688 C 48.476562 106.375 48.546875 102.714844 51.164062 97.039062 C 51.242188 96.875 51.308594 96.699219 51.496094 96.574219 C 51.492188 96.65625 51.503906 96.714844 51.488281 96.761719 C 50.46875 99.546875 47.695312 110.109375 47.695312 110.113281 C 46.738281 114.039062 46.597656 114.648438 44.300781 120.101562 C 43.234375 122.636719 42.59375 123.375 41.75 124.398438 C 40.65625 125.730469 39.867188 126.5 38.0625 127.027344 C 37.257812 127.261719 36.722656 127.0625 35.046875 126.667969 C 34.222656 126.472656 34.664062 126.238281 35.65625 124.824219 C 38.449219 120.851562 42.121094 110.023438 43.347656 107.058594 C 44.464844 104.363281 45.539062 100.367188 50.625 95.058594 C 50.769531 94.910156 50.902344 94.75 51.160156 94.695312 C 51.132812 94.984375 51.03125 95.226562 50.902344 95.453125 C 49.167969 98.464844 47.304688 104.1875 47.515625 104.160156 C 47.921875 104.113281 48.882812 99.65625 51.15625 95.523438 C 51.265625 95.324219 51.402344 95.136719 51.453125 94.910156 C 51.460938 94.871094 51.597656 94.773438 51.636719 94.949219 C 51.808594 95.71875 50.910156 95.816406 49.765625 99.230469 C 49.257812 100.746094 48.699219 102.246094 48.414062 103.832031 C 48.191406 105.050781 47.6875 106.203125 47.804688 106.429688 Z M 34.191406 126.144531 C 34.113281 126.261719 34.015625 126.28125 33.898438 126.257812 C 33.433594 126.167969 32.972656 126.074219 32.535156 125.871094 C 32.105469 125.675781 29.574219 124.292969 29.199219 124.035156 C 28.515625 123.554688 28.527344 123.53125 28.945312 123.148438 C 29.605469 122.546875 30.53125 120.703125 31.132812 119.824219 C 32.207031 118.265625 33.953125 114.507812 34.664062 112.742188 C 35.894531 109.679688 35.789062 109.683594 38.496094 105.507812 C 39.636719 103.746094 40.566406 104.195312 43.28125 101.828125 C 44.023438 101.179688 44.734375 100.492188 45.519531 99.894531 C 46.171875 99.402344 46.390625 99.015625 46.617188 99.035156 C 46.410156 100.25 45.574219 98.992188 41.019531 111.902344 C 40.960938 112.070312 37.21875 121.582031 35.511719 124.363281 C 35.121094 124.996094 34.609375 125.535156 34.191406 126.144531 Z M 28.261719 123.171875 C 27.640625 122.671875 27.019531 121.917969 26.734375 121.632812 C 26.042969 120.9375 25.496094 120.148438 25.15625 119.21875 C 24.949219 118.648438 24.636719 118.121094 24.359375 117.578125 C 24.082031 117.03125 24.089844 117 24.566406 116.648438 C 25.128906 116.230469 25.652344 115.753906 26.25 115.382812 C 27.308594 114.722656 27.246094 114.664062 28.039062 113.746094 C 28.691406 112.992188 28.644531 113.160156 28.964844 112.738281 C 30.28125 111.011719 30.925781 109.773438 31.441406 109.121094 C 31.804688 108.65625 32.140625 108.171875 32.472656 107.6875 C 33.042969 106.851562 33.578125 107.148438 35.175781 106.375 C 35.648438 106.148438 35.839844 106.238281 37.65625 105.382812 C 37.683594 105.371094 37.894531 105.285156 37.917969 105.328125 C 37.9375 105.355469 37.964844 105.402344 37.953125 105.421875 C 37.453125 106.300781 35.519531 109.15625 35.089844 110.34375 C 34.773438 111.21875 34.34375 112.046875 34.042969 112.933594 C 33.460938 114.667969 29.628906 122.183594 28.261719 123.171875 Z M 23.9375 116.488281 C 23.746094 116.390625 23.808594 116.207031 23.582031 115.417969 C 23.160156 113.953125 23.527344 114.148438 23.390625 113.277344 C 23.269531 112.496094 23.402344 111.71875 23.394531 110.9375 C 23.390625 110.296875 23.691406 109.726562 23.925781 109.144531 C 23.953125 109.074219 23.992188 108.996094 24.074219 108.984375 C 24.296875 108.949219 24.433594 108.792969 24.589844 108.65625 C 24.789062 108.480469 25.738281 108.238281 26.21875 108.207031 C 27.710938 108.105469 28.839844 108.300781 30.5 107.808594 C 30.847656 107.707031 31.195312 107.617188 31.546875 107.535156 C 31.6875 107.503906 31.835938 107.445312 32.019531 107.535156 C 31.609375 108.160156 30.964844 109.007812 30.8125 109.183594 C 30.292969 109.769531 28.308594 113.597656 25.773438 115.191406 C 25.050781 115.648438 25 115.976562 23.9375 116.488281 Z M 25.265625 107.035156 C 25.496094 106.746094 25.882812 106.683594 26.132812 106.414062 C 26.273438 106.261719 26.652344 106.503906 29.132812 105.570312 C 30.722656 104.972656 40.972656 97.757812 43.257812 96.550781 C 43.324219 96.515625 43.402344 96.503906 43.496094 96.582031 C 38.230469 100.242188 40.824219 98.457031 38.832031 99.855469 C 38.367188 100.183594 38.410156 100.472656 38.488281 100.476562 C 38.753906 100.496094 38.578125 100.164062 39.601562 99.628906 C 40.933594 98.925781 44.742188 95.9375 46.828125 95.226562 C 47.574219 94.972656 48.148438 94.570312 48.5 94.667969 C 47.976562 95.34375 46.804688 95.445312 44.484375 97.140625 C 44.429688 97.179688 44.265625 97.390625 44.308594 97.414062 C 44.414062 97.464844 44.375 97.472656 44.644531 97.292969 C 44.945312 97.09375 46.9375 95.796875 47.246094 95.992188 C 47.164062 96.160156 46.980469 96.207031 46.859375 96.320312 C 45.425781 97.640625 43.425781 98.855469 43.699219 98.996094 C 43.769531 99.03125 43.824219 98.921875 44.074219 98.769531 C 45.96875 97.644531 45.71875 97.792969 45.847656 97.792969 C 45.847656 98.011719 43.988281 99.597656 43.816406 99.75 C 42.707031 100.707031 41.492188 101.148438 40.847656 101.945312 C 40.804688 102 40.734375 102.070312 40.824219 102.132812 C 40.851562 102.152344 40.9375 102.128906 40.96875 102.09375 C 41.5625 101.5 41.761719 101.558594 42.832031 100.902344 C 43.125 100.722656 43.40625 100.527344 43.683594 100.320312 C 45.054688 99.296875 46.257812 98.058594 47.453125 96.835938 C 47.90625 96.367188 48.355469 95.894531 48.835938 95.449219 C 48.984375 95.3125 49.136719 95.167969 49.308594 95.058594 C 49.335938 95.039062 49.464844 94.941406 49.5 94.949219 C 49.605469 94.980469 49.410156 95.148438 49.367188 95.195312 C 49.292969 95.273438 49.214844 95.355469 49.140625 95.4375 C 49.003906 95.582031 48.867188 95.730469 48.726562 95.875 C 48.523438 96.097656 48.324219 96.316406 48.125 96.539062 C 47.707031 97.003906 47.304688 97.480469 46.855469 97.914062 C 45.859375 98.878906 44.800781 99.777344 43.757812 100.691406 C 43.183594 101.195312 42.226562 102.273438 39.335938 103.875 C 38.914062 104.109375 37.902344 104.765625 37.195312 105.054688 C 33.480469 106.582031 32.972656 106.738281 32.410156 106.839844 C 30.523438 107.175781 30.007812 107.714844 27.898438 107.679688 C 27.21875 107.667969 26.539062 107.742188 25.859375 107.753906 C 25.53125 107.761719 24.808594 108.1875 24.671875 108.007812 C 24.5625 107.863281 24.671875 107.785156 25.265625 107.035156 Z M 24.402344 105.652344 C 24.230469 105.761719 24.0625 105.765625 23.867188 105.675781 C 20.894531 104.359375 21.121094 102.699219 18.773438 101.148438 C 18.632812 101.054688 18.492188 100.957031 18.355469 100.855469 C 18.289062 100.804688 18.316406 100.703125 18.394531 100.671875 C 18.738281 100.523438 19.214844 100.609375 20.683594 99.25 C 24.480469 95.742188 27.550781 91.664062 29.742188 89.703125 C 30.289062 89.214844 30.902344 88.441406 31.671875 87.761719 C 34.734375 85.035156 34.8125 85.003906 35.171875 84.851562 C 35.398438 84.75 35.164062 84.492188 35.972656 84.632812 C 38.136719 85.011719 36.617188 84.554688 41.683594 85.90625 C 41.902344 85.964844 42.113281 86.054688 42.328125 86.132812 C 42.347656 86.144531 42.359375 86.191406 42.378906 86.234375 C 42.203125 86.433594 41.007812 87.21875 40.859375 87.316406 C 38.507812 88.839844 34.949219 93.835938 33.628906 95.488281 C 25.8125 105.261719 26.480469 104.34375 24.402344 105.652344 Z M 17.75 100.410156 C 17.273438 100.632812 15.378906 97.792969 14.972656 96.324219 C 14.585938 94.929688 13.78125 93.664062 13.792969 93.496094 C 14.09375 93.109375 14.203125 94.074219 18.386719 90.640625 C 19.148438 90.011719 19.574219 89.5625 20.710938 88.8125 C 21.078125 88.570312 20.492188 88.953125 22.71875 87.3125 C 24.644531 85.890625 24.554688 85.964844 25.164062 85.367188 C 25.816406 84.722656 26.601562 84.246094 27.324219 83.691406 C 27.574219 83.5 27.890625 83.484375 28.15625 83.339844 C 28.257812 83.285156 28.871094 83.492188 28.921875 83.511719 C 30.105469 83.921875 31.210938 84.023438 34.347656 84.457031 C 35.097656 84.558594 32.453125 85.726562 26.5 92.347656 C 22.535156 96.757812 25.375 93.78125 20.492188 98.75 C 20.046875 99.203125 19.542969 99.570312 19.019531 99.914062 C 18.632812 100.167969 18.164062 100.21875 17.75 100.410156 Z M 13.105469 92.691406 C 12.179688 90.992188 11.578125 89.511719 11.5625 87.445312 C 11.546875 85.359375 10.808594 84.933594 11.355469 84.882812 C 11.871094 84.835938 12.015625 85.113281 14.546875 84.429688 C 16.941406 83.78125 20.332031 82.0625 22.910156 80.753906 C 24.847656 79.773438 24.75 79.632812 24.902344 80.230469 C 25.484375 82.515625 27.777344 82.785156 27.316406 83.050781 C 26.722656 83.390625 26.207031 83.847656 25.652344 84.242188 C 24.808594 84.839844 24.6875 85.242188 23.800781 85.835938 C 23.558594 85.996094 21.394531 87.710938 20.023438 88.675781 C 17.46875 90.472656 15.757812 92.554688 13.65625 92.960938 C 13.410156 93.007812 13.238281 92.9375 13.105469 92.691406 Z M 10.785156 83.992188 C 10.5625 83.359375 10.410156 82.714844 10.332031 82.050781 C 10.3125 81.886719 10.363281 81.75 10.441406 81.617188 C 10.808594 80.996094 10.300781 80.949219 11.265625 79.714844 C 14.105469 76.066406 21.351562 75.972656 25.972656 76.214844 C 26 76.214844 26.027344 76.257812 26.082031 76.308594 C 25.699219 76.726562 24.925781 77.078125 24.777344 78.46875 C 24.722656 79 24.867188 79.21875 24.40625 79.453125 C 21.382812 80.988281 23.148438 80.21875 16.941406 83.089844 C 16.054688 83.5 14.566406 84.011719 12.875 84.339844 C 12.347656 84.445312 11.816406 84.410156 11.289062 84.367188 C 11.042969 84.347656 10.875 84.253906 10.785156 83.992188 Z M 10.742188 78.628906 C 11.085938 78.257812 11.601562 76.859375 13.976562 76.199219 C 15.910156 75.664062 15.390625 76.019531 17.214844 75.660156 C 18.371094 75.433594 22.972656 75.386719 23.445312 75.503906 C 22.453125 75.890625 13.425781 75.132812 10.453125 79.878906 C 10.433594 79.90625 10.398438 79.921875 10.300781 79.996094 C 10.289062 79.445312 10.390625 79.011719 10.742188 78.628906 Z M 28.492188 76.472656 C 32.117188 77.300781 29.503906 76.613281 33.808594 78.097656 C 35.742188 78.765625 36.519531 78.910156 37.421875 79.457031 C 37.796875 79.679688 38.046875 79.597656 38.492188 79.824219 C 42.363281 81.800781 43.445312 82.640625 43.691406 82.761719 C 44.199219 83.015625 44.675781 83.367188 45.136719 83.695312 C 45.964844 84.277344 46.773438 84.886719 47.550781 85.53125 C 47.875 85.800781 48.195312 86.074219 48.496094 86.371094 C 48.578125 86.449219 48.878906 86.683594 48.667969 86.742188 C 48.503906 86.785156 48.230469 86.472656 48.113281 86.390625 C 47.808594 86.164062 47.503906 85.933594 47.199219 85.707031 C 45.21875 84.234375 43.144531 82.898438 40.921875 81.824219 C 40.207031 81.480469 39.472656 81.179688 38.742188 80.859375 C 38.730469 80.855469 38.710938 80.875 38.6875 80.886719 C 39.035156 81.320312 39.222656 81.316406 41.542969 82.472656 C 42.058594 82.730469 42.570312 83.003906 43.058594 83.316406 C 43.15625 83.375 43.285156 83.4375 43.367188 83.515625 C 43.53125 83.675781 43.386719 83.699219 43.207031 83.628906 C 43.105469 83.589844 42.457031 83.304688 42.476562 83.519531 C 42.488281 83.65625 42.800781 83.707031 42.894531 83.746094 C 43.753906 84.109375 44.527344 84.628906 45.320312 85.105469 C 45.558594 85.25 45.917969 85.390625 46.109375 85.597656 C 46.304688 85.808594 46.082031 85.765625 45.921875 85.679688 C 45.792969 85.609375 45.660156 85.546875 45.527344 85.480469 C 45.292969 85.363281 45.058594 85.25 44.820312 85.140625 C 44.457031 84.972656 44.085938 84.808594 43.707031 84.691406 C 43.585938 84.65625 43.339844 84.550781 43.210938 84.601562 C 43.15625 84.621094 43.023438 84.710938 43.144531 84.769531 C 44.632812 85.511719 45.386719 85.699219 45.75 86.023438 C 45.921875 86.171875 49.710938 88.285156 49.75 88.691406 C 49.566406 88.800781 49.417969 88.695312 49.28125 88.597656 C 46.953125 86.921875 41.296875 84.976562 37.714844 84.335938 C 32.984375 83.484375 30.011719 83.835938 26.890625 82.042969 C 25.710938 81.367188 25.359375 80.554688 25.238281 79.53125 C 25.089844 78.265625 25.511719 77.101562 26.726562 76.722656 C 27.457031 76.492188 27.785156 76.3125 28.492188 76.472656 Z M 41.425781 96.445312 C 40.515625 97.542969 41.03125 97.253906 40.378906 97.703125 C 40.289062 97.761719 34.800781 101.453125 29.929688 104.511719 C 28.28125 105.546875 25.234375 106.164062 25.367188 105.679688 C 25.394531 105.570312 25.417969 105.589844 25.804688 105.34375 C 28.402344 103.683594 37.871094 90.039062 40.648438 88.109375 C 41.175781 87.742188 41.695312 87.359375 42.238281 87.011719 C 42.582031 86.792969 42.933594 86.464844 43.371094 86.511719 C 43.53125 86.53125 43.703125 86.609375 43.855469 86.660156 C 44.359375 86.832031 44.855469 87.019531 45.351562 87.214844 C 45.519531 87.28125 47.707031 88.238281 47.550781 88.371094 C 45.710938 89.96875 43.082031 94.460938 41.425781 96.445312 Z M 46.742188 94.800781 C 46.710938 94.925781 46.574219 94.914062 46.496094 94.976562 C 46.480469 94.988281 46.4375 94.964844 46.40625 94.960938 C 46.417969 94.933594 46.425781 94.894531 46.445312 94.878906 C 46.53125 94.808594 46.632812 94.785156 46.742188 94.800781 Z M 48.507812 94.125 C 48.125 94.285156 47.746094 94.445312 47.363281 94.609375 C 47.253906 94.65625 47.0625 94.777344 46.9375 94.773438 C 46.90625 94.773438 46.863281 94.757812 46.847656 94.730469 C 46.804688 94.65625 47.078125 94.5625 47.132812 94.535156 C 47.269531 94.46875 47.40625 94.402344 47.546875 94.335938 C 47.824219 94.210938 48.105469 94.09375 48.398438 94.003906 C 48.441406 93.992188 48.570312 93.964844 48.59375 94.023438 C 48.59375 94.023438 48.59375 94.03125 48.597656 94.03125 C 48.601562 94.070312 48.535156 94.113281 48.507812 94.125 Z M 49.460938 93.785156 C 49.347656 93.851562 49.230469 93.902344 49.109375 93.9375 C 49.035156 93.960938 48.796875 94.039062 48.75 93.953125 C 48.714844 93.882812 49.105469 93.75 49.148438 93.734375 C 49.230469 93.699219 49.332031 93.648438 49.421875 93.632812 C 49.527344 93.617188 49.550781 93.734375 49.460938 93.785156 Z M 43.050781 95.953125 C 42.621094 96.179688 42.417969 96.4375 42.273438 96.363281 C 42.128906 96.292969 42.503906 96.050781 42.941406 95.300781 C 43.492188 94.351562 44.433594 93.152344 44.4375 93.148438 C 45.101562 92.246094 45.101562 92.03125 45.671875 91.378906 C 46.074219 90.914062 46.40625 90.386719 46.804688 89.914062 C 47.054688 89.621094 47.347656 89.371094 47.605469 89.089844 C 47.777344 88.894531 47.972656 88.535156 48.289062 88.605469 C 48.558594 88.667969 48.933594 89.042969 49.179688 89.199219 C 49.601562 89.472656 50.046875 89.734375 50.4375 90.050781 C 50.847656 90.378906 50.890625 90.664062 50.964844 91.160156 C 50.972656 91.554688 50.964844 91.585938 50.683594 91.679688 C 47.917969 92.621094 45.332031 94.742188 43.050781 95.953125 Z M 37.253906 78.402344 C 38.347656 78.734375 39.367188 79.242188 40.421875 79.664062 C 42.222656 80.386719 45.21875 82.089844 47.613281 84.207031 C 50.863281 87.085938 51.335938 87.582031 51.546875 88.203125 C 51.574219 88.285156 51.644531 88.390625 51.535156 88.457031 C 50.589844 89.011719 51.15625 85.9375 39.425781 79.777344 C 38.585938 79.335938 36.980469 78.574219 35.507812 78.109375 C 33.269531 77.40625 34.558594 77.753906 32.675781 77.117188 C 34.722656 77.261719 35.734375 77.9375 37.253906 78.402344 Z M 97.371094 77.46875 C 97.367188 77.175781 97.523438 75.832031 97.398438 74.5 C 97.296875 73.386719 96.839844 73.125 96.148438 72.121094 C 95.695312 71.460938 95.109375 70.960938 94.414062 70.582031 C 94.015625 70.363281 93.648438 70.085938 93.207031 69.953125 C 92.402344 69.710938 91.582031 69.539062 90.746094 69.523438 C 89.722656 69.5 88.699219 69.476562 87.675781 69.546875 C 86.511719 69.625 85.03125 69.394531 82.75 69.914062 C 81.386719 70.222656 80 70.46875 78.683594 70.976562 C 77.921875 71.269531 77.117188 71.433594 76.375 71.785156 C 74.839844 72.511719 75.1875 72.140625 73.320312 73.15625 C 71.316406 74.242188 68.179688 75.992188 66.460938 77.519531 C 66.171875 77.777344 65.804688 77.90625 65.53125 78.164062 C 64.699219 78.945312 63.730469 79.566406 62.925781 80.375 C 62.648438 80.652344 59.921875 82.515625 59.242188 83.746094 C 59.101562 84 57.976562 85.230469 57.382812 86.40625 C 57.191406 86.777344 56.953125 87.125 56.726562 87.476562 C 56.671875 87.570312 56.617188 87.6875 56.457031 87.664062 C 56.054688 86.703125 55.957031 86.59375 56.101562 86.402344 C 56.710938 85.574219 56.09375 84.765625 56.6875 84.207031 C 56.816406 84.082031 56.871094 83.53125 56.496094 83.242188 C 55.96875 82.828125 55.617188 83.046875 55.320312 83.113281 C 55.207031 83.136719 55.125 83.078125 55.125 82.96875 C 55.128906 82.4375 55.050781 81.910156 55.117188 81.375 C 55.480469 78.371094 55.53125 77.152344 55.851562 76.175781 C 56.105469 75.40625 55.964844 75.328125 56.605469 72.425781 C 57.03125 70.488281 57.789062 68.554688 58.816406 66.859375 C 59.390625 65.910156 60.464844 64.171875 61.558594 63.765625 C 61.933594 63.628906 62.46875 63.921875 62.761719 63.738281 C 63.285156 63.410156 62.964844 62.707031 62.445312 62.605469 C 61.675781 62.453125 61.101562 63.546875 60.550781 63.945312 C 59.796875 64.484375 59.230469 65.207031 58.738281 65.984375 C 58.734375 65.988281 58.734375 65.992188 58.730469 65.996094 C 56.1875 69.980469 55.355469 75.230469 54.707031 79.996094 C 54.375 82.449219 54.765625 82.886719 54.535156 83.136719 C 53.441406 83.136719 54.046875 83.476562 53.277344 79.363281 C 53.148438 78.671875 52.949219 77.996094 52.855469 77.292969 C 52.386719 73.738281 51.90625 72.675781 51.660156 71.777344 C 50.265625 66.695312 48.824219 65.882812 47.765625 65 C 47.171875 64.503906 46.511719 64.148438 45.792969 63.878906 C 45.480469 63.761719 45.164062 63.753906 44.84375 63.757812 C 44.613281 63.761719 44.515625 63.875 44.488281 64.117188 C 44.464844 64.277344 44.484375 64.421875 44.605469 64.539062 C 44.804688 64.742188 45.351562 65.464844 45.832031 64.746094 C 45.984375 64.519531 45.984375 64.515625 46.226562 64.628906 C 46.980469 64.96875 47.609375 65.496094 48.214844 66.046875 C 49.136719 66.878906 49.71875 67.953125 50.214844 69.070312 C 51.070312 71 51.949219 74.589844 52.230469 76.671875 C 52.519531 78.800781 52.796875 78.585938 53.300781 83.253906 C 52.9375 83.289062 52.746094 82.867188 51.9375 83.445312 C 51.753906 83.578125 51.679688 83.769531 51.671875 83.988281 C 51.652344 84.71875 52.1875 84.535156 52.042969 85.246094 C 51.917969 85.875 52.304688 86.214844 52.691406 86.648438 C 52.375 86.996094 52.289062 87.460938 52.0625 87.847656 C 51.640625 87.65625 52.070312 87.566406 50.390625 86.058594 C 45.738281 81.882812 45.515625 81.863281 41.886719 79.796875 C 40.191406 78.832031 34.746094 76.957031 34.644531 76.929688 C 31.273438 76.042969 23.71875 74.84375 22.148438 74.894531 C 18.28125 75.023438 18.503906 74.945312 17.664062 75.0625 C 17.117188 75.136719 16.578125 75.230469 16.027344 75.261719 C 15.519531 75.292969 15.019531 75.457031 14.503906 75.4375 C 14.453125 75.4375 12.660156 75.917969 11.796875 76.589844 C 10.652344 77.480469 9.75 78.558594 9.75 80.207031 C 9.75 80.613281 9.8125 82.613281 9.929688 82.996094 C 10.769531 85.679688 11.101562 86.480469 11.09375 87.574219 C 11.082031 89.398438 11.507812 90.738281 12.136719 92.035156 C 13.277344 94.386719 13.515625 93.933594 13.863281 94.773438 C 14.707031 96.808594 14.425781 96.382812 14.585938 96.757812 C 15.253906 98.320312 16.355469 100.457031 17.859375 101.230469 C 19.710938 102.183594 19.925781 103.171875 21.558594 104.816406 C 23.078125 106.34375 24.605469 106.429688 24.78125 106.492188 C 25 106.566406 24.804688 106.773438 24.640625 106.992188 C 23.777344 108.128906 22.792969 109.871094 22.828125 111.226562 C 22.839844 111.761719 22.84375 112.300781 22.769531 112.824219 C 22.6875 113.429688 22.832031 114 22.871094 114.585938 C 23.289062 115.570312 23.324219 116.824219 23.496094 117.070312 C 23.707031 117.367188 23.828125 117.714844 24.019531 118.019531 C 24.332031 118.523438 24.546875 119.070312 24.753906 119.625 C 25.320312 121.160156 26.386719 121.929688 26.945312 122.652344 C 27.296875 123.101562 27.816406 123.394531 28.074219 123.925781 C 28.082031 123.941406 28.101562 123.957031 28.117188 123.964844 C 28.464844 124.089844 28.679688 124.410156 29.003906 124.574219 C 29.726562 124.949219 31.910156 126.238281 32.414062 126.390625 C 33.085938 126.59375 33.761719 126.78125 34.421875 127.019531 C 35.136719 127.28125 35.886719 127.414062 36.617188 127.609375 C 37.878906 127.953125 39.605469 127.171875 40.667969 126.332031 C 40.878906 126.167969 42.964844 124.214844 43.964844 122.003906 C 45.214844 119.242188 44.394531 121.339844 45.957031 117.335938 C 45.957031 117.335938 46.851562 115.199219 46.980469 114.5625 C 47.050781 114.226562 47.683594 112.449219 47.914062 111.265625 C 48.003906 110.804688 48.136719 110.347656 48.253906 109.894531 C 48.511719 108.902344 48.769531 107.914062 49.035156 106.925781 C 49.363281 105.699219 49.699219 104.46875 50.042969 103.242188 C 50.375 102.0625 50.710938 100.886719 51.074219 99.714844 C 51.332031 98.875 51.589844 98.027344 51.921875 97.210938 C 51.972656 97.089844 52.023438 96.96875 52.082031 96.851562 C 52.113281 96.792969 52.246094 96.503906 52.304688 96.652344 C 52.339844 96.742188 52.269531 96.867188 52.25 96.953125 C 51.390625 100.695312 51.902344 101.734375 51.984375 103.121094 C 52.097656 104.9375 52.402344 105.027344 52.6875 106.339844 C 52.808594 106.914062 53.21875 107.621094 53.589844 108.367188 C 53.992188 109.175781 54.757812 109.140625 55.074219 108.804688 C 55.480469 108.378906 55.859375 107.929688 56.023438 107.335938 C 56.210938 106.640625 56.433594 105.949219 56.496094 105.222656 C 56.671875 103.300781 56.832031 100 56.464844 98.625 C 56.234375 97.765625 56.113281 96.871094 55.761719 96.042969 C 55.707031 95.917969 55.742188 95.835938 55.765625 95.800781 C 56.167969 96.027344 58.171875 100.246094 59.75 104.988281 C 60.15625 106.214844 60.304688 106.558594 61.542969 109.679688 C 61.714844 110.109375 61.632812 110.003906 62.847656 112.28125 C 64.542969 115.445312 64.738281 116.003906 66.390625 117.984375 C 68.347656 120.332031 72.164062 123.777344 74.570312 124.703125 C 75.257812 124.96875 77.398438 125.402344 78.089844 125.253906 C 80.285156 124.777344 79.957031 124.8125 82.414062 122.441406 C 83.964844 120.945312 84.910156 119.238281 86.75 115.839844 C 87.40625 114.625 87.71875 112.867188 87.816406 111.425781 C 87.921875 109.785156 87.65625 108.667969 87.15625 106.988281 C 86.527344 104.867188 86.101562 105.21875 86.207031 104.863281 C 87.382812 104.464844 88.492188 103.929688 89.84375 102.199219 C 91.644531 99.894531 90.875 99.792969 93.25 96.277344 C 93.671875 95.65625 94.34375 93.824219 94.472656 93.40625 C 95.097656 91.390625 94.671875 92.617188 95.246094 89.902344 C 95.910156 86.761719 97.695312 86.320312 97.113281 80.363281 C 97.070312 79.925781 97.386719 78.980469 97.371094 77.46875 " fill-opacity="1" fill-rule="nonzero"/></g><path fill="#000000" d="M 43.152344 87.324219 C 43.292969 87.171875 43.164062 87.128906 43.042969 87.136719 C 43.007812 87.136719 42.976562 87.140625 42.949219 87.148438 C 42.746094 87.207031 42.546875 87.453125 42.347656 87.550781 C 41.847656 87.796875 41.164062 88.460938 40.953125 88.789062 C 40.8125 89.011719 40.785156 89.242188 40.878906 89.25 C 41.066406 89.261719 41.125 89.097656 41.210938 88.980469 C 42.007812 87.921875 42.789062 87.726562 43.152344 87.324219 " fill-opacity="1" fill-rule="nonzero"/><path fill="#000000" d="M 34.296875 93.097656 C 34.128906 93.269531 33.765625 93.746094 33.71875 94 C 33.691406 94.132812 33.871094 94.265625 33.964844 94.101562 C 34.433594 93.292969 35.109375 92.792969 35.378906 92.394531 C 36.3125 91.019531 38.511719 88.585938 40.234375 87.460938 C 40.363281 87.378906 40.46875 87.269531 40.582031 87.167969 C 40.65625 87.101562 40.617188 86.683594 39.9375 87.175781 C 36.792969 89.464844 35.203125 92.183594 34.296875 93.097656 " fill-opacity="1" fill-rule="nonzero"/><path fill="#000000" d="M 36.4375 89.238281 C 36.394531 89.304688 36.355469 89.445312 36.421875 89.492188 C 36.488281 89.542969 36.523438 89.5 37.167969 88.933594 C 38.769531 87.523438 40.132812 86.820312 40.347656 86.417969 C 40.363281 86.316406 40.234375 86.1875 40.167969 86.210938 C 40.039062 86.25 40.082031 86.199219 38.851562 87.09375 C 37.335938 88.191406 37.058594 88.351562 36.4375 89.238281 " fill-opacity="1" fill-rule="nonzero"/><path fill="#000000" d="M 27.460938 100.230469 C 27.503906 100.179688 27.574219 100.128906 27.535156 100.039062 C 27.328125 99.949219 26.183594 101.308594 25.523438 101.996094 C 24.066406 103.519531 23.6875 103.621094 23.15625 104.039062 C 22.976562 104.179688 23.175781 104.421875 23.339844 104.300781 C 25.027344 103.070312 25.257812 102.84375 27.460938 100.230469 " fill-opacity="1" fill-rule="nonzero"/><path fill="#000000" d="M 29.339844 99.867188 C 29.605469 99.710938 29.8125 99.492188 29.996094 99.246094 C 32.449219 95.996094 32.480469 96.039062 32.539062 95.707031 C 32.292969 95.238281 30.351562 98.539062 29.183594 99.597656 C 29.039062 99.726562 29.203125 99.949219 29.339844 99.867188 " fill-opacity="1" fill-rule="nonzero"/><path fill="#000000" d="M 21.925781 99.125 C 23.277344 97.820312 23.664062 97.570312 23.351562 97.5625 C 23.03125 97.554688 21.804688 98.828125 21.59375 99.066406 C 21.203125 99.507812 20.804688 99.9375 20.289062 100.242188 C 19.964844 100.433594 19.679688 100.695312 19.3125 100.820312 C 19.246094 100.84375 19.1875 100.921875 19.226562 101.003906 C 19.246094 101.046875 19.304688 101.074219 19.328125 101.09375 C 19.667969 101.152344 19.933594 100.765625 20.386719 100.542969 C 21.109375 100.191406 21.617188 99.425781 21.925781 99.125 " fill-opacity="1" fill-rule="nonzero"/><path fill="#000000" d="M 32.199219 88.386719 C 35.480469 85.65625 33.179688 87.660156 35.308594 85.640625 C 35.449219 85.503906 35.242188 85.324219 35.101562 85.410156 C 34.953125 85.5 32.300781 87.863281 31.648438 88.695312 C 31.59375 88.761719 31.527344 88.84375 31.601562 88.984375 C 31.617188 88.96875 32.183594 88.402344 32.199219 88.386719 " fill-opacity="1" fill-rule="nonzero"/><path fill="#000000" d="M 27.5625 101.546875 C 27.550781 101.53125 27.492188 101.53125 27.472656 101.546875 C 26.378906 102.402344 25.855469 103.539062 24.667969 104.1875 C 24.515625 104.269531 23.828125 104.667969 23.6875 104.855469 C 23.664062 104.886719 23.6875 104.964844 23.703125 105.011719 C 23.71875 105.050781 23.839844 105.089844 23.902344 105.054688 C 24.679688 104.617188 25.457031 104.1875 26.039062 103.476562 C 27.230469 102.023438 27.683594 101.710938 27.5625 101.546875 " fill-opacity="1" fill-rule="nonzero"/><path fill="#000000" d="M 25.691406 100.9375 C 25.800781 100.800781 25.652344 100.730469 25.546875 100.824219 C 24.460938 101.800781 25.203125 101.289062 23.265625 102.960938 C 22.375 103.730469 22.144531 103.597656 22.203125 103.890625 C 22.292969 104.324219 24.210938 102.761719 25.691406 100.9375 " fill-opacity="1" fill-rule="nonzero"/><path fill="#000000" d="M 24.59375 100.613281 C 24.355469 100.339844 23.464844 102.101562 21.945312 102.882812 C 21.796875 102.960938 21.628906 103.054688 21.695312 103.203125 C 21.726562 103.277344 21.8125 103.300781 21.886719 103.265625 C 22.183594 103.140625 22.46875 102.992188 22.714844 102.785156 C 23.625 102.003906 24.464844 100.914062 24.59375 100.613281 " fill-opacity="1" fill-rule="nonzero"/><path fill="#000000" d="M 34.410156 87.265625 C 34.6875 87.269531 35.234375 86.605469 36.261719 85.894531 C 36.421875 85.785156 36.308594 85.613281 36.125 85.609375 C 35.792969 85.597656 34.722656 86.683594 34.425781 86.980469 C 34.253906 87.148438 34.386719 87.234375 34.410156 87.265625 " fill-opacity="1" fill-rule="nonzero"/><path fill="#000000" d="M 23.476562 100.476562 C 23.515625 100.425781 23.40625 100.375 23.378906 100.386719 C 22.851562 100.621094 22.242188 101.945312 21.34375 102.316406 C 21.3125 102.328125 21.296875 102.375 21.277344 102.40625 C 21.242188 102.457031 21.304688 102.574219 21.4375 102.589844 C 22.113281 102.453125 22.910156 101.199219 23.476562 100.476562 " fill-opacity="1" fill-rule="nonzero"/><path fill="#000000" d="M 37.402344 86.933594 C 37.363281 86.972656 37.242188 87.140625 37.304688 87.230469 C 37.367188 87.316406 37.558594 87.234375 37.609375 87.199219 C 39.386719 85.898438 38.996094 86.289062 39.117188 86.058594 C 39.089844 85.96875 39.050781 85.898438 38.96875 85.890625 C 38.582031 85.851562 37.675781 86.648438 37.402344 86.933594 " fill-opacity="1" fill-rule="nonzero"/><path fill="#000000" d="M 35.988281 87.195312 C 36.167969 87.074219 36.367188 86.964844 36.535156 86.820312 C 36.851562 86.554688 37.140625 86.253906 37.523438 86.074219 C 37.730469 85.972656 37.613281 85.683594 37.355469 85.757812 C 36.882812 85.886719 35.917969 86.796875 35.90625 87.097656 C 35.90625 87.125 35.949219 87.148438 35.988281 87.195312 " fill-opacity="1" fill-rule="nonzero"/><path fill="#000000" d="M 21.703125 100.265625 C 21.722656 100.242188 21.714844 100.195312 21.71875 100.160156 C 21.699219 100.117188 21.664062 100.097656 21.625 100.121094 C 21.53125 100.183594 21.429688 100.234375 21.351562 100.3125 C 20.652344 101.007812 20.203125 101.132812 20.011719 101.34375 C 19.914062 101.457031 20.027344 101.648438 20.167969 101.574219 C 20.78125 101.257812 21.292969 100.820312 21.703125 100.265625 " fill-opacity="1" fill-rule="nonzero"/><path fill="#000000" d="M 22.082031 100.976562 C 22.097656 100.953125 22.085938 100.90625 22.085938 100.867188 C 22.058594 100.851562 22.011719 100.8125 21.996094 100.820312 C 21.914062 100.867188 21.828125 100.914062 21.769531 100.984375 C 21.199219 101.707031 20.785156 101.710938 20.695312 101.785156 C 20.558594 101.902344 20.699219 102.085938 20.808594 102.054688 C 21.386719 101.882812 21.757812 101.457031 22.082031 100.976562 " fill-opacity="1" fill-rule="nonzero"/><path fill="#000000" d="M 43.644531 119.257812 C 43.058594 120.582031 42.867188 120.496094 42.816406 120.875 C 42.8125 120.902344 42.875 120.945312 42.894531 120.925781 C 44.53125 119.53125 47.429688 109.292969 47.5625 108.5625 C 47.230469 107.246094 46.742188 112.296875 43.644531 119.257812 " fill-opacity="1" fill-rule="nonzero"/><g clip-path="url(#63da5374ba)"><path fill="#000000" d="M 41.628906 122.410156 C 41.597656 122.410156 41.542969 122.410156 41.535156 122.429688 C 40.402344 124.453125 41.039062 123.683594 39.257812 125.585938 C 38.847656 126.027344 38.792969 125.960938 38.621094 126.144531 C 38.550781 126.222656 38.695312 126.34375 38.742188 126.332031 C 39.121094 126.257812 39.335938 125.921875 40.070312 125.210938 C 41.136719 124.179688 41.828125 122.410156 41.628906 122.410156 " fill-opacity="1" fill-rule="nonzero"/></g><g clip-path="url(#a449d72f14)"><path fill="#000000" d="M 39.070312 124.5 C 38.792969 124.558594 38.257812 125.734375 37.382812 126.460938 C 37.332031 126.503906 37.324219 126.632812 37.339844 126.667969 C 37.375 126.730469 37.453125 126.773438 37.53125 126.753906 C 37.917969 126.636719 39.316406 124.820312 39.070312 124.5 " fill-opacity="1" fill-rule="nonzero"/></g><path fill="#000000" d="M 49.421875 97.570312 C 49.550781 97.332031 49.304688 97.246094 49.207031 97.445312 C 48.796875 98.253906 48.402344 99.308594 48.160156 100.191406 C 48.152344 100.214844 48.191406 100.246094 48.210938 100.273438 C 48.515625 100.132812 48.714844 98.9375 49.421875 97.570312 " fill-opacity="1" fill-rule="nonzero"/><g clip-path="url(#9bc3b31731)"><path fill="#000000" d="M 36.582031 124.917969 C 35.683594 126.046875 35.660156 126.105469 35.566406 126.34375 C 35.546875 126.382812 35.632812 126.550781 35.734375 126.496094 C 36.09375 126.3125 36.761719 125.265625 37.007812 124.609375 C 36.796875 124.675781 36.679688 124.789062 36.582031 124.917969 " fill-opacity="1" fill-rule="nonzero"/></g><g clip-path="url(#d024f02312)"><path fill="#000000" d="M 37.492188 125.410156 C 37.476562 125.394531 37.417969 125.390625 37.402344 125.40625 C 36.238281 126.5 36.472656 126.523438 36.570312 126.660156 C 36.621094 126.65625 36.667969 126.667969 36.691406 126.648438 C 36.976562 126.375 37.664062 125.589844 37.492188 125.410156 " fill-opacity="1" fill-rule="nonzero"/></g><path fill="#000000" d="M 47.632812 99.652344 C 47.878906 99.214844 48.050781 99.132812 47.96875 98.863281 C 47.964844 98.855469 47.9375 98.839844 47.929688 98.84375 C 47.660156 98.941406 47.648438 99.210938 47.550781 99.425781 C 47.53125 99.46875 47.546875 99.53125 47.546875 99.582031 L 47.632812 99.652344 " fill-opacity="1" fill-rule="nonzero"/><path fill="#000000" d="M 40.71875 109.492188 C 40.714844 109.511719 40.757812 109.542969 40.777344 109.566406 C 41.320312 109.289062 42.746094 105.316406 42.746094 105.316406 C 43.671875 103.046875 44.363281 102.417969 44.222656 102.152344 C 44.023438 101.78125 42.472656 105.152344 42.113281 106.253906 C 41.800781 107.210938 40.859375 109 40.71875 109.492188 " fill-opacity="1" fill-rule="nonzero"/><g clip-path="url(#d7a23c25e8)"><path fill="#000000" d="M 35.652344 122.242188 C 35.140625 122.859375 34.925781 124.058594 33.582031 125.371094 C 33.316406 125.628906 33.621094 125.832031 33.746094 125.746094 C 34.042969 125.542969 34.828125 124.546875 34.953125 124.261719 C 35.121094 123.871094 35.75 122.484375 35.652344 122.242188 " fill-opacity="1" fill-rule="nonzero"/></g><path fill="#000000" d="M 40.617188 107.761719 C 40.722656 107.582031 41.292969 106.5 41.484375 105.992188 C 41.753906 105.296875 42.125 104.660156 42.441406 103.992188 C 42.5 103.867188 42.671875 103.769531 42.570312 103.601562 C 42.472656 103.433594 42.175781 103.886719 42.09375 104.058594 C 40.253906 107.945312 40.367188 107.625 40.617188 107.761719 " fill-opacity="1" fill-rule="nonzero"/><g clip-path="url(#974bb3ff1d)"><path fill="#000000" d="M 33.972656 123.199219 C 33.796875 123.253906 33.746094 123.386719 33.667969 123.492188 C 33.617188 123.554688 32.691406 124.765625 32.636719 124.855469 C 32.53125 125.035156 32.785156 125.230469 32.90625 125.042969 C 34.054688 123.285156 33.996094 123.382812 33.972656 123.199219 " fill-opacity="1" fill-rule="nonzero"/></g><path fill="#000000" d="M 41.324219 104.496094 C 41.105469 104.292969 41.125 104.367188 40.351562 106 C 40.320312 106.066406 40.300781 106.140625 40.289062 106.214844 C 40.289062 106.242188 40.320312 106.277344 40.34375 106.300781 C 40.480469 106.445312 41.277344 104.746094 41.324219 104.496094 " fill-opacity="1" fill-rule="nonzero"/><path fill="#000000" d="M 32.722656 123.238281 C 32.691406 123.234375 32.640625 123.230469 32.625 123.25 C 31.839844 124.339844 31.878906 124.027344 31.835938 124.269531 C 31.824219 124.328125 31.925781 124.433594 31.976562 124.421875 C 32.367188 124.292969 32.859375 123.25 32.722656 123.238281 " fill-opacity="1" fill-rule="nonzero"/><path fill="#000000" d="M 30.296875 122.304688 C 30.246094 122.300781 30.101562 122.453125 30.058594 122.488281 C 29.945312 122.582031 29.832031 122.679688 29.734375 122.789062 C 29.648438 122.878906 29.480469 123.050781 29.492188 123.191406 C 29.5 123.316406 29.640625 123.429688 29.761719 123.335938 C 29.957031 123.175781 30.042969 122.949219 30.160156 122.734375 C 30.195312 122.667969 30.390625 122.460938 30.375 122.359375 C 30.371094 122.332031 30.347656 122.3125 30.296875 122.304688 " fill-opacity="1" fill-rule="nonzero"/><path fill="#000000" d="M 30.785156 124.003906 C 30.882812 123.917969 31 123.835938 31.054688 123.726562 C 31.191406 123.464844 31.367188 123.222656 31.378906 122.867188 C 30.628906 123.703125 30.609375 123.703125 30.578125 123.847656 C 30.5625 123.9375 30.6875 124.09375 30.785156 124.003906 " fill-opacity="1" fill-rule="nonzero"/><path fill="#000000" d="M 40.101562 104.691406 C 40.078125 104.671875 40.019531 104.664062 40 104.683594 C 39.738281 104.914062 39.582031 105.203125 39.550781 105.546875 L 39.65625 105.605469 C 40.15625 104.757812 40.183594 104.753906 40.101562 104.691406 " fill-opacity="1" fill-rule="nonzero"/><path fill="#000000" d="M 28.464844 89.789062 C 28.878906 89.496094 27.726562 90.363281 31.25 86.933594 C 32.171875 86.035156 32.1875 86.078125 33.210938 85.28125 C 33.476562 85.074219 33.25 84.867188 33.023438 84.988281 C 31.832031 85.609375 28.742188 88.890625 28.738281 88.898438 C 28.433594 89.269531 28.105469 89.617188 27.75 89.9375 C 27.527344 90.136719 27.355469 90.308594 27.207031 90.515625 C 27.097656 90.667969 27.003906 90.839844 26.917969 91.050781 C 26.996094 91.058594 27.0625 90.996094 27.117188 90.941406 C 27.542969 90.5 27.949219 90.117188 28.464844 89.789062 " fill-opacity="1" fill-rule="nonzero"/><path fill="#000000" d="M 23.410156 94.773438 C 23.46875 94.699219 23.53125 94.628906 23.503906 94.507812 C 22.890625 94.570312 20.953125 97.816406 18.019531 99.546875 C 17.652344 99.761719 17.878906 100 18.023438 99.9375 C 19.769531 99.199219 22.300781 96.183594 23.410156 94.773438 " fill-opacity="1" fill-rule="nonzero"/><path fill="#000000" d="M 19.886719 93.351562 C 19.917969 93.277344 20.140625 92.96875 20.21875 93.015625 C 20.410156 93.125 20.636719 93.171875 20.777344 93.359375 C 20.863281 93.480469 20.816406 93.667969 20.667969 93.738281 C 20.539062 93.800781 20.390625 93.824219 20.253906 93.863281 C 20.03125 93.878906 19.792969 93.558594 19.886719 93.351562 Z M 19.449219 94.070312 C 19.710938 94.09375 19.894531 94.378906 20.234375 94.296875 C 20.644531 94.351562 20.9375 94.101562 21.175781 93.753906 C 21.40625 93.421875 21.289062 92.855469 21 92.765625 C 20.378906 92.566406 19.953125 92.347656 19.40625 93.214844 C 19.242188 93.472656 19.335938 93.726562 19.378906 93.984375 C 19.386719 94.015625 19.421875 94.066406 19.449219 94.070312 " fill-opacity="1" fill-rule="nonzero"/><path fill="#000000" d="M 18.191406 92.003906 C 18.386719 91.835938 18.53125 91.605469 18.695312 91.410156 C 18.574219 91.082031 17.933594 91.847656 17.09375 92.480469 C 14.9375 94.105469 14.445312 93.90625 14.609375 94.289062 C 14.765625 94.640625 15.214844 94.132812 15.910156 93.769531 C 16.777344 93.3125 17.46875 92.636719 18.191406 92.003906 " fill-opacity="1" fill-rule="nonzero"/><path fill="#000000" d="M 20.628906 96.699219 C 20.703125 96.613281 20.785156 96.527344 20.785156 96.40625 C 20.773438 96.34375 20.75 96.261719 20.683594 96.316406 C 20.554688 96.425781 20.40625 96.519531 20.304688 96.652344 C 19.59375 97.539062 18.839844 98.042969 17.367188 99.226562 C 17.136719 99.414062 17.324219 99.683594 17.554688 99.53125 C 18.09375 99.175781 18.277344 98.96875 18.949219 98.460938 C 19.609375 97.96875 20.109375 97.324219 20.628906 96.699219 " fill-opacity="1" fill-rule="nonzero"/><path fill="#000000" d="M 19.542969 96.269531 C 19.265625 96.328125 18.609375 97.347656 17.148438 98.511719 C 17.03125 98.605469 16.867188 98.667969 16.921875 98.863281 C 17.074219 99.402344 20.15625 96.140625 19.542969 96.269531 " fill-opacity="1" fill-rule="nonzero"/><path fill="#000000" d="M 29.625 86.933594 C 29.53125 87.023438 29.453125 87.132812 29.375 87.238281 C 29.359375 87.257812 29.359375 87.460938 29.632812 87.230469 C 31.195312 85.902344 31.007812 86.15625 31.25 85.890625 C 32.007812 85.058594 31.859375 85.410156 32.046875 85.09375 C 31.941406 85 31.894531 84.902344 31.703125 85.003906 C 31.066406 85.335938 31.242188 85.441406 29.625 86.933594 " fill-opacity="1" fill-rule="nonzero"/><path fill="#000000" d="M 29.144531 86.296875 C 29.214844 86.375 29.328125 86.207031 29.714844 85.910156 C 30.945312 84.964844 31.015625 84.976562 30.988281 84.84375 C 30.972656 84.773438 30.925781 84.734375 30.867188 84.738281 C 30.480469 84.773438 28.960938 86.089844 29.144531 86.296875 " fill-opacity="1" fill-rule="nonzero"/><path fill="#000000" d="M 16.882812 93.660156 C 16.675781 93.660156 16.84375 93.546875 15.144531 94.773438 C 15.035156 94.851562 15.066406 95.085938 15.242188 95.089844 C 15.964844 94.667969 16.265625 94.296875 16.871094 93.835938 C 16.917969 93.800781 16.972656 93.660156 16.882812 93.660156 " fill-opacity="1" fill-rule="nonzero"/><path fill="#000000" d="M 16.78125 94.675781 C 16.667969 94.554688 16.796875 94.460938 15.53125 95.371094 C 15.394531 95.472656 15.578125 95.773438 15.753906 95.625 C 16.917969 94.648438 16.742188 94.792969 16.78125 94.675781 " fill-opacity="1" fill-rule="nonzero"/><path fill="#000000" d="M 17.320312 96.542969 C 17.261719 96.421875 17.195312 96.492188 16.09375 97.109375 C 15.921875 97.203125 15.980469 97.472656 16.105469 97.453125 C 16.328125 97.421875 17.414062 96.734375 17.320312 96.542969 " fill-opacity="1" fill-rule="nonzero"/><path fill="#000000" d="M 17.617188 97.429688 C 17.613281 97.410156 17.613281 97.386719 17.605469 97.378906 C 17.574219 97.367188 17.523438 97.34375 17.503906 97.355469 C 17.460938 97.386719 16.5625 97.980469 16.535156 98.035156 C 16.453125 98.203125 16.609375 98.328125 16.714844 98.257812 C 16.988281 98.074219 17.488281 97.734375 17.617188 97.429688 " fill-opacity="1" fill-rule="nonzero"/><path fill="#000000" d="M 16.703125 95.746094 C 16.691406 95.734375 16.667969 95.71875 16.65625 95.726562 C 16.339844 95.882812 16.019531 96.042969 15.707031 96.210938 C 15.644531 96.242188 15.660156 96.523438 15.847656 96.449219 C 16.417969 96.234375 16.816406 95.824219 16.703125 95.746094 " fill-opacity="1" fill-rule="nonzero"/><path fill="#000000" d="M 28.5 84.886719 C 28.667969 84.765625 28.832031 84.640625 28.996094 84.507812 C 29.15625 84.378906 29 84.222656 28.921875 84.238281 C 28.664062 84.296875 28.5 84.484375 28.328125 84.65625 C 27.996094 84.984375 28.203125 85.09375 28.5 84.886719 " fill-opacity="1" fill-rule="nonzero"/><path fill="#000000" d="M 28.976562 85.394531 C 29.832031 84.746094 29.972656 84.699219 29.828125 84.558594 C 29.761719 84.496094 29.6875 84.507812 29.625 84.554688 C 28.644531 85.265625 28.921875 85.4375 28.976562 85.394531 " fill-opacity="1" fill-rule="nonzero"/><path fill="#000000" d="M 27.523438 84.632812 C 27.703125 84.644531 28.097656 84.320312 28.261719 84.140625 C 28.363281 84.03125 28.171875 83.914062 28.097656 83.949219 C 27.839844 84.074219 27.269531 84.5 27.523438 84.632812 " fill-opacity="1" fill-rule="nonzero"/><path fill="#000000" d="M 29.925781 102.117188 C 29.996094 102.058594 30.058594 101.980469 30.0625 101.878906 C 30.03125 101.855469 30 101.820312 29.976562 101.820312 C 29.839844 101.835938 29.734375 101.90625 29.628906 101.992188 C 28.121094 103.234375 28.078125 103.945312 26.851562 104.90625 C 26.527344 105.160156 26.300781 105.269531 26.414062 105.421875 C 26.527344 105.574219 26.710938 105.488281 26.863281 105.371094 C 28.136719 104.367188 27.71875 104.558594 28.933594 103.210938 C 29.261719 102.847656 29.550781 102.445312 29.925781 102.117188 " fill-opacity="1" fill-rule="nonzero"/><path fill="#000000" d="M 31.429688 101.277344 C 31.328125 101.207031 30.75 101.675781 30.25 102.347656 C 29.84375 102.894531 29.445312 103.441406 28.925781 103.894531 C 28.640625 104.140625 28.425781 104.460938 28.117188 104.6875 C 27.945312 104.8125 28.046875 105.273438 28.738281 104.574219 C 29.101562 104.210938 29.761719 103.601562 29.902344 103.414062 C 31.648438 101.136719 31.441406 101.390625 31.429688 101.277344 " fill-opacity="1" fill-rule="nonzero"/><path fill="#000000" d="M 31.742188 101.988281 C 31.449219 102.105469 30.933594 102.742188 30.007812 103.820312 C 29.824219 104.027344 29.996094 104.308594 30.265625 103.992188 C 31.382812 102.675781 31.535156 102.496094 31.75 102.210938 C 31.871094 102.042969 31.753906 101.984375 31.742188 101.988281 " fill-opacity="1" fill-rule="nonzero"/><path fill="#000000" d="M 45.863281 88.414062 C 45.609375 88.417969 44.78125 89.222656 44.363281 90.195312 C 44.324219 90.289062 44.386719 90.378906 44.398438 90.40625 C 44.746094 90.335938 44.84375 89.648438 45.863281 88.714844 C 46.03125 88.5625 45.96875 88.414062 45.863281 88.414062 " fill-opacity="1" fill-rule="nonzero"/><path fill="#000000" d="M 43.730469 87.511719 C 43.578125 87.21875 42.308594 88.144531 42.238281 88.636719 C 42.222656 88.75 42.414062 88.773438 42.492188 88.6875 C 43.410156 87.660156 43.828125 87.691406 43.730469 87.511719 " fill-opacity="1" fill-rule="nonzero"/><path fill="#000000" d="M 44.320312 87.867188 C 44.296875 87.839844 44.28125 87.792969 44.253906 87.785156 C 44.203125 87.773438 44.132812 87.761719 44.097656 87.789062 C 43.234375 88.402344 43.40625 88.835938 43.570312 88.691406 C 43.828125 88.46875 44.089844 88.25 44.296875 87.972656 C 44.320312 87.949219 44.3125 87.902344 44.320312 87.867188 " fill-opacity="1" fill-rule="nonzero"/><path fill="#000000" d="M 44.917969 88.316406 C 44.945312 88.277344 44.847656 88.113281 44.742188 88.1875 C 44.492188 88.359375 44.308594 88.585938 44.214844 88.878906 C 44.207031 88.894531 44.246094 88.929688 44.265625 88.960938 C 44.425781 88.972656 44.820312 88.445312 44.917969 88.316406 " fill-opacity="1" fill-rule="nonzero"/><path fill="#000000" d="M 32.816406 101.886719 C 32.710938 101.835938 32.621094 101.921875 32.117188 102.375 C 32.089844 102.394531 32.085938 102.441406 32.078125 102.476562 C 32.0625 102.546875 32.117188 102.570312 32.183594 102.605469 C 32.21875 102.589844 32.28125 102.585938 32.316406 102.550781 C 32.78125 102.097656 32.941406 101.953125 32.816406 101.886719 " fill-opacity="1" fill-rule="nonzero"/><path fill="#000000" d="M 45.800781 89.285156 C 45.75 89.394531 45.910156 89.40625 45.933594 89.390625 C 46.535156 88.949219 46.429688 89.003906 46.460938 88.90625 C 46.390625 88.722656 46.003906 88.851562 45.800781 89.285156 " fill-opacity="1" fill-rule="nonzero"/><path fill="#000000" d="M 28.148438 77.300781 C 28.414062 77.410156 28.726562 77.300781 29.777344 77.765625 C 30.5625 78.113281 31.253906 77.960938 33.0625 78.648438 C 34.125 79.054688 35.210938 79.390625 36.242188 79.871094 C 36.289062 79.894531 36.351562 79.886719 36.484375 79.902344 C 36.105469 79.46875 36.042969 79.402344 35.695312 79.265625 C 30.355469 77.199219 30.933594 77.972656 29.695312 77.390625 C 29.304688 77.210938 28.546875 76.957031 28.164062 77.167969 C 28.136719 77.183594 28.097656 77.28125 28.148438 77.300781 " fill-opacity="1" fill-rule="nonzero"/><path fill="#000000" d="M 35.023438 83.0625 C 35.300781 83.179688 35.570312 83.238281 35.855469 83.273438 C 39.949219 83.789062 41.375 84.75 41.382812 84.335938 C 41.386719 84.164062 41.121094 84.082031 40.957031 84.03125 C 38.441406 83.3125 37.917969 83.097656 35.300781 82.914062 C 35.207031 82.910156 35.113281 82.90625 35.023438 83.0625 " fill-opacity="1" fill-rule="nonzero"/><path fill="#000000" d="M 39.007812 82.542969 C 38.671875 82.324219 38.273438 82.265625 37.902344 82.136719 C 37.757812 82.085938 37.613281 82.058594 37.390625 82.132812 C 37.828125 82.332031 38.199219 82.503906 38.574219 82.671875 C 39.042969 82.882812 39.132812 82.625 39.007812 82.542969 " fill-opacity="1" fill-rule="nonzero"/><path fill="#000000" d="M 31.011719 82.445312 C 30.933594 82.453125 30.878906 82.460938 30.828125 82.472656 C 30.707031 82.492188 30.808594 82.625 30.835938 82.628906 C 31.136719 82.695312 31.710938 82.851562 31.644531 82.648438 C 31.601562 82.511719 31.488281 82.519531 31.011719 82.445312 " fill-opacity="1" fill-rule="nonzero"/><path fill="#000000" d="M 16.195312 86.488281 C 16.121094 86.277344 16.472656 86.308594 16.609375 86.113281 C 16.746094 85.921875 16.886719 85.929688 17.082031 86 C 17.472656 86.148438 17.199219 86.25 17.277344 86.421875 C 17.335938 86.554688 17.429688 86.6875 17.308594 86.835938 C 17.175781 87.003906 16.910156 87.140625 16.730469 87.132812 C 16.511719 87.128906 16.347656 86.996094 16.171875 86.898438 C 16.023438 86.820312 16.261719 86.664062 16.195312 86.488281 Z M 16.628906 87.566406 C 17.355469 87.402344 17.683594 87.25 17.890625 86.523438 C 17.949219 86.324219 17.914062 86.105469 17.835938 85.910156 C 17.769531 85.734375 17.59375 85.691406 17.425781 85.640625 C 17.335938 85.617188 17.257812 85.558594 17.171875 85.523438 C 16.800781 85.367188 16.238281 85.496094 15.996094 85.828125 C 15.671875 86.277344 15.503906 86.175781 15.507812 86.546875 C 15.546875 86.785156 15.511719 87.046875 15.714844 87.234375 C 15.972656 87.476562 16.257812 87.648438 16.628906 87.566406 " fill-opacity="1" fill-rule="nonzero"/><path fill="#000000" d="M 13.820312 92.144531 C 14.738281 91.738281 16.332031 90.996094 17.101562 90.347656 C 17.691406 89.851562 18.3125 89.386719 18.789062 88.757812 C 17.273438 89.625 16.035156 90.933594 13.695312 91.828125 C 13.363281 91.953125 13.449219 92.308594 13.820312 92.144531 " fill-opacity="1" fill-rule="nonzero"/><path fill="#000000" d="M 14.285156 88.21875 C 13 88.757812 13.121094 88.558594 12.320312 88.738281 C 12.097656 88.785156 12.082031 89.113281 12.335938 89.105469 C 13.769531 89.0625 14.113281 88.6875 14.949219 88.089844 C 14.75 88.070312 14.78125 88.011719 14.285156 88.21875 " fill-opacity="1" fill-rule="nonzero"/><path fill="#000000" d="M 24.238281 84.550781 C 24.289062 84.625 24.523438 84.621094 24.875 84.308594 C 26.339844 82.992188 26.203125 83.4375 26.476562 83.074219 C 26.433594 83.027344 26.402344 82.976562 26.359375 82.949219 C 26 82.746094 24.121094 84.371094 24.238281 84.550781 " fill-opacity="1" fill-rule="nonzero"/><path fill="#000000" d="M 14.058594 85.300781 C 14.074219 85.269531 14.070312 85.164062 14.011719 85.164062 C 13.898438 85.164062 13.78125 85.152344 13.675781 85.175781 C 12.410156 85.46875 11.699219 85.253906 11.707031 85.609375 C 11.714844 85.875 12.054688 85.78125 12.398438 85.765625 C 12.8125 85.746094 13.847656 85.628906 14.058594 85.300781 " fill-opacity="1" fill-rule="nonzero"/><path fill="#000000" d="M 15.339844 90.140625 C 15.265625 90.078125 15.195312 90.113281 15.125 90.136719 C 14.660156 90.316406 13.398438 90.921875 13.039062 91.273438 C 12.988281 91.324219 13.007812 91.539062 13.175781 91.449219 C 15.324219 90.269531 15.277344 90.316406 15.339844 90.140625 " fill-opacity="1" fill-rule="nonzero"/><path fill="#000000" d="M 14.214844 89.128906 C 14.144531 89.082031 14.066406 89.089844 13.996094 89.117188 C 12.742188 89.570312 12.707031 89.582031 12.519531 89.707031 C 12.359375 89.820312 12.441406 90.105469 12.664062 90.003906 C 14.136719 89.296875 14.199219 89.292969 14.214844 89.128906 " fill-opacity="1" fill-rule="nonzero"/><path fill="#000000" d="M 12.691406 87.316406 C 13.089844 87.351562 13.898438 86.738281 12.207031 86.945312 C 12.128906 86.953125 12.042969 87.105469 12.074219 87.167969 C 12.171875 87.378906 12.273438 87.285156 12.691406 87.316406 " fill-opacity="1" fill-rule="nonzero"/><path fill="#000000" d="M 14.480469 89.792969 C 14.460938 89.769531 14.40625 89.75 14.382812 89.757812 C 12.804688 90.429688 12.90625 90.382812 12.875 90.480469 C 12.832031 90.609375 12.902344 90.609375 12.96875 90.652344 C 13.152344 90.582031 14.597656 89.953125 14.480469 89.792969 " fill-opacity="1" fill-rule="nonzero"/><path fill="#000000" d="M 24.5625 83.355469 C 24.597656 83.492188 25.300781 83.089844 25.667969 82.796875 C 25.808594 82.6875 25.65625 82.503906 25.539062 82.554688 C 25.175781 82.714844 24.855469 82.9375 24.570312 83.207031 C 24.542969 83.230469 24.550781 83.308594 24.5625 83.355469 " fill-opacity="1" fill-rule="nonzero"/><path fill="#000000" d="M 13.203125 86.296875 C 13.226562 86.28125 13.238281 86.238281 13.242188 86.207031 C 13.261719 86.121094 13.183594 86.128906 13.011719 86.105469 C 12.082031 86.226562 12.011719 86.195312 12.015625 86.394531 C 12.023438 86.765625 12.882812 86.515625 13.203125 86.296875 " fill-opacity="1" fill-rule="nonzero"/><path fill="#000000" d="M 13.421875 87.878906 C 13.433594 87.875 13.429688 87.796875 13.414062 87.789062 C 13.285156 87.714844 13.347656 87.722656 12.296875 87.847656 C 12.25 87.851562 12.019531 88.019531 12.289062 88.167969 C 12.320312 88.183594 12.363281 88.179688 12.339844 88.175781 C 12.773438 88.195312 13.097656 88.03125 13.421875 87.878906 " fill-opacity="1" fill-rule="nonzero"/><path fill="#000000" d="M 24.394531 82.230469 C 24.359375 82.285156 24.421875 82.308594 24.476562 82.351562 C 24.691406 82.289062 24.90625 82.21875 25.066406 82.046875 C 25.09375 82.015625 25.101562 81.929688 25.082031 81.898438 C 24.953125 81.726562 24.539062 82.011719 24.394531 82.230469 " fill-opacity="1" fill-rule="nonzero"/><path fill="#000000" d="M 24.160156 81.375 C 24.320312 81.335938 24.480469 81.300781 24.601562 81.183594 C 24.621094 81.160156 24.617188 81.117188 24.621094 81.089844 C 24.546875 80.851562 24.207031 81.035156 24.109375 81.300781 C 24.105469 81.320312 24.152344 81.378906 24.160156 81.375 " fill-opacity="1" fill-rule="nonzero"/><path fill="#000000" d="M 29.269531 120.207031 C 28.289062 121.808594 28.222656 121.890625 28.148438 122.046875 C 28.078125 122.203125 28.292969 122.359375 28.417969 122.21875 C 28.9375 121.640625 30.234375 119.347656 30.527344 118 C 30.242188 117.539062 30.324219 118.476562 29.269531 120.207031 " fill-opacity="1" fill-rule="nonzero"/><path fill="#000000" d="M 28.882812 119.125 C 28.542969 119.496094 27.746094 120.980469 27.527344 121.367188 C 27.496094 121.429688 27.488281 121.511719 27.492188 121.585938 C 27.492188 121.632812 27.542969 121.675781 27.566406 121.714844 C 27.640625 121.710938 27.699219 121.757812 27.824219 121.527344 C 28.976562 119.414062 28.953125 119.449219 29.046875 119.210938 C 29.082031 119.128906 28.972656 119.027344 28.882812 119.125 " fill-opacity="1" fill-rule="nonzero"/><path fill="#000000" d="M 34.9375 108.902344 C 35.226562 108.527344 35.476562 108.125 35.675781 107.695312 C 36.050781 106.886719 36.324219 106.933594 36.214844 106.675781 C 36.132812 106.492188 35.777344 106.929688 35.664062 107.136719 C 34.621094 109.082031 34.824219 108.699219 34.699219 109.046875 C 34.867188 109.042969 34.894531 108.960938 34.9375 108.902344 " fill-opacity="1" fill-rule="nonzero"/><path fill="#000000" d="M 28.011719 119.246094 C 27.980469 119.238281 27.933594 119.257812 27.910156 119.285156 C 26.921875 120.578125 26.949219 120.542969 26.941406 120.605469 C 26.921875 120.785156 27.105469 120.921875 27.214844 120.773438 C 28.0625 119.652344 27.863281 119.882812 28.082031 119.351562 C 28.046875 119.296875 28.03125 119.246094 28.011719 119.246094 " fill-opacity="1" fill-rule="nonzero"/><path fill="#000000" d="M 27.3125 118.53125 C 26.375 119.390625 26.414062 119.339844 26.363281 119.457031 C 26.300781 119.609375 26.441406 119.789062 26.597656 119.679688 C 26.949219 119.433594 27.15625 119.078125 27.335938 118.703125 C 27.359375 118.652344 27.371094 118.59375 27.3125 118.53125 " fill-opacity="1" fill-rule="nonzero"/><path fill="#000000" d="M 26.628906 117.71875 C 26.597656 117.707031 26.546875 117.679688 26.53125 117.691406 C 26.238281 117.894531 25.976562 118.128906 25.726562 118.386719 C 25.546875 118.578125 25.875 119.109375 26.652344 117.769531 C 26.644531 117.746094 26.640625 117.722656 26.628906 117.71875 " fill-opacity="1" fill-rule="nonzero"/><path fill="#000000" d="M 34.183594 108.5 C 34.214844 108.492188 34.261719 108.488281 34.28125 108.460938 C 34.472656 108.210938 35.03125 107.429688 35.066406 107.113281 C 35.070312 107.09375 35.070312 107.085938 35.070312 107.082031 C 35.070312 107.089844 35.058594 107.101562 35.027344 107.074219 C 34.980469 107.03125 34.882812 107.058594 34.84375 107.132812 C 34.042969 108.570312 34.136719 108.402344 34.144531 108.460938 C 34.15625 108.472656 34.171875 108.503906 34.183594 108.5 " fill-opacity="1" fill-rule="nonzero"/><path fill="#000000" d="M 25.882812 116.714844 C 25.78125 116.632812 25.335938 116.914062 25.175781 117.09375 C 24.914062 117.382812 25.195312 117.585938 25.304688 117.472656 C 25.894531 116.855469 25.980469 116.792969 25.882812 116.714844 " fill-opacity="1" fill-rule="nonzero"/><path fill="#000000" d="M 33.65625 107.625 C 33.40625 107.554688 33.238281 108.019531 33.21875 108.300781 C 33.464844 108.117188 33.847656 107.675781 33.65625 107.625 " fill-opacity="1" fill-rule="nonzero"/><path fill="#000000" d="M 36.890625 101.746094 C 36.910156 101.738281 37.027344 101.644531 36.972656 101.5625 C 36.878906 101.417969 36.515625 101.601562 36.445312 101.632812 C 35.445312 102.042969 34.558594 103.074219 32.0625 104.375 C 31.707031 104.558594 31.367188 104.765625 31.027344 104.972656 C 30.855469 105.082031 30.667969 105.175781 30.621094 105.421875 C 31.285156 105.054688 31.933594 104.660156 32.613281 104.328125 C 34.109375 103.589844 35.898438 102.128906 36.890625 101.746094 " fill-opacity="1" fill-rule="nonzero"/><path fill="#000000" d="M 26.109375 107.34375 C 26.648438 107.1875 28.152344 107.414062 29.804688 106.921875 C 29.976562 106.871094 30.1875 106.871094 30.277344 106.660156 C 30.109375 106.476562 30.003906 106.644531 29.667969 106.699219 C 27.203125 107.121094 25.898438 106.871094 25.945312 107.242188 C 25.957031 107.34375 26.046875 107.363281 26.109375 107.34375 " fill-opacity="1" fill-rule="nonzero"/><path fill="#000000" d="M 27.625 106.652344 C 27.882812 106.652344 28.132812 106.582031 28.378906 106.507812 C 28.398438 106.5 28.421875 106.445312 28.414062 106.414062 C 28.402344 106.332031 28.261719 106.34375 28.125 106.335938 C 27.9375 106.355469 27.746094 106.316406 27.585938 106.445312 C 27.539062 106.484375 27.515625 106.652344 27.625 106.652344 " fill-opacity="1" fill-rule="nonzero"/><path fill="#000000" d="M 14.796875 79.421875 C 14.867188 79.257812 14.980469 79.09375 15.148438 78.996094 C 15.28125 78.914062 15.628906 78.984375 15.769531 79.121094 C 15.988281 79.332031 15.800781 79.945312 15.285156 79.9375 C 15.125 79.9375 15.09375 79.875 15.039062 79.757812 C 14.976562 79.628906 14.726562 79.605469 14.796875 79.421875 Z M 15.085938 80.578125 C 15.25 80.625 15.730469 80.414062 15.835938 80.359375 C 16.390625 80.066406 16.1875 79.957031 16.480469 79.605469 C 16.679688 79.363281 16.582031 79.101562 16.546875 78.84375 C 16.539062 78.796875 16.488281 78.742188 16.441406 78.71875 C 15.785156 78.421875 16.320312 78.628906 15.414062 78.460938 C 15.007812 78.386719 14.445312 78.449219 14.277344 78.859375 C 14.070312 79.367188 14 78.976562 13.925781 79.664062 C 13.929688 79.792969 13.941406 79.8125 14.007812 79.925781 C 14.25 80.34375 14.671875 80.457031 15.085938 80.578125 " fill-opacity="1" fill-rule="nonzero"/><path fill="#000000" d="M 17.339844 82.40625 C 17.714844 82.265625 18.078125 82.113281 18.425781 81.914062 C 19.398438 81.355469 19.058594 81.636719 20.085938 81.039062 C 22.207031 79.808594 23.101562 79.757812 23.222656 79.300781 C 22.953125 79.171875 21.6875 79.816406 20.667969 80.285156 C 20 80.589844 20.105469 80.703125 19.152344 81.179688 C 17.316406 82.09375 17.058594 82.207031 17.1875 82.367188 C 17.214844 82.402344 17.296875 82.421875 17.339844 82.40625 " fill-opacity="1" fill-rule="nonzero"/><path fill="#000000" d="M 11.914062 84.046875 C 13.214844 84.054688 13.453125 83.726562 14.101562 83.613281 C 14.476562 83.542969 14.816406 83.367188 15.175781 83.253906 C 15.402344 83.179688 15.570312 82.972656 15.519531 82.859375 C 15.386719 82.570312 13.542969 83.601562 11.9375 83.683594 C 11.464844 83.707031 11.242188 83.710938 11.25 83.910156 C 11.261719 84.160156 11.597656 84.070312 11.914062 84.046875 " fill-opacity="1" fill-rule="nonzero"/><path fill="#000000" d="M 13.898438 82.597656 C 14.082031 82.519531 14.238281 82.367188 14.402344 82.242188 C 14.464844 82.199219 14.523438 82.136719 14.476562 82.058594 C 14.34375 81.847656 12.808594 82.859375 11.304688 82.9375 C 10.949219 82.957031 10.6875 84 13.898438 82.597656 " fill-opacity="1" fill-rule="nonzero"/><path fill="#000000" d="M 11.578125 80.484375 C 12.65625 79.535156 12.613281 79.578125 12.902344 79.257812 C 12.921875 79.238281 12.90625 79.128906 12.847656 79.136719 C 12.238281 79.242188 11.289062 80.183594 11.242188 80.457031 C 11.226562 80.539062 11.34375 80.691406 11.578125 80.484375 " fill-opacity="1" fill-rule="nonzero"/><path fill="#000000" d="M 12.269531 81.992188 C 12.332031 81.941406 12.367188 81.863281 12.324219 81.796875 C 12.179688 81.578125 11.234375 82.191406 11.03125 82.367188 C 10.863281 82.515625 11.015625 82.644531 11.03125 82.664062 C 11.347656 82.574219 11.535156 82.351562 12.039062 82.15625 C 12.125 82.125 12.195312 82.050781 12.269531 81.992188 " fill-opacity="1" fill-rule="nonzero"/><path fill="#000000" d="M 17.398438 77.640625 C 17.597656 77.597656 18.359375 77.46875 18.410156 77.269531 C 18.453125 77.039062 17.4375 77.199219 17.320312 77.476562 C 17.261719 77.617188 17.378906 77.644531 17.398438 77.640625 " fill-opacity="1" fill-rule="nonzero"/><path fill="#000000" d="M 10.648438 81.960938 C 10.640625 82.019531 10.667969 82.066406 10.726562 82.089844 C 10.761719 82.085938 10.808594 82.097656 10.832031 82.078125 C 12.046875 81.089844 10.761719 81.003906 10.648438 81.960938 " fill-opacity="1" fill-rule="nonzero"/><path fill="#000000" d="M 26.621094 113.273438 C 26.402344 113.390625 25.710938 114.140625 25.566406 114.300781 C 24.628906 115.328125 23.972656 115.160156 24.03125 115.535156 C 24.035156 115.558594 24.085938 115.578125 24.113281 115.59375 C 24.925781 115.59375 26.039062 114.210938 26.578125 113.585938 C 26.800781 113.328125 26.625 113.269531 26.621094 113.273438 " fill-opacity="1" fill-rule="nonzero"/><path fill="#000000" d="M 24.207031 114.816406 C 24.675781 114.4375 25.105469 114.023438 25.410156 113.492188 C 25.417969 113.480469 25.410156 113.457031 25.398438 113.351562 C 23.984375 114.589844 24.089844 114.476562 24.015625 114.644531 C 23.957031 114.78125 24.140625 114.871094 24.207031 114.816406 " fill-opacity="1" fill-rule="nonzero"/><path fill="#000000" d="M 24.128906 113.464844 C 25.578125 112.3125 25.070312 112.382812 25.042969 112.40625 C 24.183594 113.15625 23.898438 113.152344 23.894531 113.285156 C 23.886719 113.5 24.050781 113.523438 24.128906 113.464844 " fill-opacity="1" fill-rule="nonzero"/><path fill="#000000" d="M 24.683594 111.617188 C 24.671875 111.609375 24.644531 111.601562 24.636719 111.609375 C 23.90625 112.148438 23.574219 112.09375 23.667969 112.355469 C 23.765625 112.621094 24.863281 111.726562 24.683594 111.617188 " fill-opacity="1" fill-rule="nonzero"/><path fill="#000000" d="M 24.507812 110.886719 C 24.476562 110.804688 24.429688 110.828125 23.832031 111.214844 C 23.671875 111.316406 23.769531 111.445312 23.785156 111.496094 C 23.984375 111.496094 24.589844 111.125 24.507812 110.886719 " fill-opacity="1" fill-rule="nonzero"/><path fill="#000000" d="M 29.484375 109.292969 C 29.503906 109.3125 29.558594 109.332031 29.578125 109.316406 C 30.332031 108.792969 30.363281 108.789062 30.316406 108.644531 C 30.25 108.449219 29.628906 109.066406 29.492188 109.199219 C 29.476562 109.21875 29.472656 109.273438 29.484375 109.292969 " fill-opacity="1" fill-rule="nonzero"/><path fill="#000000" d="M 24.519531 110.148438 C 24.28125 110.113281 24.121094 110.21875 23.984375 110.378906 C 23.964844 110.398438 23.964844 110.453125 23.980469 110.480469 C 24.058594 110.667969 24.445312 110.386719 24.519531 110.148438 " fill-opacity="1" fill-rule="nonzero"/><path fill="#000000" d="M 29.457031 108.683594 C 29.605469 108.652344 29.765625 108.574219 29.742188 108.425781 C 29.617188 108.316406 29.414062 108.460938 29.398438 108.617188 C 29.394531 108.640625 29.441406 108.6875 29.457031 108.683594 " fill-opacity="1" fill-rule="nonzero"/><path fill="#000000" d="M 48.242188 89.589844 C 48.199219 89.558594 48.132812 89.519531 48.089844 89.53125 C 47.699219 89.636719 47.441406 89.894531 47.308594 90.273438 C 47.285156 90.339844 47.390625 90.4375 47.433594 90.402344 C 48.1875 89.742188 48.320312 89.644531 48.242188 89.589844 " fill-opacity="1" fill-rule="nonzero"/><path fill="#000000" d="M 48.722656 89.890625 C 48.421875 89.949219 48.21875 90.132812 48.105469 90.414062 C 48.082031 90.46875 48.121094 90.519531 48.175781 90.554688 C 48.335938 90.527344 48.214844 90.644531 48.859375 90.101562 C 48.964844 90.011719 48.835938 89.871094 48.722656 89.890625 " fill-opacity="1" fill-rule="nonzero"/><path fill="#000000" d="M 49.710938 90.445312 C 49.414062 90.382812 49.074219 90.636719 49.03125 90.964844 C 49.019531 91.042969 49.117188 91.105469 49.171875 91.066406 C 49.875 90.554688 49.753906 90.628906 49.78125 90.519531 C 49.757812 90.496094 49.738281 90.453125 49.710938 90.445312 " fill-opacity="1" fill-rule="nonzero"/><path fill="#000000" d="M 49.832031 91.265625 C 49.855469 91.375 50.019531 91.3125 50.089844 91.195312 C 50.214844 90.992188 49.757812 90.910156 49.832031 91.265625 " fill-opacity="1" fill-rule="nonzero"/><g fill="#000000" fill-opacity="1"><g transform="translate(87.069569, 123.310296)"><g><path d="M 0.527344 -17.355469 C 2.035156 -17.355469 2.136719 -16.109375 2.136719 -12.65625 L 2.136719 -4.875 C 2.136719 -1.417969 2.035156 -0.175781 0.527344 -0.175781 L 0.527344 0 L 13.078125 0 L 13.078125 -2.890625 L 12.902344 -2.890625 C 12.902344 -0.367188 7.554688 -0.175781 5.890625 -0.175781 L 3.644531 -0.175781 L 3.644531 -9.535156 C 3.925781 -9.902344 4.363281 -10.167969 4.875 -10.148438 C 6.117188 -10.113281 7.011719 -8.605469 9.148438 -8.605469 C 10.535156 -8.605469 11.394531 -9.5 11.394531 -10.535156 L 11.21875 -10.535156 C 11.21875 -9.921875 10.585938 -9.535156 9.921875 -9.535156 C 8.378906 -9.535156 7.414062 -10.621094 5.679688 -10.621094 C 4.875 -10.621094 4.171875 -10.324219 3.644531 -9.816406 L 3.644531 -17.355469 L 6.554688 -17.355469 C 10.585938 -17.355469 12.902344 -16.40625 12.902344 -15.234375 L 12.902344 -15.164062 L 13.078125 -15.164062 L 13.078125 -17.527344 L 0.527344 -17.527344 Z M 0.527344 -17.355469 "/></g></g></g><g fill="#000000" fill-opacity="1"><g transform="translate(104.070894, 123.310296)"><g><path d="M 0.527344 -17.355469 C 2.035156 -17.355469 2.136719 -16.109375 2.136719 -12.65625 L 2.136719 -4.875 C 2.136719 -1.417969 2.035156 -0.175781 0.527344 -0.175781 L 0.527344 0 L 5.257812 0 L 5.257812 -0.175781 C 3.75 -0.175781 3.644531 -1.417969 3.644531 -4.875 L 3.644531 -12.65625 C 3.644531 -16.109375 3.75 -17.355469 5.257812 -17.355469 L 5.257812 -17.527344 L 0.527344 -17.527344 Z M 0.527344 -17.355469 "/></g></g></g><g fill="#000000" fill-opacity="1"><g transform="translate(113.25618, 123.310296)"><g><path d="M 0 -17.355469 C 1.070312 -17.355469 1.628906 -16.390625 2.402344 -14.460938 L 8.011719 0.351562 L 8.1875 0.351562 L 13.796875 -14.460938 C 14.53125 -16.40625 15.128906 -17.355469 16.195312 -17.355469 L 16.195312 -17.527344 L 11.234375 -17.527344 L 11.234375 -17.355469 C 13.707031 -17.355469 13.671875 -15.511719 13.21875 -14.109375 C 11.867188 -9.957031 10.21875 -5.820312 8.765625 -1.683594 L 4.03125 -14.164062 C 3.367188 -15.933594 3.277344 -17.355469 5.75 -17.355469 L 5.75 -17.527344 L 0 -17.527344 Z M 0 -17.355469 "/></g></g></g><g fill="#000000" fill-opacity="1"><g transform="translate(132.851166, 123.310296)"><g><path d="M 0.527344 -17.355469 C 2.035156 -17.355469 2.136719 -16.109375 2.136719 -12.65625 L 2.136719 -4.875 C 2.136719 -1.417969 2.035156 -0.175781 0.527344 -0.175781 L 0.527344 0 L 13.078125 0 L 13.078125 -2.890625 L 12.902344 -2.890625 C 12.902344 -0.367188 7.554688 -0.175781 5.890625 -0.175781 L 3.644531 -0.175781 L 3.644531 -9.535156 C 3.925781 -9.902344 4.363281 -10.167969 4.875 -10.148438 C 6.117188 -10.113281 7.011719 -8.605469 9.148438 -8.605469 C 10.535156 -8.605469 11.394531 -9.5 11.394531 -10.535156 L 11.21875 -10.535156 C 11.21875 -9.921875 10.585938 -9.535156 9.921875 -9.535156 C 8.378906 -9.535156 7.414062 -10.621094 5.679688 -10.621094 C 4.875 -10.621094 4.171875 -10.324219 3.644531 -9.816406 L 3.644531 -17.355469 L 6.554688 -17.355469 C 10.585938 -17.355469 12.902344 -16.40625 12.902344 -15.234375 L 12.902344 -15.164062 L 13.078125 -15.164062 L 13.078125 -17.527344 L 0.527344 -17.527344 Z M 0.527344 -17.355469 "/></g></g></g><g fill="#000000" fill-opacity="1"><g transform="translate(149.852489, 123.310296)"><g><path d="M 0.527344 -17.527344 L 0.527344 -17.355469 C 2.035156 -17.355469 2.136719 -16.109375 2.136719 -12.65625 L 2.136719 -4.875 C 2.136719 -1.417969 2.035156 -0.175781 0.527344 -0.175781 L 0.527344 0 L 5.257812 0 L 5.257812 -0.175781 C 3.75 -0.175781 2.3125 -2.226562 2.3125 -7.328125 L 2.3125 -16.546875 L 13.410156 0.351562 L 13.585938 0.351562 L 13.585938 -12.65625 C 13.585938 -16.109375 13.691406 -17.355469 15.199219 -17.355469 L 15.199219 -17.527344 L 10.464844 -17.527344 L 10.464844 -17.355469 C 11.972656 -17.355469 13.410156 -15.304688 13.410156 -10.203125 L 13.410156 -2.558594 L 3.59375 -17.527344 Z M 0.527344 -17.527344 "/></g></g></g><g fill="#000000" fill-opacity="1"><g transform="translate(168.974318, 123.310296)"><g><path d="M 0.527344 -17.527344 L 0.527344 -15.164062 L 0.699219 -15.164062 C 0.699219 -15.214844 0.683594 -15.164062 0.683594 -15.234375 C 0.683594 -16.40625 2.890625 -17.355469 5.90625 -17.355469 L 5.90625 -4.875 C 5.90625 -1.417969 5.800781 -0.175781 4.292969 -0.175781 L 4.292969 0 L 8.871094 0 L 8.871094 -0.175781 C 7.363281 -0.175781 7.398438 -1.417969 7.398438 -4.875 L 7.398438 -17.355469 C 10.414062 -17.355469 12.621094 -16.40625 12.621094 -15.234375 C 12.621094 -15.164062 12.601562 -15.214844 12.601562 -15.164062 L 12.777344 -15.164062 L 12.777344 -17.527344 Z M 0.527344 -17.527344 "/></g></g></g><g fill="#000000" fill-opacity="1"><g transform="translate(185.677716, 123.310296)"><g><path d="M 0.527344 -17.355469 C 2.035156 -17.355469 2.136719 -16.109375 2.136719 -12.65625 L 2.136719 -4.875 C 2.136719 -1.417969 2.035156 -0.175781 0.527344 -0.175781 L 0.527344 0 L 13.078125 0 L 13.078125 -2.890625 L 12.902344 -2.890625 C 12.902344 -0.367188 7.554688 -0.175781 5.890625 -0.175781 L 3.644531 -0.175781 L 3.644531 -9.535156 C 3.925781 -9.902344 4.363281 -10.167969 4.875 -10.148438 C 6.117188 -10.113281 7.011719 -8.605469 9.148438 -8.605469 C 10.535156 -8.605469 11.394531 -9.5 11.394531 -10.535156 L 11.21875 -10.535156 C 11.21875 -9.921875 10.585938 -9.535156 9.921875 -9.535156 C 8.378906 -9.535156 7.414062 -10.621094 5.679688 -10.621094 C 4.875 -10.621094 4.171875 -10.324219 3.644531 -9.816406 L 3.644531 -17.355469 L 6.554688 -17.355469 C 10.585938 -17.355469 12.902344 -16.40625 12.902344 -15.234375 L 12.902344 -15.164062 L 13.078125 -15.164062 L 13.078125 -17.527344 L 0.527344 -17.527344 Z M 0.527344 -17.355469 "/></g></g></g></svg>